NotoSansEthiopic-SemiBold.ufo
<glyph name="hyphen" format="2">
  <advance width="322"/>
  <unicode hex="002D"/>
  <outline>
    <contour>
      <point x="32" y="211" type="line"/>
      <point x="290" y="211" type="line"/>
      <point x="290" y="325" type="line"/>
      <point x="32" y="325" type="line"/>
    </contour>
  </outline>
</glyph>
<glyph name="dieresiscomb" format="2">
  <unicode hex="0308"/>
  <anchor x="-1" y="546" name="_top"/>
  <anchor x="-1" y="752" name="top"/>
  <outline>
    <contour>
      <point x="-168" y="686" type="curve"/>
      <point x="-168" y="642"/>
      <point x="-138" y="621"/>
      <point x="-100" y="621" type="curve" smooth="yes"/>
      <point x="-63" y="621"/>
      <point x="-31" y="642"/>
      <point x="-31" y="686" type="curve" smooth="yes"/>
      <point x="-31" y="732"/>
      <point x="-63" y="752"/>
      <point x="-100" y="752" type="curve" smooth="yes"/>
      <point x="-138" y="752"/>
      <point x="-168" y="732"/>
    </contour>
    <contour>
      <point x="29" y="686" type="curve"/>
      <point x="29" y="642"/>
      <point x="59" y="621"/>
      <point x="98" y="621" type="curve" smooth="yes"/>
      <point x="135" y="621"/>
      <point x="167" y="642"/>
      <point x="167" y="686" type="curve" smooth="yes"/>
      <point x="167" y="732"/>
      <point x="135" y="752"/>
      <point x="98" y="752" type="curve" smooth="yes"/>
      <point x="59" y="752"/>
      <point x="29" y="732"/>
    </contour>
  </outline>
</glyph>
<glyph name="dblverticallineabovecomb" format="2">
  <unicode hex="030E"/>
  <anchor x="0" y="546" name="_top"/>
  <anchor x="0" y="770" name="top"/>
  <outline>
    <contour>
      <point x="-35" y="770" type="line"/>
      <point x="-135" y="770" type="line"/>
      <point x="-135" y="596" type="line"/>
      <point x="-35" y="596" type="line"/>
    </contour>
    <contour>
      <point x="135" y="770" type="line"/>
      <point x="35" y="770" type="line"/>
      <point x="35" y="596" type="line"/>
      <point x="135" y="596" type="line"/>
    </contour>
  </outline>
</glyph>
<glyph name="ha.eth" format="2">
  <advance width="649"/>
  <unicode hex="1200"/>
  <note>
uni1200
</note>
  <anchor x="324" y="714" name="top"/>
  <outline>
    <contour>
      <point x="322" y="-10" type="curve" smooth="yes"/>
      <point x="496" y="-10"/>
      <point x="564" y="87"/>
      <point x="564" y="226" type="curve" smooth="yes"/>
      <point x="564" y="714" type="line"/>
      <point x="416" y="714" type="line"/>
      <point x="416" y="234" type="line" smooth="yes"/>
      <point x="416" y="163"/>
      <point x="395" y="113"/>
      <point x="326" y="113" type="curve" smooth="yes"/>
      <point x="258" y="113"/>
      <point x="233" y="156"/>
      <point x="233" y="233" type="curve" smooth="yes"/>
      <point x="233" y="714" type="line"/>
      <point x="85" y="714" type="line"/>
      <point x="85" y="228" type="line" smooth="yes"/>
      <point x="85" y="78"/>
      <point x="158" y="-10"/>
    </contour>
  </outline>
</glyph>
<glyph name="hi.eth" format="2">
  <advance width="570"/>
  <unicode hex="1202"/>
  <note>
uni1202
</note>
  <anchor x="306" y="714" name="top"/>
  <outline>
    <contour>
      <point x="148" y="0" type="line"/>
      <point x="271" y="0" type="line"/>
      <point x="542" y="714" type="line"/>
      <point x="391" y="714" type="line"/>
      <point x="288" y="434" type="line"/>
      <point x="223" y="439"/>
      <point x="200" y="471"/>
      <point x="200" y="529" type="curve" smooth="yes"/>
      <point x="200" y="714" type="line"/>
      <point x="52" y="714" type="line"/>
      <point x="52" y="521" type="line" smooth="yes"/>
      <point x="52" y="398"/>
      <point x="123" y="337"/>
      <point x="244" y="323" type="curve"/>
      <point x="148" y="75" type="line"/>
    </contour>
    <contour>
      <point x="206" y="0" type="line"/>
      <point x="376" y="0" type="line"/>
      <point x="376" y="102" type="line"/>
      <point x="206" y="102" type="line"/>
    </contour>
    <component base="rightdoubleflag" xOffset="290"/>
  </outline>
</glyph>
<glyph name="haa.eth" format="2">
	<advance width="580"/>
	<unicode hex="1203"/>
	<anchor x="297" y="714" name="top"/>
	<note>
		uni1203
	</note>
	<outline>
		<contour>
			<point x="120" y="0" type="line"/>
			<point x="272" y="0" type="line"/>
			<point x="542" y="714" type="line"/>
			<point x="391" y="714" type="line"/>
			<point x="286" y="434" type="line"/>
			<point x="221" y="439"/>
			<point x="200" y="471"/>
			<point x="200" y="529" type="curve" smooth="yes"/>
			<point x="200" y="714" type="line"/>
			<point x="52" y="714" type="line"/>
			<point x="52" y="521" type="line" smooth="yes"/>
			<point x="52" y="398"/>
			<point x="121" y="337"/>
			<point x="242" y="323" type="curve"/>
		</contour>
	</outline>
</glyph>
<glyph name="hee.eth" format="2">
  <advance width="625"/>
  <unicode hex="1204"/>
  <note>
uni1204
</note>
  <anchor x="332" y="714" name="top"/>
  <outline>
    <contour>
      <point x="149" y="0" type="line"/>
      <point x="272" y="0" type="line"/>
      <point x="542" y="714" type="line"/>
      <point x="391" y="714" type="line"/>
      <point x="286" y="434" type="line"/>
      <point x="221" y="439"/>
      <point x="200" y="471"/>
      <point x="200" y="529" type="curve" smooth="yes"/>
      <point x="200" y="714" type="line"/>
      <point x="52" y="714" type="line"/>
      <point x="52" y="521" type="line" smooth="yes"/>
      <point x="52" y="398"/>
      <point x="121" y="337"/>
      <point x="242" y="323" type="curve"/>
      <point x="149" y="79" type="line"/>
    </contour>
    <contour>
      <point x="287" y="99" type="line"/>
      <point x="336" y="215" type="line"/>
      <point x="399" y="215" type="line" smooth="yes"/>
      <point x="447" y="215"/>
      <point x="466" y="194"/>
      <point x="466" y="163" type="curve" smooth="yes"/>
      <point x="466" y="124"/>
      <point x="443" y="99"/>
      <point x="369" y="99" type="curve" smooth="yes"/>
    </contour>
    <contour>
      <point x="149" y="0" type="line"/>
      <point x="365" y="0" type="line" smooth="yes"/>
      <point x="534" y="0"/>
      <point x="612" y="64"/>
      <point x="612" y="164" type="curve" smooth="yes"/>
      <point x="612" y="260"/>
      <point x="550" y="314"/>
      <point x="424" y="314" type="curve" smooth="yes"/>
      <point x="267" y="314" type="line"/>
    </contour>
  </outline>
</glyph>
<glyph name="he.eth" format="2">
  <advance width="746"/>
  <unicode hex="1205"/>
  <note>
uni1205
</note>
  <anchor x="355" y="714" name="top"/>
  <outline>
    <contour>
      <point x="419" y="-10" type="curve" smooth="yes"/>
      <point x="593" y="-10"/>
      <point x="661" y="87"/>
      <point x="661" y="226" type="curve" smooth="yes"/>
      <point x="661" y="714" type="line"/>
      <point x="513" y="714" type="line"/>
      <point x="513" y="234" type="line" smooth="yes"/>
      <point x="513" y="163"/>
      <point x="492" y="113"/>
      <point x="423" y="113" type="curve" smooth="yes"/>
      <point x="355" y="113"/>
      <point x="330" y="156"/>
      <point x="330" y="233" type="curve" smooth="yes"/>
      <point x="330" y="545" type="line"/>
      <point x="182" y="545" type="line"/>
      <point x="182" y="228" type="line" smooth="yes"/>
      <point x="182" y="78"/>
      <point x="255" y="-10"/>
    </contour>
    <contour>
      <point x="182" y="435" type="curve"/>
      <point x="330" y="545" type="line"/>
      <point x="270" y="545" type="line" smooth="yes"/>
      <point x="221" y="545"/>
      <point x="198" y="570"/>
      <point x="198" y="645" type="curve" smooth="yes"/>
      <point x="198" y="714" type="line"/>
      <point x="50" y="714" type="line"/>
      <point x="50" y="623" type="line" smooth="yes"/>
      <point x="50" y="504"/>
      <point x="100" y="444"/>
    </contour>
  </outline>
</glyph>
<glyph name="ho.eth" format="2">
  <advance width="839"/>
  <unicode hex="1206"/>
  <note>
uni1206
</note>
  <anchor x="455" y="724" name="top"/>
  <outline>
    <contour>
      <point x="322" y="-10" type="curve" smooth="yes"/>
      <point x="496" y="-10"/>
      <point x="564" y="87"/>
      <point x="564" y="226" type="curve" smooth="yes"/>
      <point x="564" y="678" type="line"/>
      <point x="416" y="678" type="line"/>
      <point x="416" y="234" type="line" smooth="yes"/>
      <point x="416" y="163"/>
      <point x="395" y="113"/>
      <point x="326" y="113" type="curve" smooth="yes"/>
      <point x="258" y="113"/>
      <point x="233" y="156"/>
      <point x="233" y="233" type="curve" smooth="yes"/>
      <point x="233" y="714" type="line"/>
      <point x="85" y="714" type="line"/>
      <point x="85" y="228" type="line" smooth="yes"/>
      <point x="85" y="78"/>
      <point x="158" y="-10"/>
    </contour>
    <contour>
      <point x="524" y="409" type="line"/>
      <point x="598" y="409" type="line" smooth="yes"/>
      <point x="760" y="409"/>
      <point x="826" y="478"/>
      <point x="826" y="579" type="curve" smooth="yes"/>
      <point x="826" y="669"/>
      <point x="771" y="724"/>
      <point x="635" y="724" type="curve" smooth="yes"/>
      <point x="553" y="724"/>
      <point x="473" y="702"/>
      <point x="416" y="678" type="curve"/>
    </contour>
    <contour>
      <point x="564" y="508" type="line"/>
      <point x="564" y="616" type="line"/>
      <point x="576" y="620"/>
      <point x="595" y="624"/>
      <point x="617" y="624" type="curve" smooth="yes"/>
      <point x="659" y="624"/>
      <point x="680" y="604"/>
      <point x="680" y="571" type="curve" smooth="yes"/>
      <point x="680" y="530"/>
      <point x="651" y="508"/>
      <point x="589" y="508" type="curve" smooth="yes"/>
    </contour>
  </outline>
</glyph>
<glyph name="la.eth" format="2">
  <advance width="661"/>
  <unicode hex="1208"/>
  <note>
uni1208
</note>
  <anchor x="332" y="714" name="top"/>
  <outline>
    <contour>
      <point x="42" y="0" type="curve"/>
      <point x="187" y="0" type="line"/>
      <point x="202" y="293"/>
      <point x="233" y="427"/>
      <point x="336" y="455" type="curve"/>
      <point x="470" y="0" type="line"/>
      <point x="623" y="0" type="line"/>
      <point x="406" y="714" type="line"/>
      <point x="252" y="714" type="line"/>
      <point x="300" y="565" type="line"/>
      <point x="126" y="521"/>
      <point x="57" y="366"/>
    </contour>
  </outline>
</glyph>
<glyph name="laa.eth" format="2">
  <advance width="648"/>
  <unicode hex="120B"/>
  <note>
uni120B
</note>
  <anchor x="326" y="714" name="top"/>
  <outline>
    <contour>
      <point x="457" y="0" type="line"/>
      <point x="610" y="0" type="line"/>
      <point x="393" y="714" type="line"/>
      <point x="239" y="714" type="line"/>
      <point x="287" y="565" type="line"/>
      <point x="144" y="529"/>
      <point x="72" y="417"/>
      <point x="42" y="175" type="curve"/>
      <point x="187" y="175" type="line"/>
      <point x="207" y="348"/>
      <point x="243" y="433"/>
      <point x="323" y="455" type="curve"/>
    </contour>
  </outline>
</glyph>
<glyph name="lee.eth" format="2">
  <advance width="854"/>
  <unicode hex="120C"/>
  <note>
uni120C
</note>
  <anchor x="441" y="714" name="top"/>
  <outline>
    <contour>
      <point x="42" y="0" type="curve"/>
      <point x="187" y="0" type="line"/>
      <point x="202" y="293"/>
      <point x="233" y="427"/>
      <point x="336" y="455" type="curve"/>
      <point x="470" y="0" type="line"/>
      <point x="586" y="0" type="line"/>
      <point x="613" y="34" type="line"/>
      <point x="406" y="714" type="line"/>
      <point x="252" y="714" type="line"/>
      <point x="300" y="565" type="line"/>
      <point x="126" y="521"/>
      <point x="57" y="366"/>
    </contour>
    <contour>
      <point x="582" y="99" type="line"/>
      <point x="544" y="215" type="line"/>
      <point x="628" y="215" type="line" smooth="yes"/>
      <point x="676" y="215"/>
      <point x="695" y="194"/>
      <point x="695" y="163" type="curve" smooth="yes"/>
      <point x="695" y="124"/>
      <point x="672" y="99"/>
      <point x="598" y="99" type="curve" smooth="yes"/>
    </contour>
    <contour>
      <point x="523" y="0" type="line"/>
      <point x="594" y="0" type="line" smooth="yes"/>
      <point x="763" y="0"/>
      <point x="841" y="64"/>
      <point x="841" y="164" type="curve" smooth="yes"/>
      <point x="841" y="260"/>
      <point x="779" y="314"/>
      <point x="653" y="314" type="curve" smooth="yes"/>
      <point x="434" y="314" type="line"/>
    </contour>
  </outline>
</glyph>
<glyph name="le.eth" format="2">
  <advance width="730"/>
  <unicode hex="120D"/>
  <note>
uni120D
</note>
  <anchor x="380" y="714" name="top"/>
  <outline>
    <contour>
      <point x="42" y="0" type="curve"/>
      <point x="213" y="0" type="line" smooth="yes"/>
      <point x="347" y="0"/>
      <point x="421" y="54"/>
      <point x="421" y="159" type="curve" smooth="yes"/>
      <point x="421" y="251"/>
      <point x="357" y="305"/>
      <point x="246" y="305" type="curve" smooth="yes"/>
      <point x="231" y="305" type="line"/>
      <point x="246" y="381"/>
      <point x="299" y="442"/>
      <point x="358" y="455" type="curve"/>
      <point x="565" y="0" type="line"/>
      <point x="718" y="0" type="line"/>
      <point x="394" y="714" type="line"/>
      <point x="240" y="714" type="line"/>
      <point x="306" y="565" type="line"/>
      <point x="159" y="512"/>
      <point x="76" y="381"/>
    </contour>
    <contour>
      <point x="191" y="99" type="line"/>
      <point x="193" y="127"/>
      <point x="200" y="180"/>
      <point x="206" y="206" type="curve"/>
      <point x="229" y="206" type="line" smooth="yes"/>
      <point x="271" y="206"/>
      <point x="295" y="192"/>
      <point x="295" y="157" type="curve" smooth="yes"/>
      <point x="295" y="117"/>
      <point x="266" y="99"/>
      <point x="208" y="99" type="curve" smooth="yes"/>
    </contour>
  </outline>
</glyph>
<glyph name="hha.eth" format="2">
  <advance width="806"/>
  <unicode hex="1210"/>
  <note>
uni1210
</note>
  <anchor x="403" y="714" name="top"/>
  <outline>
    <contour>
      <point x="57" y="0" type="line"/>
      <point x="205" y="0" type="line"/>
      <point x="205" y="200" type="line" smooth="yes"/>
      <point x="205" y="297"/>
      <point x="252" y="335"/>
      <point x="329" y="342" type="curve"/>
      <point x="329" y="0" type="line"/>
      <point x="477" y="0" type="line"/>
      <point x="477" y="342" type="line"/>
      <point x="554" y="335"/>
      <point x="601" y="297"/>
      <point x="601" y="199" type="curve" smooth="yes"/>
      <point x="601" y="0" type="line"/>
      <point x="749" y="0" type="line"/>
      <point x="749" y="197" type="line" smooth="yes"/>
      <point x="749" y="353"/>
      <point x="655" y="458"/>
      <point x="477" y="464" type="curve"/>
      <point x="477" y="714" type="line"/>
      <point x="329" y="714" type="line"/>
      <point x="329" y="465" type="line"/>
      <point x="151" y="458"/>
      <point x="57" y="353"/>
      <point x="57" y="196" type="curve" smooth="yes"/>
    </contour>
  </outline>
</glyph>
<glyph name="hhaa.eth" format="2">
  <advance width="806"/>
  <unicode hex="1213"/>
  <note>
uni1213
</note>
  <anchor x="403" y="714" name="top"/>
  <outline>
    <contour>
      <point x="601" y="0" type="line"/>
      <point x="749" y="0" type="line"/>
      <point x="749" y="207" type="line" smooth="yes"/>
      <point x="749" y="363"/>
      <point x="655" y="468"/>
      <point x="477" y="474" type="curve"/>
      <point x="477" y="714" type="line"/>
      <point x="329" y="714" type="line"/>
      <point x="329" y="475" type="line"/>
      <point x="151" y="468"/>
      <point x="57" y="363"/>
      <point x="57" y="206" type="curve" smooth="yes"/>
      <point x="57" y="161" type="line"/>
      <point x="205" y="161" type="line"/>
      <point x="205" y="210" type="line" smooth="yes"/>
      <point x="205" y="307"/>
      <point x="252" y="345"/>
      <point x="329" y="352" type="curve"/>
      <point x="329" y="161" type="line"/>
      <point x="477" y="161" type="line"/>
      <point x="477" y="352" type="line"/>
      <point x="554" y="345"/>
      <point x="601" y="307"/>
      <point x="601" y="209" type="curve" smooth="yes"/>
    </contour>
  </outline>
</glyph>
<glyph name="hhee.eth" format="2">
  <advance width="1021"/>
  <unicode hex="1214"/>
  <note>
uni1214
</note>
  <anchor x="532" y="714" name="top"/>
  <outline>
    <contour>
      <point x="601" y="0" type="line"/>
      <point x="761" y="0" type="line" smooth="yes"/>
      <point x="930" y="0"/>
      <point x="1008" y="64"/>
      <point x="1008" y="164" type="curve" smooth="yes"/>
      <point x="1008" y="260"/>
      <point x="946" y="314"/>
      <point x="820" y="314" type="curve" smooth="yes"/>
      <point x="601" y="314" type="line"/>
    </contour>
    <contour>
      <point x="749" y="99" type="line"/>
      <point x="749" y="215" type="line"/>
      <point x="795" y="215" type="line" smooth="yes"/>
      <point x="843" y="215"/>
      <point x="862" y="194"/>
      <point x="862" y="163" type="curve" smooth="yes"/>
      <point x="862" y="124"/>
      <point x="839" y="99"/>
      <point x="765" y="99" type="curve" smooth="yes"/>
    </contour>
    <component base="hha.eth"/>
  </outline>
</glyph>
<glyph name="mu.eth" format="2">
  <advance width="1193"/>
  <unicode hex="1219"/>
  <note>
uni1219
</note>
  <anchor x="618" y="714" name="top"/>
  <outline>
    <contour>
      <point x="280" y="-10" type="curve" smooth="yes"/>
      <point x="382" y="-10"/>
      <point x="444" y="43"/>
      <point x="495" y="100" type="curve"/>
      <point x="495" y="604" type="line"/>
      <point x="596" y="604" type="line"/>
      <point x="596" y="73" type="line"/>
      <point x="788" y="73" type="line" smooth="yes"/>
      <point x="924" y="73"/>
      <point x="1003" y="188"/>
      <point x="1003" y="404" type="curve" smooth="yes"/>
      <point x="1003" y="608"/>
      <point x="928" y="714"/>
      <point x="778" y="714" type="curve" smooth="yes"/>
      <point x="330" y="714" type="line" smooth="yes"/>
      <point x="149" y="714"/>
      <point x="53" y="566"/>
      <point x="53" y="321" type="curve" smooth="yes"/>
      <point x="53" y="110"/>
      <point x="115" y="-10"/>
    </contour>
    <contour>
      <point x="284" y="102" type="curve" smooth="yes"/>
      <point x="227" y="102"/>
      <point x="199" y="172"/>
      <point x="199" y="328" type="curve" smooth="yes"/>
      <point x="199" y="480"/>
      <point x="241" y="604"/>
      <point x="337" y="604" type="curve" smooth="yes"/>
      <point x="347" y="604" type="line"/>
      <point x="347" y="133" type="line"/>
      <point x="334" y="116"/>
      <point x="313" y="102"/>
    </contour>
    <contour>
      <point x="744" y="184" type="line"/>
      <point x="744" y="604" type="line"/>
      <point x="770" y="604" type="line" smooth="yes"/>
      <point x="847" y="604"/>
      <point x="858" y="485"/>
      <point x="858" y="401" type="curve" smooth="yes"/>
      <point x="858" y="301"/>
      <point x="845" y="184"/>
      <point x="767" y="184" type="curve" smooth="yes"/>
    </contour>
    <component base="rightdoubleflag" xOffset="913" yOffset="324"/>
  </outline>
</glyph>
<glyph name="maa.eth" format="2">
  <advance width="1005"/>
  <unicode hex="121B"/>
  <note>
uni121B
</note>
  <anchor x="502" y="714" name="top"/>
  <outline>
    <contour>
      <point x="605" y="0" type="line"/>
      <point x="757" y="0" type="line"/>
      <point x="927" y="396" type="line" smooth="yes"/>
      <point x="954" y="459"/>
      <point x="977" y="516"/>
      <point x="977" y="564" type="curve" smooth="yes"/>
      <point x="977" y="667"/>
      <point x="917" y="714"/>
      <point x="787" y="714" type="curve" smooth="yes"/>
      <point x="293" y="714" type="line" smooth="yes"/>
      <point x="132" y="714"/>
      <point x="28" y="613"/>
      <point x="28" y="460" type="curve" smooth="yes"/>
      <point x="28" y="327"/>
      <point x="107" y="256"/>
      <point x="237" y="256" type="curve" smooth="yes"/>
      <point x="319" y="256"/>
      <point x="401" y="287"/>
      <point x="471" y="347" type="curve"/>
      <point x="471" y="604" type="line"/>
      <point x="571" y="604" type="line"/>
      <point x="562" y="565"/>
      <point x="557" y="529"/>
      <point x="557" y="494" type="curve" smooth="yes"/>
      <point x="557" y="394"/>
      <point x="612" y="344"/>
      <point x="723" y="344" type="curve" smooth="yes"/>
      <point x="754" y="344" type="line"/>
    </contour>
    <contour>
      <point x="252" y="375" type="curve" smooth="yes"/>
      <point x="207" y="375"/>
      <point x="175" y="402"/>
      <point x="175" y="468" type="curve" smooth="yes"/>
      <point x="175" y="558"/>
      <point x="224" y="604"/>
      <point x="300" y="604" type="curve" smooth="yes"/>
      <point x="323" y="604" type="line"/>
      <point x="323" y="398" type="line"/>
      <point x="302" y="384"/>
      <point x="281" y="375"/>
    </contour>
    <contour>
      <point x="789" y="455" type="line" smooth="yes"/>
      <point x="732" y="455"/>
      <point x="703" y="473"/>
      <point x="703" y="522" type="curve" smooth="yes"/>
      <point x="703" y="546"/>
      <point x="706" y="571"/>
      <point x="718" y="604" type="curve"/>
      <point x="773" y="604" type="line" smooth="yes"/>
      <point x="810" y="604"/>
      <point x="832" y="582"/>
      <point x="832" y="553" type="curve" smooth="yes"/>
      <point x="832" y="535"/>
      <point x="825" y="506"/>
      <point x="811" y="475" type="curve" smooth="yes"/>
      <point x="802" y="455" type="line"/>
    </contour>
  </outline>
</glyph>
<glyph name="me.eth" format="2">
  <advance width="989"/>
  <unicode hex="121D"/>
  <note>
uni121D
</note>
  <anchor x="496" y="714" name="top"/>
  <outline>
    <contour>
      <point x="237" y="256" type="curve" smooth="yes"/>
      <point x="319" y="256"/>
      <point x="401" y="287"/>
      <point x="471" y="347" type="curve"/>
      <point x="471" y="604" type="line"/>
      <point x="556" y="604" type="line"/>
      <point x="556" y="345" type="line"/>
      <point x="773" y="345" type="line" smooth="yes"/>
      <point x="905" y="345"/>
      <point x="964" y="432"/>
      <point x="964" y="538" type="curve" smooth="yes"/>
      <point x="964" y="640"/>
      <point x="895" y="714"/>
      <point x="748" y="714" type="curve" smooth="yes"/>
      <point x="293" y="714" type="line" smooth="yes"/>
      <point x="132" y="714"/>
      <point x="28" y="613"/>
      <point x="28" y="460" type="curve" smooth="yes"/>
      <point x="28" y="327"/>
      <point x="107" y="256"/>
    </contour>
    <contour>
      <point x="171" y="0" type="line"/>
      <point x="323" y="0" type="line"/>
      <point x="471" y="347" type="line"/>
      <point x="319" y="347" type="line"/>
    </contour>
    <contour>
      <point x="252" y="375" type="curve" smooth="yes"/>
      <point x="207" y="375"/>
      <point x="175" y="402"/>
      <point x="175" y="468" type="curve" smooth="yes"/>
      <point x="175" y="558"/>
      <point x="224" y="604"/>
      <point x="300" y="604" type="curve" smooth="yes"/>
      <point x="323" y="604" type="line"/>
      <point x="323" y="398" type="line"/>
      <point x="302" y="384"/>
      <point x="281" y="375"/>
    </contour>
    <contour>
      <point x="704" y="456" type="line"/>
      <point x="704" y="604" type="line"/>
      <point x="740" y="604" type="line" smooth="yes"/>
      <point x="807" y="604"/>
      <point x="818" y="562"/>
      <point x="818" y="533" type="curve" smooth="yes"/>
      <point x="818" y="497"/>
      <point x="805" y="456"/>
      <point x="740" y="456" type="curve" smooth="yes"/>
    </contour>
  </outline>
</glyph>
<glyph name="sza.eth" format="2">
  <advance width="910"/>
  <unicode hex="1220"/>
  <note>
uni1220
</note>
  <anchor x="455" y="714" name="top"/>
  <outline>
    <contour>
      <point x="289" y="-10" type="curve" smooth="yes"/>
      <point x="373" y="-10"/>
      <point x="450" y="33"/>
      <point x="482" y="130" type="curve"/>
      <point x="509" y="101"/>
      <point x="557" y="79"/>
      <point x="616" y="79" type="curve" smooth="yes"/>
      <point x="778" y="79"/>
      <point x="825" y="199"/>
      <point x="825" y="309" type="curve" smooth="yes"/>
      <point x="825" y="714" type="line"/>
      <point x="677" y="714" type="line"/>
      <point x="677" y="311" type="line" smooth="yes"/>
      <point x="677" y="253"/>
      <point x="664" y="204"/>
      <point x="605" y="204" type="curve" smooth="yes"/>
      <point x="548" y="204"/>
      <point x="529" y="245"/>
      <point x="529" y="312" type="curve" smooth="yes"/>
      <point x="529" y="714" type="line"/>
      <point x="381" y="714" type="line"/>
      <point x="381" y="218" type="line" smooth="yes"/>
      <point x="381" y="158"/>
      <point x="359" y="113"/>
      <point x="306" y="113" type="curve" smooth="yes"/>
      <point x="252" y="113"/>
      <point x="233" y="151"/>
      <point x="233" y="217" type="curve" smooth="yes"/>
      <point x="233" y="714" type="line"/>
      <point x="85" y="714" type="line"/>
      <point x="85" y="212" type="line" smooth="yes"/>
      <point x="85" y="82"/>
      <point x="140" y="-10"/>
    </contour>
  </outline>
</glyph>
<glyph name="szi.eth" format="2">
	<advance width="900"/>
	<unicode hex="1222"/>
	<anchor x="487" y="714" name="top"/>
	<note>
		uni1222
	</note>
	<outline>
		<contour>
			<point x="493" y="0" type="line"/>
			<point x="611" y="0" type="line"/>
			<point x="800" y="439" type="line"/>
			<point x="608" y="344" type="line"/>
			<point x="493" y="79" type="line"/>
		</contour>
		<contour>
			<point x="578" y="0" type="line"/>
			<point x="701" y="0" type="line"/>
			<point x="701" y="102" type="line"/>
			<point x="578" y="102" type="line"/>
		</contour>
		<component base="shorttoploops"/>
		<component base="rightdoubleflag" xOffset="620"/>
	</outline>
</glyph>
<glyph name="szaa.eth" format="2">
  <advance width="910"/>
  <unicode hex="1223"/>
  <note>
uni1223
</note>
  <anchor x="455" y="714" name="top"/>
  <outline>
    <contour>
      <point x="461" y="0" type="line"/>
      <point x="613" y="0" type="line"/>
      <point x="806" y="453" type="line"/>
      <point x="662" y="453" type="line"/>
    </contour>
    <component base="shorttoploops"/>
  </outline>
</glyph>
<glyph name="szee.eth" format="2">
  <advance width="986"/>
  <unicode hex="1224"/>
  <note>
uni1224
</note>
  <anchor x="529" y="714" name="top"/>
  <outline>
    <contour>
      <point x="510" y="0" type="line"/>
      <point x="633" y="0" type="line"/>
      <point x="808" y="459" type="line"/>
      <point x="642" y="422" type="line"/>
      <point x="510" y="79" type="line"/>
    </contour>
    <contour>
      <point x="648" y="99" type="line"/>
      <point x="697" y="215" type="line"/>
      <point x="760" y="215" type="line" smooth="yes"/>
      <point x="808" y="215"/>
      <point x="827" y="194"/>
      <point x="827" y="163" type="curve" smooth="yes"/>
      <point x="827" y="124"/>
      <point x="804" y="99"/>
      <point x="730" y="99" type="curve" smooth="yes"/>
    </contour>
    <contour>
      <point x="510" y="0" type="line"/>
      <point x="726" y="0" type="line" smooth="yes"/>
      <point x="895" y="0"/>
      <point x="973" y="64"/>
      <point x="973" y="164" type="curve" smooth="yes"/>
      <point x="973" y="260"/>
      <point x="911" y="314"/>
      <point x="785" y="314" type="curve" smooth="yes"/>
      <point x="628" y="314" type="line"/>
    </contour>
    <component base="shorttoploops"/>
  </outline>
</glyph>
<glyph name="sze.eth" format="2">
  <advance width="1011"/>
  <unicode hex="1225"/>
  <note>
uni1225
</note>
  <anchor x="478" y="714" name="top"/>
  <outline>
    <contour>
      <point x="30" y="0" type="line"/>
      <point x="182" y="0" type="line"/>
      <point x="333" y="353" type="line"/>
      <point x="231" y="453" type="line"/>
    </contour>
    <component base="shorttoploops" xOffset="101"/>
  </outline>
</glyph>
<glyph name="szo.eth" format="2">
  <advance width="910"/>
  <unicode hex="1226"/>
  <note>
uni1226
</note>
  <anchor x="455" y="714" name="top"/>
  <outline>
    <contour>
      <point x="166" y="0" type="line"/>
      <point x="318" y="0" type="line"/>
      <point x="500" y="418" type="line"/>
      <point x="310" y="326" type="line"/>
    </contour>
    <component base="shorttoploops"/>
  </outline>
</glyph>
<glyph name="ru.eth" format="2">
  <advance width="620"/>
  <unicode hex="1229"/>
  <note>
uni1229
</note>
  <anchor x="325" y="714" name="top"/>
  <outline>
    <contour>
      <point x="282" y="0" type="line"/>
      <point x="430" y="0" type="line"/>
      <point x="430" y="171" type="line"/>
      <point x="519" y="171" type="line"/>
      <point x="478" y="273" type="line"/>
      <point x="274" y="273" type="line" smooth="yes"/>
      <point x="211" y="273"/>
      <point x="187" y="293"/>
      <point x="187" y="336" type="curve" smooth="yes"/>
      <point x="187" y="378"/>
      <point x="209" y="393"/>
      <point x="290" y="436" type="curve" smooth="yes"/>
      <point x="424" y="507"/>
      <point x="467" y="577"/>
      <point x="467" y="714" type="curve"/>
      <point x="318" y="714" type="line"/>
      <point x="318" y="617"/>
      <point x="295" y="581"/>
      <point x="196" y="524" type="curve" smooth="yes"/>
      <point x="95" y="466"/>
      <point x="40" y="431"/>
      <point x="40" y="332" type="curve" smooth="yes"/>
      <point x="40" y="233"/>
      <point x="97" y="167"/>
      <point x="259" y="167" type="curve" smooth="yes"/>
      <point x="282" y="167" type="line"/>
    </contour>
    <component base="rightsingleflag" xOffset="340" yOffset="-143"/>
  </outline>
</glyph>
<glyph name="ri.eth" format="2">
  <advance width="595"/>
  <unicode hex="122A"/>
  <note>
uni122A
</note>
  <anchor x="297" y="714" name="top"/>
  <outline>
    <contour>
      <point x="296" y="0" type="line"/>
      <point x="475" y="0"/>
      <point x="555" y="86"/>
      <point x="555" y="243" type="curve" smooth="yes"/>
      <point x="555" y="279" type="line"/>
      <point x="406" y="279" type="line"/>
      <point x="406" y="239" type="line" smooth="yes"/>
      <point x="406" y="137"/>
      <point x="372" y="101"/>
      <point x="296" y="101" type="curve"/>
    </contour>
    <component base="nose"/>
  </outline>
</glyph>
<glyph name="raa.eth" format="2">
  <advance width="677"/>
  <unicode hex="122B"/>
  <note>
uni122B
</note>
  <anchor x="353" y="714" name="top"/>
  <outline>
    <contour>
      <point x="296" y="0" type="line"/>
      <point x="415" y="0" type="line"/>
      <point x="417" y="152"/>
      <point x="457" y="226"/>
      <point x="537" y="231" type="curve"/>
      <point x="561" y="176"/>
      <point x="592" y="158"/>
      <point x="646" y="158" type="curve" smooth="yes"/>
      <point x="667" y="158" type="line"/>
      <point x="628" y="333" type="line"/>
      <point x="548" y="333" type="line" smooth="yes"/>
      <point x="387" y="333"/>
      <point x="310" y="230"/>
      <point x="299" y="101" type="curve"/>
      <point x="296" y="101" type="line"/>
    </contour>
    <component base="nose"/>
  </outline>
</glyph>
<glyph name="ree.eth" format="2">
  <advance width="624"/>
  <unicode hex="122C"/>
  <note>
uni122C
</note>
  <anchor x="322" y="714" name="top"/>
  <outline>
    <contour>
      <point x="296" y="0" type="line"/>
      <point x="436" y="0" type="line"/>
      <point x="436" y="60" type="line"/>
      <point x="344" y="102" type="line"/>
      <point x="296" y="102" type="line"/>
    </contour>
    <component base="nose"/>
    <component base="ballbig" xOffset="217" yOffset="-163"/>
  </outline>
</glyph>
<glyph name="ro.eth" format="2">
  <advance width="680"/>
  <unicode hex="122E"/>
  <note>
uni122E
</note>
  <anchor x="356" y="714" name="top"/>
  <outline>
    <contour>
      <point x="505" y="-67" type="curve" smooth="yes"/>
      <point x="538" y="-67" type="line"/>
      <point x="511" y="51" type="line"/>
      <point x="538" y="169" type="line"/>
      <point x="505" y="169" type="line" smooth="yes"/>
      <point x="453" y="169"/>
      <point x="422" y="135"/>
      <point x="408" y="102" type="curve"/>
      <point x="330" y="102" type="line" smooth="yes"/>
      <point x="231" y="102"/>
      <point x="201" y="136"/>
      <point x="201" y="253" type="curve" smooth="yes"/>
      <point x="201" y="318" type="line" smooth="yes"/>
      <point x="201" y="536"/>
      <point x="260" y="612"/>
      <point x="388" y="612" type="curve"/>
      <point x="476" y="714" type="line"/>
      <point x="387" y="714" type="line" smooth="yes"/>
      <point x="194" y="714"/>
      <point x="53" y="620"/>
      <point x="53" y="307" type="curve" smooth="yes"/>
      <point x="53" y="253" type="line" smooth="yes"/>
      <point x="53" y="64"/>
      <point x="122" y="0"/>
      <point x="328" y="0" type="curve" smooth="yes"/>
      <point x="408" y="0" type="line"/>
      <point x="424" y="-36"/>
      <point x="453" y="-67"/>
    </contour>
    <component base="ballbig" xOffset="273" yOffset="263"/>
  </outline>
</glyph>
<glyph name="sa.eth" format="2">
	<advance width="649"/>
	<unicode hex="1230"/>
	<anchor x="324" y="760" name="top"/>
	<note>
		uni1230
	</note>
	<outline>
		<contour>
			<point x="251" y="564" type="line"/>
			<point x="399" y="564" type="line"/>
			<point x="399" y="760" type="line"/>
			<point x="251" y="760" type="line"/>
		</contour>
		<component base="shortnarch"/>
	</outline>
</glyph>
<glyph name="saa.eth" format="2">
  <advance width="649"/>
  <unicode hex="1233"/>
  <note>
uni1233
</note>
  <anchor x="324" y="760" name="top"/>
  <outline>
    <contour>
      <point x="251" y="564" type="line"/>
      <point x="399" y="564" type="line"/>
      <point x="399" y="760" type="line"/>
      <point x="251" y="760" type="line"/>
    </contour>
    <component base="baashort" xOffset="13"/>
  </outline>
</glyph>
<glyph name="se.eth" format="2">
  <advance width="649"/>
  <unicode hex="1235"/>
  <note>
uni1235
</note>
  <anchor x="324" y="760" name="top"/>
  <outline>
    <contour>
      <point x="245" y="564" type="line"/>
      <point x="396" y="564" type="line"/>
      <point x="306" y="760" type="line"/>
      <point x="155" y="760" type="line"/>
    </contour>
    <component base="shortnarch"/>
  </outline>
</glyph>
<glyph name="qe.eth" format="2">
	<advance width="698"/>
	<unicode hex="1245"/>
	<anchor x="349" y="846" name="top"/>
	<note>
		uni1245
	</note>
	<outline>
		<contour>
			<point x="275" y="685" type="line"/>
			<point x="423" y="685" type="line"/>
			<point x="423" y="773" type="line"/>
			<point x="275" y="773" type="line"/>
		</contour>
		<component base="qa.eth"/>
		<component base="leftsingleflag" yScale="-1" xOffset="49" yOffset="1087"/>
	</outline>
</glyph>
<glyph name="qwi.eth" format="2">
  <advance width="978"/>
  <unicode hex="124A"/>
  <note>
uni124A
</note>
  <anchor x="499" y="714" name="top"/>
  <outline>
    <contour>
      <point x="940" y="176" type="curve" smooth="yes"/>
      <point x="968" y="176" type="line"/>
      <point x="929" y="351" type="line"/>
      <point x="718" y="351" type="line"/>
      <point x="718" y="249" type="line"/>
      <point x="838" y="249" type="line"/>
      <point x="863" y="190"/>
      <point x="901" y="176"/>
    </contour>
    <contour>
      <point x="595" y="332" type="line"/>
      <point x="774" y="332" type="line"/>
      <point x="774" y="434" type="line"/>
      <point x="595" y="434" type="line"/>
    </contour>
    <contour>
      <point x="718" y="249" type="line"/>
      <point x="837" y="249" type="line"/>
      <point x="837" y="521" type="line"/>
      <point x="718" y="521" type="line"/>
    </contour>
    <component base="qa.eth"/>
  </outline>
</glyph>
<glyph name="qwaa.eth" format="2">
  <advance width="698"/>
  <unicode hex="124B"/>
  <note>
uni124B
</note>
  <anchor x="349" y="713" name="top"/>
  <outline>
    <contour>
      <point x="253" y="88" type="line"/>
      <point x="610" y="88" type="line"/>
      <point x="610" y="190" type="line"/>
      <point x="253" y="190" type="line"/>
    </contour>
    <contour>
      <point x="491" y="0" type="line"/>
      <point x="610" y="0" type="line"/>
      <point x="610" y="190" type="line"/>
      <point x="491" y="190" type="line"/>
    </contour>
    <component base="midring" yOffset="54"/>
    <component base="leftsingleflag" xOffset="48" yOffset="-226"/>
    <component base="stem1" yScale="0.785" xOffset="196" yOffset="153"/>
  </outline>
</glyph>
<glyph name="qwe.eth" format="2">
  <advance width="968"/>
  <unicode hex="124D"/>
  <note>
uni124D
</note>
  <anchor x="494" y="714" name="top"/>
  <outline>
    <contour>
      <point x="703" y="326" type="line"/>
      <point x="817" y="326" type="line"/>
      <point x="817" y="589" type="line"/>
      <point x="703" y="589" type="line"/>
    </contour>
    <contour>
      <point x="575" y="326" type="line"/>
      <point x="754" y="326" type="line"/>
      <point x="754" y="428" type="line"/>
      <point x="575" y="428" type="line"/>
    </contour>
    <component base="rightsingleflag" xOffset="688" yOffset="12"/>
    <component base="qa.eth"/>
  </outline>
</glyph>
<glyph name="qha.eth" format="2">
	<advance width="698"/>
	<unicode hex="1250"/>
	<anchor x="349" y="859" name="top"/>
	<note>
		uni1250
	</note>
	<outline>
		<contour>
			<point x="275" y="685" type="line"/>
			<point x="423" y="685" type="line"/>
			<point x="423" y="766" type="line"/>
			<point x="275" y="766" type="line"/>
		</contour>
		<component base="qa.eth"/>
		<component base="bonemiddle" xOffset="44" yOffset="19"/>
	</outline>
</glyph>
<glyph name="qhu.eth" format="2">
  <advance width="698"/>
  <unicode hex="1251"/>
  <note>
uni1251
</note>
  <anchor x="349" y="859" name="top"/>
  <outline>
    <contour>
      <point x="275" y="685" type="line"/>
      <point x="423" y="685" type="line"/>
      <point x="423" y="766" type="line"/>
      <point x="275" y="766" type="line"/>
    </contour>
    <component base="qu.eth"/>
    <component base="bonemiddle" xOffset="37" yOffset="19"/>
  </outline>
</glyph>
<glyph name="qhaa.eth" format="2">
	<advance width="705"/>
	<unicode hex="1253"/>
	<anchor x="352" y="840" name="top"/>
	<note>
		uni1253
	</note>
	<outline>
		<contour>
			<point x="286" y="685" type="line"/>
			<point x="434" y="685" type="line"/>
			<point x="434" y="766" type="line"/>
			<point x="286" y="766" type="line"/>
		</contour>
		<component base="qaa.eth" xOffset="20"/>
		<component base="bonemiddle" xOffset="51"/>
	</outline>
</glyph>
<glyph name="qhee.eth" format="2">
  <advance width="698"/>
  <unicode hex="1254"/>
  <note>
uni1254
</note>
  <anchor x="349" y="878" name="top"/>
  <outline>
    <contour>
      <point x="275" y="685" type="line"/>
      <point x="423" y="685" type="line"/>
      <point x="423" y="766" type="line"/>
      <point x="275" y="766" type="line"/>
    </contour>
    <component base="qee.eth"/>
    <component base="bonemiddle" xOffset="34" yOffset="38"/>
  </outline>
</glyph>
<glyph name="qhe.eth" format="2">
  <advance width="779"/>
  <unicode hex="1255"/>
  <note>
uni1255
</note>
  <anchor x="379" y="840" name="top"/>
  <outline>
    <contour>
      <point x="358" y="0" type="line"/>
      <point x="506" y="0" type="line"/>
      <point x="506" y="575" type="line"/>
      <point x="458" y="575" type="line" smooth="yes"/>
      <point x="381" y="575"/>
      <point x="349" y="599"/>
      <point x="349" y="678" type="curve" smooth="yes"/>
      <point x="349" y="714" type="line"/>
      <point x="207" y="714" type="line"/>
      <point x="207" y="651" type="line" smooth="yes"/>
      <point x="207" y="542"/>
      <point x="259" y="486"/>
      <point x="358" y="471" type="curve"/>
    </contour>
    <component base="midringshort" xOffset="81" yOffset="-112"/>
    <component base="bone"/>
  </outline>
</glyph>
<glyph name="qhwa.eth" format="2">
  <advance width="835"/>
  <unicode hex="1258"/>
  <note>
uni1258
</note>
  <anchor x="422" y="876" name="top"/>
  <outline>
    <contour>
      <point x="275" y="685" type="line"/>
      <point x="423" y="685" type="line"/>
      <point x="423" y="766" type="line"/>
      <point x="275" y="766" type="line"/>
    </contour>
    <component base="stem1" xOffset="196"/>
    <component base="rightbulbsmall" xOffset="408" yOffset="-177"/>
    <component base="midringshort" yOffset="78"/>
    <component base="bonemiddle" xOffset="39" yOffset="36"/>
  </outline>
</glyph>
<glyph name="qhwi.eth" format="2">
  <advance width="966"/>
  <unicode hex="125A"/>
  <note>
uni125A
</note>
  <anchor x="493" y="859" name="top"/>
  <outline>
    <contour>
      <point x="928" y="176" type="curve" smooth="yes"/>
      <point x="956" y="176" type="line"/>
      <point x="917" y="351" type="line"/>
      <point x="706" y="351" type="line"/>
      <point x="706" y="249" type="line"/>
      <point x="826" y="249" type="line"/>
      <point x="851" y="190"/>
      <point x="889" y="176"/>
    </contour>
    <contour>
      <point x="583" y="332" type="line"/>
      <point x="762" y="332" type="line"/>
      <point x="762" y="434" type="line"/>
      <point x="583" y="434" type="line"/>
    </contour>
    <contour>
      <point x="706" y="249" type="line"/>
      <point x="825" y="249" type="line"/>
      <point x="825" y="521" type="line"/>
      <point x="706" y="521" type="line"/>
    </contour>
    <component base="qha.eth"/>
  </outline>
</glyph>
<glyph name="qhwaa.eth" format="2">
  <advance width="698"/>
  <unicode hex="125B"/>
  <note>
uni125B
</note>
  <anchor x="349" y="840" name="top"/>
  <outline>
    <contour>
      <point x="252" y="101" type="line"/>
      <point x="605" y="101" type="line"/>
      <point x="605" y="203" type="line"/>
      <point x="252" y="203" type="line"/>
    </contour>
    <contour>
      <point x="486" y="0" type="line"/>
      <point x="605" y="0" type="line"/>
      <point x="605" y="190" type="line"/>
      <point x="486" y="190" type="line"/>
    </contour>
    <component base="midringshort" yOffset="49"/>
    <component base="bonemiddle" xOffset="37"/>
    <component base="stem1" yScale="0.882" xOffset="195" yOffset="132"/>
    <component base="leftsingleflag" xOffset="47" yOffset="-213"/>
  </outline>
</glyph>
<glyph name="qhwe.eth" format="2">
  <advance width="968"/>
  <unicode hex="125D"/>
  <note>
uni125D
</note>
  <anchor x="494" y="859" name="top"/>
  <outline>
    <contour>
      <point x="703" y="326" type="line"/>
      <point x="817" y="326" type="line"/>
      <point x="817" y="589" type="line"/>
      <point x="703" y="589" type="line"/>
    </contour>
    <contour>
      <point x="575" y="326" type="line"/>
      <point x="754" y="326" type="line"/>
      <point x="754" y="428" type="line"/>
      <point x="575" y="428" type="line"/>
    </contour>
    <component base="qha.eth"/>
    <component base="rightsingleflag" xOffset="688" yOffset="12"/>
  </outline>
</glyph>
<glyph name="baa.eth" format="2">
  <advance width="644"/>
  <unicode hex="1263"/>
  <note>
uni1263
</note>
  <anchor x="319" y="724" name="top"/>
  <outline>
    <contour>
      <point x="411" y="0" type="line"/>
      <point x="559" y="0" type="line"/>
      <point x="559" y="486" type="line" smooth="yes"/>
      <point x="559" y="636"/>
      <point x="486" y="724"/>
      <point x="322" y="724" type="curve" smooth="yes"/>
      <point x="148" y="724"/>
      <point x="80" y="627"/>
      <point x="80" y="488" type="curve" smooth="yes"/>
      <point x="80" y="240" type="line"/>
      <point x="228" y="240" type="line"/>
      <point x="228" y="480" type="line" smooth="yes"/>
      <point x="228" y="551"/>
      <point x="249" y="601"/>
      <point x="318" y="601" type="curve" smooth="yes"/>
      <point x="386" y="601"/>
      <point x="411" y="558"/>
      <point x="411" y="481" type="curve" smooth="yes"/>
    </contour>
  </outline>
</glyph>
<glyph name="te.eth" format="2">
  <advance width="613"/>
  <unicode hex="1275"/>
  <note>
uni1275
</note>
  <anchor x="306" y="805" name="top"/>
  <outline>
    <contour>
      <point x="241" y="0" type="line"/>
      <point x="389" y="0" type="line"/>
      <point x="389" y="619" type="line"/>
      <point x="341" y="619" type="line" smooth="yes"/>
      <point x="264" y="619"/>
      <point x="232" y="643"/>
      <point x="232" y="722" type="curve" smooth="yes"/>
      <point x="232" y="805" type="line"/>
      <point x="90" y="805" type="line"/>
      <point x="90" y="695" type="line" smooth="yes"/>
      <point x="90" y="586"/>
      <point x="142" y="530"/>
      <point x="241" y="515" type="curve"/>
    </contour>
    <component base="footmiddle" yOffset="354"/>
  </outline>
</glyph>
<glyph name="caa.eth" format="2">
  <advance width="646"/>
  <unicode hex="127B"/>
  <note>
uni127B
</note>
  <anchor x="323" y="840" name="top"/>
  <outline>
    <contour>
      <point x="266" y="634" type="line"/>
      <point x="414" y="634" type="line"/>
      <point x="414" y="767" type="line"/>
      <point x="266" y="767" type="line"/>
    </contour>
    <component base="jstem"/>
    <component base="footmiddle" xOffset="33" yOffset="462"/>
    <component base="bonemiddle" xOffset="35"/>
  </outline>
</glyph>
<glyph name="cee.eth" format="2">
  <advance width="651"/>
  <unicode hex="127C"/>
  <note>
uni127C
</note>
  <anchor x="325" y="840" name="top"/>
  <outline>
    <contour>
      <point x="233" y="597" type="line"/>
      <point x="381" y="597" type="line"/>
      <point x="381" y="727" type="line"/>
      <point x="233" y="727" type="line"/>
    </contour>
    <component base="stem1" xOffset="154"/>
    <component base="baselinebowl" xOffset="204"/>
    <component base="bonemiddle" xOffset="2"/>
    <component base="footmiddle" yOffset="444"/>
  </outline>
</glyph>
<glyph name="ce.eth" format="2">
  <advance width="738"/>
  <unicode hex="127D"/>
  <note>
uni127D
</note>
  <anchor x="369" y="840" name="top"/>
  <outline>
    <contour>
      <point x="362" y="0" type="line"/>
      <point x="510" y="0" type="line"/>
      <point x="510" y="547" type="line"/>
      <point x="462" y="547" type="line" smooth="yes"/>
      <point x="385" y="547"/>
      <point x="353" y="571"/>
      <point x="353" y="650" type="curve" smooth="yes"/>
      <point x="353" y="773" type="line"/>
      <point x="211" y="773" type="line"/>
      <point x="211" y="623" type="line" smooth="yes"/>
      <point x="211" y="514"/>
      <point x="263" y="458"/>
      <point x="362" y="443" type="curve"/>
    </contour>
    <contour>
      <point x="49" y="671" type="line"/>
      <point x="418" y="671" type="line"/>
      <point x="434" y="635"/>
      <point x="463" y="604"/>
      <point x="515" y="604" type="curve" smooth="yes"/>
      <point x="548" y="604" type="line"/>
      <point x="521" y="722" type="line"/>
      <point x="548" y="840" type="line"/>
      <point x="515" y="840" type="line" smooth="yes"/>
      <point x="463" y="840"/>
      <point x="434" y="809"/>
      <point x="418" y="773" type="curve"/>
      <point x="140" y="773" type="line"/>
      <point x="124" y="809"/>
      <point x="95" y="840"/>
      <point x="43" y="840" type="curve" smooth="yes"/>
      <point x="10" y="840" type="line"/>
    </contour>
    <component base="footmiddle" xOffset="125" yOffset="320"/>
  </outline>
</glyph>
<glyph name="co.eth" format="2">
  <advance width="690"/>
  <unicode hex="127E"/>
  <note>
uni127E
</note>
  <anchor x="345" y="870" name="top"/>
  <outline>
    <contour>
      <point x="233" y="696" type="line"/>
      <point x="458" y="696" type="line"/>
      <point x="458" y="797" type="line"/>
      <point x="233" y="797" type="line"/>
    </contour>
    <component base="to.eth" xOffset="38"/>
    <component base="leftdoubleflag" xOffset="5" yOffset="695"/>
    <component base="rightsingleflag" yScale="-1" xOffset="405" yOffset="1111"/>
  </outline>
</glyph>
<glyph name="xaa.eth" format="2">
  <advance width="603"/>
  <unicode hex="1283"/>
  <note>
uni1283
</note>
  <anchor x="261" y="714" name="top"/>
  <outline>
    <contour>
      <point x="10" y="-73" type="line"/>
      <point x="33" y="-73" type="line" smooth="yes"/>
      <point x="91" y="-73"/>
      <point x="118" y="-50"/>
      <point x="139" y="0" type="curve"/>
      <point x="238" y="0" type="line" smooth="yes"/>
      <point x="420" y="0"/>
      <point x="513" y="84"/>
      <point x="513" y="249" type="curve" smooth="yes"/>
      <point x="513" y="341" type="line"/>
      <point x="365" y="341" type="line"/>
      <point x="365" y="247" type="line" smooth="yes"/>
      <point x="365" y="139"/>
      <point x="330" y="102"/>
      <point x="217" y="102" type="curve" smooth="yes"/>
      <point x="49" y="102" type="line"/>
    </contour>
    <contour>
      <point x="365" y="280" type="line"/>
      <point x="513" y="280" type="line"/>
      <point x="513" y="528" type="line"/>
      <point x="465" y="528" type="line" smooth="yes"/>
      <point x="388" y="528"/>
      <point x="356" y="552"/>
      <point x="356" y="631" type="curve" smooth="yes"/>
      <point x="356" y="714" type="line"/>
      <point x="214" y="714" type="line"/>
      <point x="214" y="604" type="line" smooth="yes"/>
      <point x="214" y="495"/>
      <point x="266" y="439"/>
      <point x="365" y="424" type="curve"/>
    </contour>
    <component base="leftsingleflag" xOffset="15" yOffset="231"/>
  </outline>
</glyph>
<glyph name="xe.eth" format="2">
  <advance width="631"/>
  <unicode hex="1285"/>
  <note>
uni1285
</note>
  <anchor x="284" y="714" name="top"/>
  <outline>
    <contour>
      <point x="28" y="366" type="curve"/>
      <point x="177" y="366" type="line"/>
      <point x="177" y="461"/>
      <point x="210" y="517"/>
      <point x="272" y="541" type="curve"/>
      <point x="250" y="646" type="line"/>
      <point x="110" y="623"/>
      <point x="28" y="531"/>
    </contour>
    <component base="na.eth" xOffset="192"/>
  </outline>
</glyph>
<glyph name="xwi.eth" format="2">
  <advance width="823"/>
  <unicode hex="128A"/>
  <note>
uni128A
</note>
  <anchor x="411" y="714" name="top"/>
  <outline>
    <contour>
      <point x="785" y="107" type="curve" smooth="yes"/>
      <point x="813" y="107" type="line"/>
      <point x="774" y="282" type="line"/>
      <point x="563" y="282" type="line"/>
      <point x="563" y="180" type="line"/>
      <point x="683" y="180" type="line"/>
      <point x="708" y="121"/>
      <point x="746" y="107"/>
    </contour>
    <contour>
      <point x="440" y="263" type="line"/>
      <point x="619" y="263" type="line"/>
      <point x="619" y="365" type="line"/>
      <point x="440" y="365" type="line"/>
    </contour>
    <contour>
      <point x="563" y="180" type="line"/>
      <point x="682" y="180" type="line"/>
      <point x="682" y="452" type="line"/>
      <point x="563" y="452" type="line"/>
    </contour>
    <component base="xa.eth"/>
  </outline>
</glyph>
<glyph name="xwaa.eth" format="2">
  <advance width="679"/>
  <unicode hex="128B"/>
  <note>
uni128B
</note>
  <anchor x="338" y="714" name="top"/>
  <outline>
    <contour>
      <point x="356" y="137" type="line"/>
      <point x="504" y="137" type="line"/>
      <point x="504" y="528" type="line"/>
      <point x="456" y="528" type="line" smooth="yes"/>
      <point x="379" y="528"/>
      <point x="347" y="552"/>
      <point x="347" y="631" type="curve" smooth="yes"/>
      <point x="347" y="714" type="line"/>
      <point x="205" y="714" type="line"/>
      <point x="205" y="604" type="line" smooth="yes"/>
      <point x="205" y="495"/>
      <point x="257" y="439"/>
      <point x="356" y="424" type="curve"/>
    </contour>
    <contour>
      <point x="237" y="108" type="line"/>
      <point x="667" y="108" type="line"/>
      <point x="667" y="210" type="line"/>
      <point x="237" y="210" type="line"/>
    </contour>
    <contour>
      <point x="548" y="0" type="line"/>
      <point x="667" y="0" type="line"/>
      <point x="667" y="210" type="line"/>
      <point x="548" y="210" type="line"/>
    </contour>
    <component base="leftsingleflag" xOffset="38" yOffset="-206"/>
    <component base="leftsingleflag" yOffset="231"/>
  </outline>
</glyph>
<glyph name="xwee.eth" format="2">
	<advance width="760"/>
	<unicode hex="128C"/>
	<anchor x="378" y="714" name="top"/>
	<note>
		uni128C
	</note>
	<outline>
		<contour>
			<point x="314" y="0" type="line"/>
			<point x="450" y="0" type="line"/>
			<point x="450" y="102" type="line"/>
			<point x="314" y="102" type="line"/>
		</contour>
		<component base="xee.eth"/>
		<component base="leftsingleflag" xOffset="66" yOffset="-314"/>
	</outline>
</glyph>
<glyph name="xwe.eth" format="2">
  <advance width="835"/>
  <unicode hex="128D"/>
  <note>
uni128D
</note>
  <anchor x="417" y="714" name="top"/>
  <outline>
    <contour>
      <point x="553" y="225" type="line"/>
      <point x="667" y="225" type="line"/>
      <point x="667" y="450" type="line"/>
      <point x="553" y="450" type="line"/>
    </contour>
    <contour>
      <point x="442" y="225" type="line"/>
      <point x="621" y="225" type="line"/>
      <point x="621" y="327" type="line"/>
      <point x="442" y="327" type="line"/>
    </contour>
    <component base="xa.eth"/>
    <component base="rightsingleflag" xOffset="555" yOffset="-89"/>
  </outline>
</glyph>
<glyph name="na.eth" format="2">
  <advance width="439"/>
  <unicode hex="1290"/>
  <note>
uni1290
</note>
  <anchor x="199" y="714" name="top"/>
  <outline>
    <contour>
      <point x="201" y="0" type="line"/>
      <point x="349" y="0" type="line"/>
      <point x="349" y="528" type="line"/>
      <point x="301" y="528" type="line" smooth="yes"/>
      <point x="224" y="528"/>
      <point x="192" y="552"/>
      <point x="192" y="631" type="curve" smooth="yes"/>
      <point x="192" y="714" type="line"/>
      <point x="50" y="714" type="line"/>
      <point x="50" y="604" type="line" smooth="yes"/>
      <point x="50" y="495"/>
      <point x="102" y="439"/>
      <point x="201" y="424" type="curve"/>
    </contour>
  </outline>
</glyph>
<glyph name="naa.eth" format="2">
  <advance width="560"/>
  <unicode hex="1293"/>
  <note>
uni1293
</note>
  <anchor x="305" y="714" name="top"/>
  <outline>
    <contour>
      <point x="60" y="240" type="line"/>
      <point x="208" y="292" type="line"/>
      <point x="208" y="318" type="line" smooth="yes"/>
      <point x="208" y="536"/>
      <point x="268" y="612"/>
      <point x="396" y="612" type="curve" smooth="yes"/>
      <point x="421" y="612" type="line"/>
      <point x="442" y="554"/>
      <point x="485" y="539"/>
      <point x="522" y="539" type="curve" smooth="yes"/>
      <point x="550" y="539" type="line"/>
      <point x="511" y="714" type="line"/>
      <point x="394" y="714" type="line" smooth="yes"/>
      <point x="201" y="714"/>
      <point x="60" y="620"/>
      <point x="60" y="307" type="curve" smooth="yes"/>
    </contour>
    <contour>
      <point x="241" y="0" type="line"/>
      <point x="389" y="0" type="line"/>
      <point x="389" y="353" type="line"/>
      <point x="127" y="353" type="line"/>
      <point x="60" y="240" type="line"/>
      <point x="241" y="240" type="line"/>
    </contour>
  </outline>
</glyph>
<glyph name="nee.eth" format="2">
  <advance width="542"/>
  <unicode hex="1294"/>
  <note>
uni1294
</note>
  <anchor x="291" y="714" name="top"/>
  <outline>
    <contour>
      <point x="75" y="0" type="line"/>
      <point x="188" y="0" type="line"/>
      <point x="421" y="528" type="line"/>
      <point x="305" y="528" type="line" smooth="yes"/>
      <point x="228" y="528"/>
      <point x="196" y="552"/>
      <point x="196" y="631" type="curve" smooth="yes"/>
      <point x="196" y="714" type="line"/>
      <point x="54" y="714" type="line"/>
      <point x="54" y="604" type="line" smooth="yes"/>
      <point x="54" y="495"/>
      <point x="106" y="432"/>
      <point x="225" y="417" type="curve"/>
      <point x="75" y="79" type="line"/>
    </contour>
    <contour>
      <point x="220" y="99" type="line"/>
      <point x="270" y="215" type="line"/>
      <point x="316" y="215" type="line" smooth="yes"/>
      <point x="364" y="215"/>
      <point x="383" y="194"/>
      <point x="383" y="163" type="curve" smooth="yes"/>
      <point x="383" y="124"/>
      <point x="360" y="99"/>
      <point x="286" y="99" type="curve" smooth="yes"/>
    </contour>
    <contour>
      <point x="117" y="0" type="line"/>
      <point x="282" y="0" type="line" smooth="yes"/>
      <point x="451" y="0"/>
      <point x="529" y="64"/>
      <point x="529" y="164" type="curve" smooth="yes"/>
      <point x="529" y="260"/>
      <point x="467" y="314"/>
      <point x="341" y="314" type="curve" smooth="yes"/>
      <point x="251" y="314" type="line"/>
    </contour>
  </outline>
</glyph>
<glyph name="ne.eth" format="2">
  <advance width="598"/>
  <unicode hex="1295"/>
  <note>
uni1295
</note>
  <anchor x="289" y="714" name="top"/>
  <outline>
    <contour>
      <point x="206" y="0" type="line"/>
      <point x="352" y="0" type="line"/>
      <point x="568" y="489" type="line"/>
      <point x="393" y="489" type="line"/>
      <point x="393" y="503" type="line" smooth="yes"/>
      <point x="393" y="650"/>
      <point x="329" y="714"/>
      <point x="146" y="714" type="curve" smooth="yes"/>
      <point x="49" y="714" type="line"/>
      <point x="10" y="539" type="line"/>
      <point x="38" y="539" type="line" smooth="yes"/>
      <point x="93" y="539"/>
      <point x="122" y="570"/>
      <point x="140" y="612" type="curve"/>
      <point x="144" y="612" type="line" smooth="yes"/>
      <point x="220" y="612"/>
      <point x="249" y="591"/>
      <point x="249" y="501" type="curve" smooth="yes"/>
      <point x="249" y="377" type="line"/>
      <point x="372" y="377" type="line"/>
    </contour>
  </outline>
</glyph>
<glyph name="no.eth" format="2">
  <advance width="688"/>
  <unicode hex="1296"/>
  <note>
uni1296
</note>
  <anchor x="364" y="714" name="top"/>
  <outline>
    <contour>
      <point x="264" y="0" type="line"/>
      <point x="412" y="0" type="line"/>
      <point x="412" y="355" type="line"/>
      <point x="208" y="355" type="line"/>
      <point x="212" y="497"/>
      <point x="240" y="576"/>
      <point x="305" y="607" type="curve"/>
      <point x="485" y="714" type="line"/>
      <point x="394" y="714" type="line" smooth="yes"/>
      <point x="201" y="714"/>
      <point x="60" y="620"/>
      <point x="60" y="307" type="curve" smooth="yes"/>
      <point x="60" y="240" type="line"/>
      <point x="264" y="240" type="line"/>
    </contour>
    <component base="ballbig" xOffset="281" yOffset="263"/>
  </outline>
</glyph>
<glyph name="nya.eth" format="2">
  <advance width="596"/>
  <unicode hex="1298"/>
  <note>
uni1298
</note>
  <anchor x="279" y="781" name="top"/>
  <outline>
    <contour>
      <point x="363" y="0" type="line"/>
      <point x="511" y="0" type="line"/>
      <point x="511" y="472" type="line"/>
      <point x="463" y="472" type="line" smooth="yes"/>
      <point x="386" y="472"/>
      <point x="354" y="496"/>
      <point x="354" y="575" type="curve" smooth="yes"/>
      <point x="354" y="658" type="line"/>
      <point x="212" y="658" type="line"/>
      <point x="212" y="548" type="line" smooth="yes"/>
      <point x="212" y="439"/>
      <point x="264" y="383"/>
      <point x="363" y="368" type="curve"/>
    </contour>
    <component base="bone" yOffset="-59"/>
  </outline>
</glyph>
<glyph name="nyaa.eth" format="2">
  <advance width="610"/>
  <unicode hex="129B"/>
  <note>
uni129B
</note>
  <anchor x="305" y="807" name="top"/>
  <outline>
    <contour>
      <point x="50" y="177" type="line"/>
      <point x="198" y="229" type="line"/>
      <point x="198" y="272" type="line" smooth="yes"/>
      <point x="198" y="408"/>
      <point x="257" y="477"/>
      <point x="375" y="477" type="curve" smooth="yes"/>
      <point x="390" y="477" type="line"/>
      <point x="413" y="420"/>
      <point x="451" y="404"/>
      <point x="493" y="404" type="curve" smooth="yes"/>
      <point x="520" y="404" type="line"/>
      <point x="481" y="579" type="line"/>
      <point x="374" y="579" type="line" smooth="yes"/>
      <point x="191" y="579"/>
      <point x="50" y="492"/>
      <point x="50" y="261" type="curve" smooth="yes"/>
    </contour>
    <contour>
      <point x="231" y="0" type="line"/>
      <point x="379" y="0" type="line"/>
      <point x="379" y="290" type="line"/>
      <point x="117" y="290" type="line"/>
      <point x="50" y="177" type="line"/>
      <point x="231" y="177" type="line"/>
    </contour>
    <contour>
      <point x="229" y="546" type="line"/>
      <point x="376" y="546" type="line"/>
      <point x="376" y="689" type="line"/>
      <point x="229" y="689" type="line"/>
    </contour>
    <component base="bonemiddle" yOffset="-33"/>
  </outline>
</glyph>
<glyph name="nyee.eth" format="2">
  <advance width="708"/>
  <unicode hex="129C"/>
  <note>
uni129C
</note>
  <anchor x="352" y="790" name="top"/>
  <outline>
    <contour>
      <point x="241" y="0" type="line"/>
      <point x="354" y="0" type="line"/>
      <point x="570" y="489" type="line"/>
      <point x="385" y="489" type="line"/>
      <point x="385" y="682" type="line"/>
      <point x="239" y="682" type="line"/>
      <point x="239" y="377" type="line"/>
      <point x="374" y="377" type="line"/>
      <point x="241" y="79" type="line"/>
    </contour>
    <contour>
      <point x="386" y="99" type="line"/>
      <point x="436" y="215" type="line"/>
      <point x="482" y="215" type="line" smooth="yes"/>
      <point x="530" y="215"/>
      <point x="549" y="194"/>
      <point x="549" y="163" type="curve" smooth="yes"/>
      <point x="549" y="124"/>
      <point x="526" y="99"/>
      <point x="452" y="99" type="curve" smooth="yes"/>
    </contour>
    <contour>
      <point x="283" y="0" type="line"/>
      <point x="448" y="0" type="line" smooth="yes"/>
      <point x="617" y="0"/>
      <point x="695" y="64"/>
      <point x="695" y="164" type="curve" smooth="yes"/>
      <point x="695" y="260"/>
      <point x="633" y="314"/>
      <point x="507" y="314" type="curve" smooth="yes"/>
      <point x="417" y="314" type="line"/>
    </contour>
    <component base="bonemiddle" yOffset="-50"/>
  </outline>
</glyph>
<glyph name="nye.eth" format="2">
  <advance width="618"/>
  <unicode hex="129D"/>
  <note>
uni129D
</note>
  <anchor x="299" y="787" name="top"/>
  <outline>
    <contour>
      <point x="273" y="0" type="line"/>
      <point x="419" y="0" type="line"/>
      <point x="588" y="383" type="line"/>
      <point x="413" y="383" type="line"/>
      <point x="413" y="388" type="line" smooth="yes"/>
      <point x="413" y="455"/>
      <point x="363" y="545"/>
      <point x="181" y="545" type="curve" smooth="yes"/>
      <point x="74" y="545" type="line"/>
      <point x="35" y="371" type="line"/>
      <point x="58" y="371" type="line" smooth="yes"/>
      <point x="115" y="371"/>
      <point x="141" y="394"/>
      <point x="165" y="444" type="curve"/>
      <point x="169" y="444" type="line" smooth="yes"/>
      <point x="228" y="444"/>
      <point x="267" y="423"/>
      <point x="267" y="340" type="curve" smooth="yes"/>
      <point x="267" y="271" type="line"/>
      <point x="392" y="271" type="line"/>
    </contour>
    <contour>
      <point x="189" y="479" type="line"/>
      <point x="337" y="479" type="line"/>
      <point x="337" y="670" type="line"/>
      <point x="189" y="670" type="line"/>
    </contour>
    <component base="footshort" xScale="-1" yScale="-1" xOffset="533" yOffset="714"/>
  </outline>
</glyph>
<glyph name="nyo.eth" format="2">
  <advance width="716"/>
  <unicode hex="129E"/>
  <note>
uni129E
</note>
  <anchor x="365" y="827" name="top"/>
  <outline>
    <contour>
      <point x="277" y="0" type="line"/>
      <point x="425" y="0" type="line"/>
      <point x="425" y="301" type="line"/>
      <point x="221" y="301" type="line"/>
      <point x="221" y="408"/>
      <point x="274" y="473"/>
      <point x="383" y="480" type="curve"/>
      <point x="529" y="568" type="line"/>
      <point x="407" y="568" type="line" smooth="yes"/>
      <point x="204" y="568"/>
      <point x="73" y="490"/>
      <point x="73" y="253" type="curve" smooth="yes"/>
      <point x="73" y="186" type="line"/>
      <point x="277" y="186" type="line"/>
    </contour>
    <contour>
      <point x="528" y="305" type="curve" smooth="yes"/>
      <point x="639" y="305"/>
      <point x="696" y="365"/>
      <point x="696" y="439" type="curve" smooth="yes"/>
      <point x="696" y="515"/>
      <point x="644" y="568"/>
      <point x="528" y="568" type="curve" smooth="yes"/>
      <point x="413" y="568"/>
      <point x="360" y="515"/>
      <point x="360" y="438" type="curve" smooth="yes"/>
      <point x="360" y="359"/>
      <point x="413" y="305"/>
    </contour>
    <contour>
      <point x="264" y="522" type="line"/>
      <point x="410" y="522" type="line"/>
      <point x="410" y="689" type="line"/>
      <point x="264" y="689" type="line"/>
    </contour>
    <contour>
      <point x="528" y="381" type="curve" smooth="yes"/>
      <point x="496" y="381"/>
      <point x="472" y="400"/>
      <point x="472" y="437" type="curve" smooth="yes"/>
      <point x="472" y="473"/>
      <point x="495" y="492"/>
      <point x="528" y="492" type="curve" smooth="yes"/>
      <point x="561" y="492"/>
      <point x="583" y="473"/>
      <point x="583" y="437" type="curve" smooth="yes"/>
      <point x="583" y="400"/>
      <point x="559" y="381"/>
    </contour>
    <component base="bonemiddle" xOffset="25" yOffset="-13"/>
  </outline>
</glyph>
<glyph name="aGlottal.eth" format="2">
  <advance width="603"/>
  <unicode hex="12A0"/>
  <note>
uni12A0
</note>
  <anchor x="302" y="714" name="top"/>
  <outline>
    <contour>
      <point x="40" y="0" type="line"/>
      <point x="188" y="0" type="line"/>
      <point x="421" y="528" type="line"/>
      <point x="305" y="528" type="line" smooth="yes"/>
      <point x="228" y="528"/>
      <point x="196" y="552"/>
      <point x="196" y="631" type="curve" smooth="yes"/>
      <point x="196" y="714" type="line"/>
      <point x="54" y="714" type="line"/>
      <point x="54" y="604" type="line" smooth="yes"/>
      <point x="54" y="495"/>
      <point x="106" y="432"/>
      <point x="225" y="417" type="curve"/>
    </contour>
    <contour>
      <point x="416" y="0" type="curve"/>
      <point x="565" y="0" type="line"/>
      <point x="561" y="237"/>
      <point x="481" y="340"/>
      <point x="340" y="390" type="curve"/>
      <point x="293" y="278" type="line"/>
      <point x="372" y="244"/>
      <point x="414" y="180"/>
    </contour>
  </outline>
</glyph>
<glyph name="aaGlottal.eth" format="2">
  <advance width="589"/>
  <unicode hex="12A3"/>
  <note>
uni12A3
</note>
  <anchor x="295" y="714" name="top"/>
  <outline>
    <contour>
      <point x="91" y="147" type="line"/>
      <point x="239" y="147" type="line"/>
      <point x="407" y="528" type="line"/>
      <point x="291" y="528" type="line" smooth="yes"/>
      <point x="214" y="528"/>
      <point x="182" y="552"/>
      <point x="182" y="631" type="curve" smooth="yes"/>
      <point x="182" y="714" type="line"/>
      <point x="40" y="714" type="line"/>
      <point x="40" y="604" type="line" smooth="yes"/>
      <point x="40" y="495"/>
      <point x="92" y="432"/>
      <point x="211" y="417" type="curve"/>
    </contour>
    <contour>
      <point x="402" y="0" type="curve"/>
      <point x="551" y="0" type="line"/>
      <point x="547" y="237"/>
      <point x="467" y="340"/>
      <point x="326" y="390" type="curve"/>
      <point x="279" y="278" type="line"/>
      <point x="358" y="244"/>
      <point x="400" y="180"/>
    </contour>
  </outline>
</glyph>
<glyph name="eeGlottal.eth" format="2">
  <advance width="819"/>
  <unicode hex="12A4"/>
  <note>
uni12A4
</note>
  <anchor x="423" y="714" name="top"/>
  <outline>
    <contour>
      <point x="469" y="0" type="line"/>
      <point x="559" y="0" type="line" smooth="yes"/>
      <point x="728" y="0"/>
      <point x="806" y="64"/>
      <point x="806" y="164" type="curve" smooth="yes"/>
      <point x="806" y="260"/>
      <point x="744" y="314"/>
      <point x="618" y="314" type="curve" smooth="yes"/>
      <point x="399" y="314" type="line"/>
    </contour>
    <contour>
      <point x="527" y="99" type="line"/>
      <point x="497" y="215" type="line"/>
      <point x="593" y="215" type="line" smooth="yes"/>
      <point x="641" y="215"/>
      <point x="660" y="194"/>
      <point x="660" y="163" type="curve" smooth="yes"/>
      <point x="660" y="124"/>
      <point x="637" y="99"/>
      <point x="563" y="99" type="curve" smooth="yes"/>
    </contour>
    <component base="aGlottal.eth"/>
  </outline>
</glyph>
<glyph name="eGlottal.eth" format="2">
  <advance width="650"/>
  <unicode hex="12A5"/>
  <note>
uni12A5
</note>
  <anchor x="326" y="714" name="top"/>
  <outline>
    <contour>
      <point x="90" y="0" type="line"/>
      <point x="238" y="0" type="line"/>
      <point x="357" y="271" type="line"/>
      <point x="423" y="238"/>
      <point x="463" y="177"/>
      <point x="463" y="0" type="curve"/>
      <point x="612" y="0" type="line"/>
      <point x="612" y="235"/>
      <point x="534" y="334"/>
      <point x="407" y="384" type="curve"/>
      <point x="459" y="499" type="line"/>
      <point x="332" y="499" type="line"/>
      <point x="373" y="596" type="line"/>
      <point x="274" y="596" type="line" smooth="yes"/>
      <point x="205" y="596"/>
      <point x="182" y="627"/>
      <point x="182" y="682" type="curve" smooth="yes"/>
      <point x="182" y="714" type="line"/>
      <point x="40" y="714" type="line"/>
      <point x="40" y="685" type="line" smooth="yes"/>
      <point x="40" y="573"/>
      <point x="93" y="516"/>
      <point x="187" y="502" type="curve"/>
      <point x="134" y="387" type="line"/>
      <point x="261" y="387" type="line"/>
    </contour>
  </outline>
</glyph>
<glyph name="oGlottal.eth" format="2">
  <advance width="589"/>
  <unicode hex="12A6"/>
  <note>
uni12A6
</note>
  <anchor x="295" y="714" name="top"/>
  <outline>
    <contour>
      <point x="40" y="0" type="line"/>
      <point x="188" y="0" type="line"/>
      <point x="421" y="528" type="line"/>
      <point x="305" y="528" type="line" smooth="yes"/>
      <point x="228" y="528"/>
      <point x="196" y="552"/>
      <point x="196" y="631" type="curve" smooth="yes"/>
      <point x="196" y="714" type="line"/>
      <point x="54" y="714" type="line"/>
      <point x="54" y="604" type="line" smooth="yes"/>
      <point x="54" y="495"/>
      <point x="106" y="432"/>
      <point x="225" y="417" type="curve"/>
    </contour>
    <contour>
      <point x="402" y="139" type="curve"/>
      <point x="551" y="139" type="line"/>
      <point x="523" y="280"/>
      <point x="450" y="351"/>
      <point x="340" y="390" type="curve"/>
      <point x="293" y="278" type="line"/>
      <point x="347" y="255"/>
      <point x="384" y="217"/>
    </contour>
  </outline>
</glyph>
<glyph name="waGlottal.eth" format="2">
  <advance width="736"/>
  <unicode hex="12A7"/>
  <note>
uni12A7
</note>
  <anchor x="354" y="781" name="top"/>
  <outline>
    <contour>
      <point x="176" y="0" type="line"/>
      <point x="324" y="0" type="line"/>
      <point x="443" y="272" type="line"/>
      <point x="517" y="231"/>
      <point x="547" y="169"/>
      <point x="549" y="0" type="curve"/>
      <point x="698" y="0" type="line"/>
      <point x="698" y="226"/>
      <point x="626" y="332"/>
      <point x="493" y="384" type="curve"/>
      <point x="534" y="474" type="line"/>
      <point x="358" y="474" type="line"/>
      <point x="358" y="673" type="line"/>
      <point x="210" y="673" type="line"/>
      <point x="210" y="362" type="line"/>
      <point x="336" y="362" type="line"/>
    </contour>
    <component base="bone" yOffset="-59"/>
  </outline>
</glyph>
<glyph name="ka.eth" format="2">
  <advance width="676"/>
  <unicode hex="12A8"/>
  <note>
uni12A8
</note>
  <anchor x="315" y="760" name="top"/>
  <outline>
    <contour>
      <point x="148" y="476" type="curve"/>
      <point x="229" y="563" type="line"/>
      <point x="202" y="580"/>
      <point x="187" y="611"/>
      <point x="187" y="661" type="curve" smooth="yes"/>
      <point x="187" y="760" type="line"/>
      <point x="40" y="760" type="line"/>
      <point x="40" y="661" type="line" smooth="yes"/>
      <point x="40" y="550"/>
      <point x="85" y="502"/>
    </contour>
    <component base="shortnarch" xOffset="27"/>
  </outline>
</glyph>
<glyph name="kaa.eth" format="2">
  <advance width="664"/>
  <unicode hex="12AB"/>
  <note>
uni12AB
</note>
  <anchor x="309" y="760" name="top"/>
  <outline>
    <contour>
      <point x="148" y="476" type="curve"/>
      <point x="229" y="563" type="line"/>
      <point x="202" y="580"/>
      <point x="187" y="611"/>
      <point x="187" y="661" type="curve" smooth="yes"/>
      <point x="187" y="760" type="line"/>
      <point x="40" y="760" type="line"/>
      <point x="40" y="661" type="line" smooth="yes"/>
      <point x="40" y="550"/>
      <point x="85" y="502"/>
    </contour>
    <component base="baashort" xOffset="28"/>
  </outline>
</glyph>
<glyph name="ke.eth" format="2">
  <advance width="671"/>
  <unicode hex="12AD"/>
  <note>
uni12AD
</note>
  <anchor x="313" y="760" name="top"/>
  <outline>
    <contour>
      <point x="438" y="0" type="line"/>
      <point x="586" y="0" type="line"/>
      <point x="586" y="364" type="line" smooth="yes"/>
      <point x="586" y="514"/>
      <point x="513" y="602"/>
      <point x="349" y="602" type="curve" smooth="yes"/>
      <point x="175" y="602"/>
      <point x="107" y="505"/>
      <point x="107" y="366" type="curve" smooth="yes"/>
      <point x="107" y="327" type="line"/>
      <point x="255" y="327" type="line"/>
      <point x="255" y="358" type="line" smooth="yes"/>
      <point x="255" y="429"/>
      <point x="276" y="479"/>
      <point x="345" y="479" type="curve" smooth="yes"/>
      <point x="413" y="479"/>
      <point x="438" y="436"/>
      <point x="438" y="359" type="curve" smooth="yes"/>
    </contour>
    <contour>
      <point x="107" y="0" type="line"/>
      <point x="255" y="0" type="line"/>
      <point x="255" y="144" type="line" smooth="yes"/>
      <point x="255" y="205"/>
      <point x="275" y="229"/>
      <point x="333" y="229" type="curve"/>
      <point x="333" y="348" type="line"/>
      <point x="165" y="348"/>
      <point x="107" y="271"/>
      <point x="107" y="150" type="curve" smooth="yes"/>
    </contour>
    <contour>
      <point x="148" y="476" type="curve"/>
      <point x="229" y="563" type="line"/>
      <point x="202" y="580"/>
      <point x="187" y="611"/>
      <point x="187" y="661" type="curve" smooth="yes"/>
      <point x="187" y="760" type="line"/>
      <point x="40" y="760" type="line"/>
      <point x="40" y="661" type="line" smooth="yes"/>
      <point x="40" y="550"/>
      <point x="85" y="502"/>
    </contour>
  </outline>
</glyph>
<glyph name="ko.eth" format="2">
  <advance width="670"/>
  <unicode hex="12AE"/>
  <note>
uni12AE
</note>
  <anchor x="316" y="760" name="top"/>
  <outline>
    <contour>
      <point x="148" y="476" type="curve"/>
      <point x="229" y="563" type="line"/>
      <point x="202" y="580"/>
      <point x="187" y="611"/>
      <point x="187" y="661" type="curve" smooth="yes"/>
      <point x="187" y="760" type="line"/>
      <point x="40" y="760" type="line"/>
      <point x="40" y="661" type="line" smooth="yes"/>
      <point x="40" y="550"/>
      <point x="85" y="502"/>
    </contour>
    <component base="baashort" xScale="-1" xOffset="665"/>
  </outline>
</glyph>
<glyph name="kwi.eth" format="2">
  <advance width="914"/>
  <unicode hex="12B2"/>
  <note>
uni12B2
</note>
  <anchor x="472" y="760" name="top"/>
  <outline>
    <contour>
      <point x="876" y="126" type="curve" smooth="yes"/>
      <point x="904" y="126" type="line"/>
      <point x="865" y="301" type="line"/>
      <point x="654" y="301" type="line"/>
      <point x="654" y="199" type="line"/>
      <point x="774" y="199" type="line"/>
      <point x="799" y="140"/>
      <point x="837" y="126"/>
    </contour>
    <contour>
      <point x="531" y="282" type="line"/>
      <point x="710" y="282" type="line"/>
      <point x="710" y="384" type="line"/>
      <point x="531" y="384" type="line"/>
    </contour>
    <contour>
      <point x="654" y="199" type="line"/>
      <point x="773" y="199" type="line"/>
      <point x="773" y="471" type="line"/>
      <point x="654" y="471" type="line"/>
    </contour>
    <component base="ka.eth"/>
  </outline>
</glyph>
<glyph name="kwaa.eth" format="2">
  <advance width="731"/>
  <unicode hex="12B3"/>
  <note>
uni12B3
</note>
  <anchor x="370" y="760" name="top"/>
  <outline>
    <contour>
      <point x="431" y="141" type="line"/>
      <point x="579" y="141" type="line"/>
      <point x="579" y="364" type="line" smooth="yes"/>
      <point x="579" y="514"/>
      <point x="506" y="602"/>
      <point x="342" y="602" type="curve" smooth="yes"/>
      <point x="168" y="602"/>
      <point x="100" y="505"/>
      <point x="100" y="366" type="curve" smooth="yes"/>
      <point x="100" y="295" type="line"/>
      <point x="248" y="295" type="line"/>
      <point x="248" y="358" type="line" smooth="yes"/>
      <point x="248" y="429"/>
      <point x="269" y="479"/>
      <point x="338" y="479" type="curve" smooth="yes"/>
      <point x="406" y="479"/>
      <point x="431" y="436"/>
      <point x="431" y="359" type="curve" smooth="yes"/>
    </contour>
    <contour>
      <point x="334" y="105" type="line"/>
      <point x="647" y="105" type="line"/>
      <point x="647" y="207" type="line"/>
      <point x="334" y="207" type="line"/>
    </contour>
    <contour>
      <point x="148" y="476" type="curve"/>
      <point x="229" y="563" type="line"/>
      <point x="202" y="580"/>
      <point x="187" y="611"/>
      <point x="187" y="661" type="curve" smooth="yes"/>
      <point x="187" y="760" type="line"/>
      <point x="40" y="760" type="line"/>
      <point x="40" y="661" type="line" smooth="yes"/>
      <point x="40" y="550"/>
      <point x="85" y="502"/>
    </contour>
    <contour>
      <point x="561" y="0" type="line"/>
      <point x="701" y="0" type="line"/>
      <point x="701" y="207" type="line"/>
      <point x="561" y="207" type="line"/>
    </contour>
    <component base="leftsingleflag" xOffset="110" yOffset="-209"/>
  </outline>
</glyph>
<glyph name="kwee.eth" format="2">
  <advance width="851"/>
  <unicode hex="12B4"/>
  <note>
uni12B4
</note>
  <anchor x="439" y="760" name="top"/>
  <outline>
    <contour>
      <point x="366" y="0" type="line"/>
      <point x="478" y="0" type="line"/>
      <point x="478" y="102" type="line"/>
      <point x="366" y="102" type="line"/>
    </contour>
    <component base="kaa.eth"/>
    <component base="baselinebowl" xOffset="401"/>
    <component base="leftsingleflag" xOffset="129" yOffset="-314"/>
  </outline>
</glyph>
<glyph name="kwe.eth" format="2">
  <advance width="918"/>
  <unicode hex="12B5"/>
  <note>
uni12B5
</note>
  <anchor x="474" y="760" name="top"/>
  <outline>
    <contour>
      <point x="653" y="326" type="line"/>
      <point x="767" y="326" type="line"/>
      <point x="767" y="589" type="line"/>
      <point x="653" y="589" type="line"/>
    </contour>
    <contour>
      <point x="525" y="326" type="line"/>
      <point x="704" y="326" type="line"/>
      <point x="704" y="428" type="line"/>
      <point x="525" y="428" type="line"/>
    </contour>
    <component base="ka.eth"/>
    <component base="rightsingleflag" xOffset="638" yOffset="12"/>
  </outline>
</glyph>
<glyph name="kxa.eth" format="2">
  <advance width="846"/>
  <unicode hex="12B8"/>
  <note>
uni12B8
</note>
  <anchor x="385" y="840" name="top"/>
  <outline>
    <contour>
      <point x="282" y="0" type="line"/>
      <point x="430" y="0" type="line"/>
      <point x="430" y="313" type="line" smooth="yes"/>
      <point x="430" y="384"/>
      <point x="451" y="434"/>
      <point x="523" y="434" type="curve" smooth="yes"/>
      <point x="588" y="434"/>
      <point x="613" y="391"/>
      <point x="613" y="314" type="curve" smooth="yes"/>
      <point x="613" y="0" type="line"/>
      <point x="761" y="0" type="line"/>
      <point x="761" y="319" type="line" smooth="yes"/>
      <point x="761" y="469"/>
      <point x="688" y="557"/>
      <point x="524" y="557" type="curve" smooth="yes"/>
      <point x="350" y="557"/>
      <point x="282" y="460"/>
      <point x="282" y="321" type="curve" smooth="yes"/>
    </contour>
    <contour>
      <point x="318" y="431" type="curve"/>
      <point x="399" y="518" type="line"/>
      <point x="372" y="535"/>
      <point x="357" y="566"/>
      <point x="357" y="616" type="curve" smooth="yes"/>
      <point x="357" y="715" type="line"/>
      <point x="210" y="715" type="line"/>
      <point x="210" y="616" type="line" smooth="yes"/>
      <point x="210" y="505"/>
      <point x="255" y="457"/>
    </contour>
    <component base="bone"/>
  </outline>
</glyph>
<glyph name="kxaa.eth" format="2">
  <advance width="844"/>
  <unicode hex="12BB"/>
  <note>
uni12BB
</note>
  <anchor x="384" y="840" name="top"/>
  <outline>
    <contour>
      <point x="611" y="0" type="line"/>
      <point x="759" y="0" type="line"/>
      <point x="759" y="319" type="line" smooth="yes"/>
      <point x="759" y="469"/>
      <point x="686" y="557"/>
      <point x="522" y="557" type="curve" smooth="yes"/>
      <point x="348" y="557"/>
      <point x="280" y="460"/>
      <point x="280" y="321" type="curve" smooth="yes"/>
      <point x="280" y="228" type="line"/>
      <point x="428" y="228" type="line"/>
      <point x="428" y="313" type="line" smooth="yes"/>
      <point x="428" y="384"/>
      <point x="449" y="434"/>
      <point x="521" y="434" type="curve" smooth="yes"/>
      <point x="586" y="434"/>
      <point x="611" y="391"/>
      <point x="611" y="314" type="curve" smooth="yes"/>
    </contour>
    <contour>
      <point x="316" y="431" type="curve"/>
      <point x="397" y="518" type="line"/>
      <point x="370" y="535"/>
      <point x="355" y="566"/>
      <point x="355" y="616" type="curve" smooth="yes"/>
      <point x="355" y="715" type="line"/>
      <point x="208" y="715" type="line"/>
      <point x="208" y="616" type="line" smooth="yes"/>
      <point x="208" y="505"/>
      <point x="253" y="457"/>
    </contour>
    <component base="bone"/>
  </outline>
</glyph>
<glyph name="kxe.eth" format="2">
  <advance width="838"/>
  <unicode hex="12BD"/>
  <note>
uni12BD
</note>
  <anchor x="381" y="840" name="top"/>
  <outline>
    <contour>
      <point x="605" y="0" type="line"/>
      <point x="753" y="0" type="line"/>
      <point x="753" y="314" type="line" smooth="yes"/>
      <point x="753" y="464"/>
      <point x="680" y="552"/>
      <point x="516" y="552" type="curve" smooth="yes"/>
      <point x="342" y="552"/>
      <point x="274" y="455"/>
      <point x="274" y="316" type="curve" smooth="yes"/>
      <point x="274" y="277" type="line"/>
      <point x="422" y="277" type="line"/>
      <point x="422" y="308" type="line" smooth="yes"/>
      <point x="422" y="379"/>
      <point x="443" y="429"/>
      <point x="512" y="429" type="curve" smooth="yes"/>
      <point x="580" y="429"/>
      <point x="605" y="386"/>
      <point x="605" y="309" type="curve" smooth="yes"/>
    </contour>
    <contour>
      <point x="274" y="0" type="line"/>
      <point x="422" y="0" type="line"/>
      <point x="422" y="94" type="line" smooth="yes"/>
      <point x="422" y="155"/>
      <point x="442" y="179"/>
      <point x="500" y="179" type="curve"/>
      <point x="500" y="298" type="line"/>
      <point x="332" y="298"/>
      <point x="274" y="221"/>
      <point x="274" y="100" type="curve" smooth="yes"/>
    </contour>
    <contour>
      <point x="315" y="426" type="curve"/>
      <point x="396" y="513" type="line"/>
      <point x="369" y="530"/>
      <point x="354" y="561"/>
      <point x="354" y="611" type="curve" smooth="yes"/>
      <point x="354" y="710" type="line"/>
      <point x="207" y="710" type="line"/>
      <point x="207" y="611" type="line" smooth="yes"/>
      <point x="207" y="500"/>
      <point x="252" y="452"/>
    </contour>
    <component base="bone"/>
  </outline>
</glyph>
<glyph name="kxo.eth" format="2">
  <advance width="834"/>
  <unicode hex="12BE"/>
  <note>
uni12BE
</note>
  <anchor x="386" y="840" name="top"/>
  <outline>
    <contour>
      <point x="283" y="0" type="line"/>
      <point x="431" y="0" type="line"/>
      <point x="431" y="309" type="line" smooth="yes"/>
      <point x="431" y="386"/>
      <point x="456" y="429"/>
      <point x="524" y="429" type="curve" smooth="yes"/>
      <point x="593" y="429"/>
      <point x="614" y="379"/>
      <point x="614" y="308" type="curve" smooth="yes"/>
      <point x="614" y="187" type="line"/>
      <point x="762" y="187" type="line"/>
      <point x="762" y="316" type="line" smooth="yes"/>
      <point x="762" y="455"/>
      <point x="694" y="552"/>
      <point x="520" y="552" type="curve" smooth="yes"/>
      <point x="356" y="552"/>
      <point x="283" y="464"/>
      <point x="283" y="314" type="curve" smooth="yes"/>
    </contour>
    <contour>
      <point x="317" y="426" type="curve"/>
      <point x="398" y="513" type="line"/>
      <point x="371" y="530"/>
      <point x="356" y="561"/>
      <point x="356" y="611" type="curve" smooth="yes"/>
      <point x="356" y="760" type="line"/>
      <point x="209" y="760" type="line"/>
      <point x="209" y="611" type="line" smooth="yes"/>
      <point x="209" y="500"/>
      <point x="254" y="452"/>
    </contour>
    <component base="bone"/>
  </outline>
</glyph>
<glyph name="kxwi.eth" format="2">
  <advance width="1108"/>
  <unicode hex="12C2"/>
  <note>
uni12C2
</note>
  <anchor x="554" y="840" name="top"/>
  <outline>
    <contour>
      <point x="1070" y="106" type="curve" smooth="yes"/>
      <point x="1098" y="106" type="line"/>
      <point x="1059" y="281" type="line"/>
      <point x="848" y="281" type="line"/>
      <point x="848" y="179" type="line"/>
      <point x="968" y="179" type="line"/>
      <point x="993" y="120"/>
      <point x="1031" y="106"/>
    </contour>
    <contour>
      <point x="725" y="262" type="line"/>
      <point x="904" y="262" type="line"/>
      <point x="904" y="364" type="line"/>
      <point x="725" y="364" type="line"/>
    </contour>
    <contour>
      <point x="848" y="179" type="line"/>
      <point x="967" y="179" type="line"/>
      <point x="967" y="451" type="line"/>
      <point x="848" y="451" type="line"/>
    </contour>
    <component base="kxa.eth"/>
  </outline>
</glyph>
<glyph name="kxwaa.eth" format="2">
  <advance width="900"/>
  <unicode hex="12C3"/>
  <note>
uni12C3
</note>
  <anchor x="450" y="846" name="top"/>
  <outline>
    <contour>
      <point x="599" y="0" type="line"/>
      <point x="747" y="0" type="line"/>
      <point x="747" y="319" type="line" smooth="yes"/>
      <point x="747" y="469"/>
      <point x="674" y="557"/>
      <point x="510" y="557" type="curve" smooth="yes"/>
      <point x="336" y="557"/>
      <point x="268" y="460"/>
      <point x="268" y="321" type="curve" smooth="yes"/>
      <point x="268" y="228" type="line"/>
      <point x="416" y="228" type="line"/>
      <point x="416" y="313" type="line" smooth="yes"/>
      <point x="416" y="384"/>
      <point x="437" y="434"/>
      <point x="509" y="434" type="curve" smooth="yes"/>
      <point x="574" y="434"/>
      <point x="599" y="391"/>
      <point x="599" y="314" type="curve" smooth="yes"/>
    </contour>
    <contour>
      <point x="304" y="431" type="curve"/>
      <point x="385" y="518" type="line"/>
      <point x="358" y="535"/>
      <point x="343" y="566"/>
      <point x="343" y="616" type="curve" smooth="yes"/>
      <point x="343" y="715" type="line"/>
      <point x="196" y="715" type="line"/>
      <point x="196" y="616" type="line" smooth="yes"/>
      <point x="196" y="505"/>
      <point x="241" y="457"/>
    </contour>
    <component base="footright" xOffset="342"/>
    <component base="footshort" xScale="-1" yScale="-1" xOffset="533" yOffset="773"/>
  </outline>
</glyph>
<glyph name="kxwee.eth" format="2">
  <advance width="1031"/>
  <unicode hex="12C4"/>
  <note>
uni12C4
</note>
  <anchor x="514" y="840" name="top"/>
  <outline>
    <contour>
      <point x="565" y="0" type="line"/>
      <point x="677" y="0" type="line"/>
      <point x="677" y="102" type="line"/>
      <point x="565" y="102" type="line"/>
    </contour>
    <component base="baselinebowl" xOffset="581"/>
    <component base="leftsingleflag" xOffset="329" yOffset="-314"/>
    <component base="kxaa.eth"/>
  </outline>
</glyph>
<glyph name="kxwe.eth" format="2">
  <advance width="1080"/>
  <unicode hex="12C5"/>
  <note>
uni12C5
</note>
  <anchor x="540" y="840" name="top"/>
  <outline>
    <contour>
      <point x="805" y="306" type="line"/>
      <point x="919" y="306" type="line"/>
      <point x="919" y="563" type="line"/>
      <point x="805" y="563" type="line"/>
    </contour>
    <contour>
      <point x="687" y="306" type="line"/>
      <point x="856" y="306" type="line"/>
      <point x="856" y="408" type="line"/>
      <point x="687" y="408" type="line"/>
    </contour>
    <component base="kxa.eth"/>
    <component base="rightsingleflag" xOffset="800" yOffset="-8"/>
  </outline>
</glyph>
<glyph name="wa.eth" format="2">
  <advance width="807"/>
  <unicode hex="12C8"/>
  <note>
uni12C8
</note>
  <anchor x="403" y="714" name="top"/>
  <outline>
    <contour>
      <point x="280" y="-10" type="curve" smooth="yes"/>
      <point x="366" y="-10"/>
      <point x="423" y="30"/>
      <point x="459" y="73" type="curve"/>
      <point x="539" y="73" type="line" smooth="yes"/>
      <point x="675" y="73"/>
      <point x="754" y="188"/>
      <point x="754" y="404" type="curve" smooth="yes"/>
      <point x="754" y="608"/>
      <point x="679" y="714"/>
      <point x="529" y="714" type="curve" smooth="yes"/>
      <point x="330" y="714" type="line" smooth="yes"/>
      <point x="149" y="714"/>
      <point x="53" y="566"/>
      <point x="53" y="321" type="curve" smooth="yes"/>
      <point x="53" y="110"/>
      <point x="115" y="-10"/>
    </contour>
    <contour>
      <point x="284" y="102" type="curve" smooth="yes"/>
      <point x="227" y="102"/>
      <point x="199" y="172"/>
      <point x="199" y="328" type="curve" smooth="yes"/>
      <point x="199" y="480"/>
      <point x="241" y="604"/>
      <point x="337" y="604" type="curve" smooth="yes"/>
      <point x="347" y="604" type="line"/>
      <point x="347" y="133" type="line"/>
      <point x="334" y="116"/>
      <point x="313" y="102"/>
    </contour>
    <contour>
      <point x="495" y="184" type="line"/>
      <point x="495" y="604" type="line"/>
      <point x="521" y="604" type="line" smooth="yes"/>
      <point x="598" y="604"/>
      <point x="609" y="485"/>
      <point x="609" y="401" type="curve" smooth="yes"/>
      <point x="609" y="301"/>
      <point x="596" y="184"/>
      <point x="518" y="184" type="curve" smooth="yes"/>
    </contour>
  </outline>
</glyph>
<glyph name="wu.eth" format="2">
  <advance width="936"/>
  <unicode hex="12C9"/>
  <note>
uni12C9
</note>
  <anchor x="489" y="714" name="top"/>
  <outline>
    <contour>
      <point x="473" y="73" type="line"/>
      <point x="771" y="73" type="line"/>
      <point x="771" y="175" type="line"/>
      <point x="473" y="175" type="line"/>
    </contour>
    <component base="wa.eth"/>
    <component base="rightdoubleflag" xOffset="656" yOffset="73"/>
  </outline>
</glyph>
<glyph name="waa.eth" format="2">
  <advance width="756"/>
  <unicode hex="12CB"/>
  <note>
uni12CB
</note>
  <anchor x="379" y="714" name="top"/>
  <outline>
    <contour>
      <point x="227" y="256" type="curve" smooth="yes"/>
      <point x="318" y="256"/>
      <point x="370" y="293"/>
      <point x="414" y="345" type="curve"/>
      <point x="540" y="345" type="line" smooth="yes"/>
      <point x="672" y="345"/>
      <point x="731" y="432"/>
      <point x="731" y="538" type="curve" smooth="yes"/>
      <point x="731" y="640"/>
      <point x="662" y="714"/>
      <point x="515" y="714" type="curve" smooth="yes"/>
      <point x="293" y="714" type="line" smooth="yes"/>
      <point x="132" y="714"/>
      <point x="28" y="613"/>
      <point x="28" y="460" type="curve" smooth="yes"/>
      <point x="28" y="327"/>
      <point x="107" y="256"/>
    </contour>
    <contour>
      <point x="322" y="0" type="line"/>
      <point x="470" y="0" type="line"/>
      <point x="470" y="374" type="line"/>
      <point x="322" y="374" type="line"/>
    </contour>
    <contour>
      <point x="252" y="375" type="curve" smooth="yes"/>
      <point x="207" y="375"/>
      <point x="175" y="402"/>
      <point x="175" y="468" type="curve" smooth="yes"/>
      <point x="175" y="558"/>
      <point x="224" y="604"/>
      <point x="300" y="604" type="curve" smooth="yes"/>
      <point x="323" y="604" type="line"/>
      <point x="323" y="398" type="line"/>
      <point x="302" y="384"/>
      <point x="281" y="375"/>
    </contour>
    <contour>
      <point x="471" y="456" type="line"/>
      <point x="471" y="604" type="line"/>
      <point x="507" y="604" type="line" smooth="yes"/>
      <point x="574" y="604"/>
      <point x="585" y="562"/>
      <point x="585" y="533" type="curve" smooth="yes"/>
      <point x="585" y="497"/>
      <point x="572" y="456"/>
      <point x="507" y="456" type="curve" smooth="yes"/>
    </contour>
  </outline>
</glyph>
<glyph name="aPhr.eth" format="2">
  <advance width="587"/>
  <unicode hex="12D0"/>
  <note>
uni12D0
</note>
  <anchor x="293" y="724" name="top"/>
  <outline>
    <contour>
      <point x="291" y="-10" type="curve" smooth="yes"/>
      <point x="466" y="-10"/>
      <point x="534" y="104"/>
      <point x="534" y="253" type="curve" smooth="yes"/>
      <point x="534" y="461" type="line" smooth="yes"/>
      <point x="534" y="609"/>
      <point x="466" y="724"/>
      <point x="291" y="724" type="curve" smooth="yes"/>
      <point x="126" y="724"/>
      <point x="53" y="618"/>
      <point x="53" y="459" type="curve" smooth="yes"/>
      <point x="53" y="255" type="line" smooth="yes"/>
      <point x="53" y="95"/>
      <point x="126" y="-10"/>
    </contour>
    <contour>
      <point x="295" y="113" type="curve" smooth="yes"/>
      <point x="226" y="113"/>
      <point x="201" y="163"/>
      <point x="201" y="250" type="curve" smooth="yes"/>
      <point x="201" y="463" type="line" smooth="yes"/>
      <point x="201" y="550"/>
      <point x="226" y="600"/>
      <point x="295" y="600" type="curve" smooth="yes"/>
      <point x="366" y="600"/>
      <point x="386" y="544"/>
      <point x="386" y="462" type="curve" smooth="yes"/>
      <point x="386" y="251" type="line" smooth="yes"/>
      <point x="386" y="170"/>
      <point x="366" y="113"/>
    </contour>
  </outline>
</glyph>
<glyph name="iPhr.eth" format="2">
  <advance width="704"/>
  <unicode hex="12D2"/>
  <note>
uni12D2
</note>
  <anchor x="361" y="725" name="top"/>
  <outline>
    <contour>
      <point x="315" y="0" type="line"/>
      <point x="433" y="0" type="line"/>
      <point x="588" y="380" type="line"/>
      <point x="460" y="380" type="line"/>
      <point x="465" y="396"/>
      <point x="467" y="420"/>
      <point x="467" y="450" type="curve" smooth="yes"/>
      <point x="467" y="530" type="line" smooth="yes"/>
      <point x="467" y="663"/>
      <point x="388" y="725"/>
      <point x="246" y="725" type="curve" smooth="yes"/>
      <point x="103" y="725"/>
      <point x="28" y="663"/>
      <point x="28" y="530" type="curve" smooth="yes"/>
      <point x="28" y="451" type="line" smooth="yes"/>
      <point x="28" y="318"/>
      <point x="107" y="255"/>
      <point x="254" y="255" type="curve" smooth="yes"/>
      <point x="311" y="255"/>
      <point x="359" y="267"/>
      <point x="396" y="290" type="curve"/>
      <point x="406" y="290" type="line"/>
      <point x="315" y="80" type="line"/>
    </contour>
    <contour>
      <point x="416" y="0" type="line"/>
      <point x="510" y="0" type="line"/>
      <point x="510" y="102" type="line"/>
      <point x="416" y="102" type="line"/>
    </contour>
    <contour>
      <point x="248" y="366" type="curve" smooth="yes"/>
      <point x="193" y="366"/>
      <point x="170" y="398"/>
      <point x="170" y="466" type="curve" smooth="yes"/>
      <point x="170" y="519" type="line" smooth="yes"/>
      <point x="170" y="585"/>
      <point x="194" y="614"/>
      <point x="247" y="614" type="curve" smooth="yes"/>
      <point x="303" y="614"/>
      <point x="325" y="585"/>
      <point x="325" y="519" type="curve" smooth="yes"/>
      <point x="325" y="466" type="line" smooth="yes"/>
      <point x="325" y="398"/>
      <point x="305" y="366"/>
    </contour>
    <component base="rightdoubleflag" xOffset="424"/>
  </outline>
</glyph>
<glyph name="aaPhr.eth" format="2">
  <advance width="608"/>
  <unicode hex="12D3"/>
  <note>
uni12D3
</note>
  <anchor x="308" y="725" name="top"/>
  <outline>
    <contour>
      <point x="280" y="0" type="line"/>
      <point x="433" y="0" type="line"/>
      <point x="588" y="380" type="line"/>
      <point x="460" y="380" type="line"/>
      <point x="465" y="396"/>
      <point x="467" y="420"/>
      <point x="467" y="450" type="curve" smooth="yes"/>
      <point x="467" y="530" type="line" smooth="yes"/>
      <point x="467" y="663"/>
      <point x="388" y="725"/>
      <point x="246" y="725" type="curve" smooth="yes"/>
      <point x="103" y="725"/>
      <point x="28" y="663"/>
      <point x="28" y="530" type="curve" smooth="yes"/>
      <point x="28" y="451" type="line" smooth="yes"/>
      <point x="28" y="318"/>
      <point x="107" y="255"/>
      <point x="254" y="255" type="curve" smooth="yes"/>
      <point x="311" y="255"/>
      <point x="359" y="267"/>
      <point x="396" y="290" type="curve"/>
      <point x="406" y="290" type="line"/>
    </contour>
    <contour>
      <point x="248" y="366" type="curve" smooth="yes"/>
      <point x="193" y="366"/>
      <point x="170" y="398"/>
      <point x="170" y="466" type="curve" smooth="yes"/>
      <point x="170" y="519" type="line" smooth="yes"/>
      <point x="170" y="585"/>
      <point x="194" y="614"/>
      <point x="247" y="614" type="curve" smooth="yes"/>
      <point x="303" y="614"/>
      <point x="325" y="585"/>
      <point x="325" y="519" type="curve" smooth="yes"/>
      <point x="325" y="466" type="line" smooth="yes"/>
      <point x="325" y="398"/>
      <point x="305" y="366"/>
    </contour>
  </outline>
</glyph>
<glyph name="eePhr.eth" format="2">
  <advance width="779"/>
  <unicode hex="12D4"/>
  <note>
uni12D4
</note>
  <anchor x="397" y="725" name="top"/>
  <outline>
    <contour>
      <point x="315" y="0" type="line"/>
      <point x="433" y="0" type="line"/>
      <point x="588" y="380" type="line"/>
      <point x="460" y="380" type="line"/>
      <point x="465" y="396"/>
      <point x="467" y="420"/>
      <point x="467" y="450" type="curve" smooth="yes"/>
      <point x="467" y="530" type="line" smooth="yes"/>
      <point x="467" y="663"/>
      <point x="388" y="725"/>
      <point x="246" y="725" type="curve" smooth="yes"/>
      <point x="103" y="725"/>
      <point x="28" y="663"/>
      <point x="28" y="530" type="curve" smooth="yes"/>
      <point x="28" y="451" type="line" smooth="yes"/>
      <point x="28" y="318"/>
      <point x="107" y="255"/>
      <point x="244" y="255" type="curve" smooth="yes"/>
      <point x="311" y="255"/>
      <point x="359" y="267"/>
      <point x="396" y="290" type="curve"/>
      <point x="406" y="290" type="line"/>
      <point x="315" y="80" type="line"/>
    </contour>
    <contour>
      <point x="458" y="99" type="line"/>
      <point x="507" y="215" type="line"/>
      <point x="553" y="215" type="line" smooth="yes"/>
      <point x="601" y="215"/>
      <point x="620" y="194"/>
      <point x="620" y="163" type="curve" smooth="yes"/>
      <point x="620" y="124"/>
      <point x="597" y="99"/>
      <point x="523" y="99" type="curve" smooth="yes"/>
    </contour>
    <contour>
      <point x="350" y="0" type="line"/>
      <point x="519" y="0" type="line" smooth="yes"/>
      <point x="688" y="0"/>
      <point x="766" y="64"/>
      <point x="766" y="164" type="curve" smooth="yes"/>
      <point x="766" y="260"/>
      <point x="704" y="314"/>
      <point x="578" y="314" type="curve" smooth="yes"/>
      <point x="483" y="314" type="line"/>
    </contour>
    <contour>
      <point x="248" y="366" type="curve" smooth="yes"/>
      <point x="193" y="366"/>
      <point x="170" y="398"/>
      <point x="170" y="466" type="curve" smooth="yes"/>
      <point x="170" y="519" type="line" smooth="yes"/>
      <point x="170" y="585"/>
      <point x="194" y="614"/>
      <point x="247" y="614" type="curve" smooth="yes"/>
      <point x="303" y="614"/>
      <point x="325" y="585"/>
      <point x="325" y="519" type="curve" smooth="yes"/>
      <point x="325" y="466" type="line" smooth="yes"/>
      <point x="325" y="398"/>
      <point x="305" y="366"/>
    </contour>
  </outline>
</glyph>
<glyph name="ePhr.eth" format="2">
  <advance width="587"/>
  <unicode hex="12D5"/>
  <note>
uni12D5
</note>
  <anchor x="293" y="760" name="top"/>
  <outline>
    <contour>
      <point x="291" y="-10" type="curve" smooth="yes"/>
      <point x="466" y="-10"/>
      <point x="534" y="104"/>
      <point x="534" y="253" type="curve" smooth="yes"/>
      <point x="534" y="373" type="line" smooth="yes"/>
      <point x="534" y="521"/>
      <point x="466" y="636"/>
      <point x="291" y="636" type="curve" smooth="yes"/>
      <point x="126" y="636"/>
      <point x="53" y="530"/>
      <point x="53" y="371" type="curve" smooth="yes"/>
      <point x="53" y="255" type="line" smooth="yes"/>
      <point x="53" y="95"/>
      <point x="126" y="-10"/>
    </contour>
    <contour>
      <point x="295" y="113" type="curve" smooth="yes"/>
      <point x="226" y="113"/>
      <point x="201" y="163"/>
      <point x="201" y="250" type="curve" smooth="yes"/>
      <point x="201" y="375" type="line" smooth="yes"/>
      <point x="201" y="462"/>
      <point x="226" y="512"/>
      <point x="295" y="512" type="curve" smooth="yes"/>
      <point x="366" y="512"/>
      <point x="386" y="456"/>
      <point x="386" y="374" type="curve" smooth="yes"/>
      <point x="386" y="251" type="line" smooth="yes"/>
      <point x="386" y="170"/>
      <point x="366" y="113"/>
    </contour>
    <contour>
      <point x="222" y="616" type="line"/>
      <point x="370" y="616" type="line"/>
      <point x="370" y="760" type="line"/>
      <point x="222" y="760" type="line"/>
    </contour>
  </outline>
</glyph>
<glyph name="oPhr.eth" format="2">
  <advance width="563"/>
  <unicode hex="12D6"/>
  <note>
uni12D6
</note>
  <anchor x="281" y="723" name="top"/>
  <outline>
    <contour>
      <point x="30" y="0" type="curve"/>
      <point x="183" y="0" type="line"/>
      <point x="187" y="128"/>
      <point x="223" y="199"/>
      <point x="352" y="274" type="curve" smooth="yes"/>
      <point x="466" y="340"/>
      <point x="533" y="403"/>
      <point x="533" y="526" type="curve" smooth="yes"/>
      <point x="533" y="642"/>
      <point x="460" y="723"/>
      <point x="315" y="723" type="curve" smooth="yes"/>
      <point x="184" y="723"/>
      <point x="93" y="650"/>
      <point x="93" y="524" type="curve" smooth="yes"/>
      <point x="93" y="433"/>
      <point x="137" y="366"/>
      <point x="204" y="329" type="curve"/>
      <point x="96" y="259"/>
      <point x="33" y="179"/>
    </contour>
    <contour>
      <point x="308" y="394" type="curve"/>
      <point x="271" y="411"/>
      <point x="239" y="458"/>
      <point x="239" y="520" type="curve" smooth="yes"/>
      <point x="239" y="579"/>
      <point x="265" y="613"/>
      <point x="318" y="613" type="curve" smooth="yes"/>
      <point x="365" y="613"/>
      <point x="391" y="580"/>
      <point x="391" y="527" type="curve" smooth="yes"/>
      <point x="391" y="467"/>
      <point x="370" y="424"/>
    </contour>
  </outline>
</glyph>
<glyph name="za.eth" format="2">
  <advance width="605"/>
  <unicode hex="12D8"/>
  <note>
uni12D8
</note>
  <anchor x="302" y="714" name="top"/>
  <outline>
    <contour>
      <point x="80" y="0" type="line"/>
      <point x="228" y="0" type="line"/>
      <point x="228" y="312" type="line"/>
      <point x="377" y="312" type="line"/>
      <point x="377" y="0" type="line"/>
      <point x="525" y="0" type="line"/>
      <point x="525" y="714" type="line"/>
      <point x="377" y="714" type="line"/>
      <point x="377" y="430" type="line"/>
      <point x="228" y="430" type="line"/>
      <point x="228" y="714" type="line"/>
      <point x="80" y="714" type="line"/>
    </contour>
  </outline>
</glyph>
<glyph name="zaa.eth" format="2">
  <advance width="605"/>
  <unicode hex="12DB"/>
  <note>
uni12DB
</note>
  <anchor x="302" y="714" name="top"/>
  <outline>
    <contour>
      <point x="377" y="0" type="line"/>
      <point x="525" y="0" type="line"/>
      <point x="525" y="714" type="line"/>
      <point x="377" y="714" type="line"/>
      <point x="377" y="430" type="line"/>
      <point x="228" y="430" type="line"/>
      <point x="228" y="714" type="line"/>
      <point x="80" y="714" type="line"/>
      <point x="80" y="161" type="line"/>
      <point x="228" y="161" type="line"/>
      <point x="228" y="312" type="line"/>
      <point x="377" y="312" type="line"/>
    </contour>
  </outline>
</glyph>
<glyph name="ze.eth" format="2">
  <advance width="734"/>
  <unicode hex="12DD"/>
  <note>
uni12DD
</note>
  <anchor x="332" y="714" name="top"/>
  <outline>
    <contour>
      <point x="209" y="0" type="line"/>
      <point x="357" y="0" type="line"/>
      <point x="357" y="312" type="line"/>
      <point x="506" y="312" type="line"/>
      <point x="506" y="0" type="line"/>
      <point x="654" y="0" type="line"/>
      <point x="654" y="714" type="line"/>
      <point x="506" y="714" type="line"/>
      <point x="506" y="430" type="line"/>
      <point x="357" y="430" type="line"/>
      <point x="357" y="525" type="line" smooth="yes"/>
      <point x="357" y="640"/>
      <point x="308" y="714"/>
      <point x="159" y="714" type="curve" smooth="yes"/>
      <point x="49" y="714" type="line"/>
      <point x="10" y="539" type="line"/>
      <point x="34" y="539" type="line" smooth="yes"/>
      <point x="89" y="539"/>
      <point x="118" y="563"/>
      <point x="140" y="612" type="curve"/>
      <point x="147" y="612" type="line" smooth="yes"/>
      <point x="180" y="612"/>
      <point x="209" y="583"/>
      <point x="209" y="519" type="curve" smooth="yes"/>
    </contour>
  </outline>
</glyph>
<glyph name="zhaa.eth" format="2">
  <advance width="863"/>
  <unicode hex="12E3"/>
  <note>
uni12E3
</note>
  <anchor x="431" y="714" name="top"/>
  <outline>
    <contour>
      <point x="506" y="0" type="line"/>
      <point x="654" y="0" type="line"/>
      <point x="654" y="519" type="line" smooth="yes"/>
      <point x="654" y="583"/>
      <point x="683" y="612"/>
      <point x="716" y="612" type="curve" smooth="yes"/>
      <point x="723" y="612" type="line"/>
      <point x="745" y="563"/>
      <point x="774" y="539"/>
      <point x="829" y="539" type="curve" smooth="yes"/>
      <point x="853" y="539" type="line"/>
      <point x="814" y="714" type="line"/>
      <point x="704" y="714" type="line" smooth="yes"/>
      <point x="555" y="714"/>
      <point x="506" y="640"/>
      <point x="506" y="525" type="curve" smooth="yes"/>
      <point x="506" y="430" type="line"/>
      <point x="357" y="430" type="line"/>
      <point x="357" y="525" type="line" smooth="yes"/>
      <point x="357" y="640"/>
      <point x="308" y="714"/>
      <point x="159" y="714" type="curve" smooth="yes"/>
      <point x="49" y="714" type="line"/>
      <point x="10" y="539" type="line"/>
      <point x="34" y="539" type="line" smooth="yes"/>
      <point x="89" y="539"/>
      <point x="118" y="563"/>
      <point x="140" y="612" type="curve"/>
      <point x="147" y="612" type="line" smooth="yes"/>
      <point x="180" y="612"/>
      <point x="209" y="583"/>
      <point x="209" y="519" type="curve" smooth="yes"/>
      <point x="209" y="160" type="line"/>
      <point x="357" y="160" type="line"/>
      <point x="357" y="312" type="line"/>
      <point x="506" y="312" type="line"/>
    </contour>
  </outline>
</glyph>
<glyph name="zhe.eth" format="2">
  <advance width="889"/>
  <unicode hex="12E5"/>
  <note>
uni12E5
</note>
  <anchor x="444" y="846" name="top"/>
  <outline>
    <contour>
      <point x="235" y="0" type="line"/>
      <point x="383" y="0" type="line"/>
      <point x="383" y="228" type="line"/>
      <point x="532" y="228" type="line"/>
      <point x="532" y="0" type="line"/>
      <point x="680" y="0" type="line"/>
      <point x="680" y="366" type="line" smooth="yes"/>
      <point x="680" y="430"/>
      <point x="709" y="459"/>
      <point x="742" y="459" type="curve" smooth="yes"/>
      <point x="749" y="459" type="line"/>
      <point x="771" y="410"/>
      <point x="800" y="386"/>
      <point x="855" y="386" type="curve" smooth="yes"/>
      <point x="879" y="386" type="line"/>
      <point x="840" y="561" type="line"/>
      <point x="730" y="561" type="line" smooth="yes"/>
      <point x="581" y="561"/>
      <point x="532" y="487"/>
      <point x="532" y="372" type="curve" smooth="yes"/>
      <point x="532" y="346" type="line"/>
      <point x="383" y="346" type="line"/>
      <point x="383" y="372" type="line" smooth="yes"/>
      <point x="383" y="487"/>
      <point x="334" y="561"/>
      <point x="185" y="561" type="curve" smooth="yes"/>
      <point x="75" y="561" type="line"/>
      <point x="36" y="386" type="line"/>
      <point x="60" y="386" type="line" smooth="yes"/>
      <point x="115" y="386"/>
      <point x="144" y="410"/>
      <point x="166" y="459" type="curve"/>
      <point x="173" y="459" type="line" smooth="yes"/>
      <point x="206" y="459"/>
      <point x="235" y="430"/>
      <point x="235" y="366" type="curve" smooth="yes"/>
    </contour>
    <contour>
      <point x="340" y="447" type="line"/>
      <point x="340" y="726" type="line"/>
      <point x="192" y="726" type="line"/>
      <point x="192" y="509" type="line"/>
    </contour>
    <component base="footshort" xScale="-1" yScale="-1" xOffset="533" yOffset="773"/>
  </outline>
</glyph>
<glyph name="ya.eth" format="2">
  <advance width="514"/>
  <unicode hex="12E8"/>
  <note>
uni12E8
</note>
  <anchor x="262" y="724" name="top"/>
  <outline>
    <contour>
      <point x="171" y="0" type="line"/>
      <point x="319" y="0" type="line"/>
      <point x="319" y="132" type="line" smooth="yes"/>
      <point x="319" y="199"/>
      <point x="309" y="266"/>
      <point x="288" y="310" type="curve"/>
      <point x="388" y="339"/>
      <point x="484" y="401"/>
      <point x="484" y="531" type="curve" smooth="yes"/>
      <point x="484" y="649"/>
      <point x="409" y="724"/>
      <point x="265" y="724" type="curve" smooth="yes"/>
      <point x="128" y="724"/>
      <point x="40" y="648"/>
      <point x="40" y="526" type="curve" smooth="yes"/>
      <point x="40" y="444"/>
      <point x="71" y="399"/>
      <point x="107" y="345" type="curve" smooth="yes"/>
      <point x="143" y="291"/>
      <point x="171" y="237"/>
      <point x="171" y="149" type="curve" smooth="yes"/>
    </contour>
    <contour>
      <point x="240" y="408" type="curve"/>
      <point x="215" y="441"/>
      <point x="187" y="480"/>
      <point x="187" y="530" type="curve" smooth="yes"/>
      <point x="187" y="591"/>
      <point x="227" y="612"/>
      <point x="265" y="612" type="curve" smooth="yes"/>
      <point x="316" y="612"/>
      <point x="338" y="572"/>
      <point x="338" y="528" type="curve" smooth="yes"/>
      <point x="338" y="465"/>
      <point x="298" y="426"/>
    </contour>
  </outline>
</glyph>
<glyph name="yi.eth" format="2">
  <advance width="677"/>
  <unicode hex="12EA"/>
  <note>
uni12EA
</note>
  <anchor x="353" y="724" name="top"/>
  <outline>
    <contour>
      <point x="639" y="-11" type="curve" smooth="yes"/>
      <point x="667" y="-11" type="line"/>
      <point x="628" y="164" type="line"/>
      <point x="417" y="164" type="line"/>
      <point x="417" y="62" type="line"/>
      <point x="537" y="62" type="line"/>
      <point x="562" y="3"/>
      <point x="600" y="-11"/>
    </contour>
    <contour>
      <point x="294" y="145" type="line"/>
      <point x="473" y="145" type="line"/>
      <point x="473" y="247" type="line"/>
      <point x="294" y="247" type="line"/>
    </contour>
    <contour>
      <point x="417" y="62" type="line"/>
      <point x="536" y="62" type="line"/>
      <point x="536" y="334" type="line"/>
      <point x="417" y="334" type="line"/>
    </contour>
    <component base="ya.eth"/>
  </outline>
</glyph>
<glyph name="ye.eth" format="2">
  <advance width="745"/>
  <unicode hex="12ED"/>
  <note>
uni12ED
</note>
  <anchor x="357" y="725" name="top"/>
  <outline>
    <contour>
      <point x="469" y="0" type="curve" smooth="yes"/>
      <point x="613" y="0"/>
      <point x="695" y="95"/>
      <point x="695" y="236" type="curve" smooth="yes"/>
      <point x="695" y="293" type="line"/>
      <point x="547" y="293" type="line"/>
      <point x="547" y="240" type="line" smooth="yes"/>
      <point x="547" y="156"/>
      <point x="523" y="112"/>
      <point x="466" y="112" type="curve" smooth="yes"/>
      <point x="372" y="112"/>
      <point x="320" y="233"/>
      <point x="299" y="330" type="curve"/>
      <point x="499" y="330"/>
      <point x="586" y="437"/>
      <point x="586" y="547" type="curve" smooth="yes"/>
      <point x="586" y="652"/>
      <point x="507" y="725"/>
      <point x="368" y="725" type="curve" smooth="yes"/>
      <point x="227" y="725"/>
      <point x="136" y="650"/>
      <point x="136" y="448" type="curve" smooth="yes"/>
      <point x="136" y="224"/>
      <point x="248" y="0"/>
    </contour>
    <contour>
      <point x="208" y="0" type="line"/>
      <point x="469" y="0" type="line"/>
      <point x="346" y="102" type="line"/>
      <point x="208" y="102" type="line"/>
    </contour>
    <contour>
      <point x="285" y="438" type="curve"/>
      <point x="282" y="452"/>
      <point x="281" y="469"/>
      <point x="281" y="484" type="curve" smooth="yes"/>
      <point x="281" y="567"/>
      <point x="313" y="613"/>
      <point x="369" y="613" type="curve" smooth="yes"/>
      <point x="414" y="613"/>
      <point x="440" y="583"/>
      <point x="440" y="537" type="curve" smooth="yes"/>
      <point x="440" y="459"/>
      <point x="363" y="438"/>
    </contour>
    <component base="leftsingleflag" xOffset="10" yOffset="-314"/>
  </outline>
</glyph>
<glyph name="da.eth" format="2">
  <advance width="613"/>
  <unicode hex="12F0"/>
  <note>
uni12F0
</note>
  <anchor x="306" y="725" name="top"/>
  <outline>
    <contour>
      <point x="219" y="173" type="curve"/>
      <point x="381" y="173" type="line"/>
      <point x="342" y="215"/>
      <point x="308" y="277"/>
      <point x="292" y="330" type="curve"/>
      <point x="492" y="330"/>
      <point x="575" y="430"/>
      <point x="575" y="538" type="curve" smooth="yes"/>
      <point x="575" y="652"/>
      <point x="505" y="725"/>
      <point x="368" y="725" type="curve" smooth="yes"/>
      <point x="221" y="725"/>
      <point x="125" y="649"/>
      <point x="125" y="466" type="curve" smooth="yes"/>
      <point x="125" y="345"/>
      <point x="164" y="245"/>
    </contour>
    <contour>
      <point x="276" y="438" type="curve"/>
      <point x="273" y="452"/>
      <point x="272" y="468"/>
      <point x="272" y="485" type="curve" smooth="yes"/>
      <point x="272" y="566"/>
      <point x="301" y="613"/>
      <point x="360" y="613" type="curve" smooth="yes"/>
      <point x="403" y="613"/>
      <point x="429" y="583"/>
      <point x="429" y="541" type="curve" smooth="yes"/>
      <point x="429" y="461"/>
      <point x="364" y="439"/>
    </contour>
    <component base="footmiddle" yOffset="73"/>
  </outline>
</glyph>
<glyph name="daa.eth" format="2">
  <advance width="805"/>
  <unicode hex="12F3"/>
  <note>
uni12F3
</note>
  <anchor x="369" y="724" name="top"/>
  <outline>
    <contour>
      <point x="372" y="246" type="curve"/>
      <point x="589" y="283" type="line"/>
      <point x="419" y="289"/>
      <point x="349" y="393"/>
      <point x="349" y="505" type="curve" smooth="yes"/>
      <point x="349" y="575"/>
      <point x="376" y="609"/>
      <point x="424" y="609" type="curve" smooth="yes"/>
      <point x="470" y="609"/>
      <point x="492" y="578"/>
      <point x="492" y="539" type="curve" smooth="yes"/>
      <point x="492" y="480"/>
      <point x="440" y="430"/>
      <point x="333" y="430" type="curve"/>
      <point x="380" y="333" type="line"/>
      <point x="540" y="340"/>
      <point x="638" y="414"/>
      <point x="638" y="538" type="curve" smooth="yes"/>
      <point x="638" y="636"/>
      <point x="576" y="724"/>
      <point x="428" y="724" type="curve" smooth="yes"/>
      <point x="286" y="724"/>
      <point x="199" y="642"/>
      <point x="199" y="498" type="curve" smooth="yes"/>
      <point x="199" y="353"/>
      <point x="288" y="269"/>
    </contour>
    <contour>
      <point x="580" y="0" type="line"/>
      <point x="728" y="0" type="line"/>
      <point x="728" y="288" type="line"/>
      <point x="181" y="288" type="line"/>
      <point x="181" y="186" type="line"/>
      <point x="580" y="186" type="line"/>
    </contour>
    <component base="leftsingleflag" yOffset="-128"/>
  </outline>
</glyph>
<glyph name="dee.eth" format="2">
  <advance width="788"/>
  <unicode hex="12F4"/>
  <note>
uni12F4
</note>
  <anchor x="389" y="725" name="top"/>
  <outline>
    <contour>
      <point x="172" y="138" type="line"/>
      <point x="507" y="138" type="line"/>
      <point x="601" y="239" type="line"/>
      <point x="404" y="239" type="line"/>
      <point x="381" y="255"/>
      <point x="343" y="303"/>
      <point x="329" y="336" type="curve"/>
      <point x="513" y="336"/>
      <point x="587" y="431"/>
      <point x="587" y="538" type="curve" smooth="yes"/>
      <point x="587" y="652"/>
      <point x="517" y="725"/>
      <point x="380" y="725" type="curve" smooth="yes"/>
      <point x="233" y="725"/>
      <point x="137" y="646"/>
      <point x="137" y="490" type="curve" smooth="yes"/>
      <point x="137" y="377"/>
      <point x="185" y="289"/>
      <point x="234" y="239" type="curve"/>
      <point x="172" y="239" type="line"/>
    </contour>
    <contour>
      <point x="291" y="439" type="curve"/>
      <point x="287" y="454"/>
      <point x="284" y="472"/>
      <point x="284" y="497" type="curve" smooth="yes"/>
      <point x="284" y="571"/>
      <point x="313" y="613"/>
      <point x="372" y="613" type="curve" smooth="yes"/>
      <point x="415" y="613"/>
      <point x="441" y="583"/>
      <point x="441" y="541" type="curve" smooth="yes"/>
      <point x="441" y="465"/>
      <point x="382" y="440"/>
    </contour>
    <component base="ballsmall" xOffset="418" yOffset="-196"/>
    <component base="leftsingleflag" yOffset="-176"/>
  </outline>
</glyph>
<glyph name="do.eth" format="2">
  <advance width="715"/>
  <unicode hex="12F6"/>
  <note>
uni12F6
</note>
  <anchor x="357" y="724" name="top"/>
  <outline>
    <contour>
      <point x="339" y="246" type="curve"/>
      <point x="556" y="283" type="line"/>
      <point x="386" y="289"/>
      <point x="316" y="393"/>
      <point x="316" y="505" type="curve" smooth="yes"/>
      <point x="316" y="575"/>
      <point x="343" y="609"/>
      <point x="391" y="609" type="curve" smooth="yes"/>
      <point x="437" y="609"/>
      <point x="459" y="578"/>
      <point x="459" y="539" type="curve" smooth="yes"/>
      <point x="459" y="480"/>
      <point x="407" y="430"/>
      <point x="300" y="430" type="curve"/>
      <point x="347" y="333" type="line"/>
      <point x="507" y="340"/>
      <point x="605" y="414"/>
      <point x="605" y="538" type="curve" smooth="yes"/>
      <point x="605" y="636"/>
      <point x="543" y="724"/>
      <point x="395" y="724" type="curve" smooth="yes"/>
      <point x="253" y="724"/>
      <point x="166" y="642"/>
      <point x="166" y="498" type="curve" smooth="yes"/>
      <point x="166" y="353"/>
      <point x="255" y="269"/>
    </contour>
    <contour>
      <point x="10" y="0" type="line"/>
      <point x="158" y="0" type="line"/>
      <point x="158" y="95" type="line" smooth="yes"/>
      <point x="158" y="163"/>
      <point x="181" y="186"/>
      <point x="248" y="186" type="curve" smooth="yes"/>
      <point x="505" y="186" type="line"/>
      <point x="505" y="288" type="line"/>
      <point x="215" y="288" type="line" smooth="yes"/>
      <point x="92" y="288"/>
      <point x="10" y="226"/>
      <point x="10" y="105" type="curve" smooth="yes"/>
    </contour>
    <component base="rightsingleflag" xOffset="435" yOffset="-128"/>
  </outline>
</glyph>
<glyph name="dwa.eth" format="2">
  <advance width="767"/>
  <unicode hex="12F7"/>
  <note>
uni12F7
</note>
  <anchor x="383" y="724" name="top"/>
  <outline>
    <contour>
      <point x="324" y="246" type="curve"/>
      <point x="541" y="283" type="line"/>
      <point x="372" y="288"/>
      <point x="301" y="396"/>
      <point x="301" y="500" type="curve" smooth="yes"/>
      <point x="301" y="577"/>
      <point x="328" y="609"/>
      <point x="376" y="609" type="curve" smooth="yes"/>
      <point x="422" y="609"/>
      <point x="444" y="580"/>
      <point x="444" y="537" type="curve" smooth="yes"/>
      <point x="444" y="481"/>
      <point x="392" y="430"/>
      <point x="285" y="430" type="curve"/>
      <point x="332" y="333" type="line"/>
      <point x="491" y="340"/>
      <point x="590" y="413"/>
      <point x="590" y="538" type="curve" smooth="yes"/>
      <point x="590" y="636"/>
      <point x="527" y="724"/>
      <point x="381" y="724" type="curve" smooth="yes"/>
      <point x="238" y="724"/>
      <point x="151" y="645"/>
      <point x="151" y="492" type="curve" smooth="yes"/>
      <point x="151" y="359"/>
      <point x="239" y="268"/>
    </contour>
    <contour>
      <point x="432" y="0" type="line"/>
      <point x="580" y="0" type="line"/>
      <point x="580" y="288" type="line"/>
      <point x="193" y="288" type="line"/>
      <point x="193" y="186" type="line"/>
      <point x="432" y="186" type="line"/>
    </contour>
    <component base="leftsingleflag" yOffset="-128"/>
    <component base="footright" xOffset="209"/>
  </outline>
</glyph>
<glyph name="dda.eth" format="2">
  <advance width="613"/>
  <unicode hex="12F8"/>
  <note>
uni12F8
</note>
  <anchor x="306" y="783" name="top"/>
  <outline>
    <contour>
      <point x="218" y="172" type="curve"/>
      <point x="382" y="172" type="line"/>
      <point x="350" y="201"/>
      <point x="319" y="241"/>
      <point x="301" y="276" type="curve"/>
      <point x="490" y="282"/>
      <point x="558" y="370"/>
      <point x="558" y="478" type="curve" smooth="yes"/>
      <point x="558" y="592"/>
      <point x="480" y="665"/>
      <point x="352" y="665" type="curve" smooth="yes"/>
      <point x="203" y="665"/>
      <point x="119" y="569"/>
      <point x="119" y="425" type="curve" smooth="yes"/>
      <point x="119" y="306"/>
      <point x="168" y="229"/>
    </contour>
    <contour>
      <point x="270" y="384" type="curve"/>
      <point x="267" y="398"/>
      <point x="264" y="418"/>
      <point x="264" y="435" type="curve" smooth="yes"/>
      <point x="264" y="511"/>
      <point x="291" y="553"/>
      <point x="348" y="553" type="curve" smooth="yes"/>
      <point x="390" y="553"/>
      <point x="413" y="525"/>
      <point x="413" y="483" type="curve" smooth="yes"/>
      <point x="413" y="413"/>
      <point x="360" y="385"/>
    </contour>
    <contour>
      <point x="271" y="616" type="line"/>
      <point x="419" y="616" type="line"/>
      <point x="419" y="783" type="line"/>
      <point x="271" y="783" type="line"/>
    </contour>
    <component base="footmiddle" yOffset="73"/>
  </outline>
</glyph>
<glyph name="ddaa.eth" format="2">
  <advance width="804"/>
  <unicode hex="12FB"/>
  <note>
uni12FB
</note>
  <anchor x="368" y="796" name="top"/>
  <outline>
    <contour>
      <point x="379" y="212" type="curve"/>
      <point x="588" y="247" type="line"/>
      <point x="419" y="252"/>
      <point x="348" y="363"/>
      <point x="348" y="459" type="curve" smooth="yes"/>
      <point x="348" y="525"/>
      <point x="377" y="556"/>
      <point x="425" y="556" type="curve" smooth="yes"/>
      <point x="469" y="556"/>
      <point x="491" y="531"/>
      <point x="491" y="493" type="curve" smooth="yes"/>
      <point x="491" y="432"/>
      <point x="439" y="394"/>
      <point x="332" y="394" type="curve"/>
      <point x="379" y="297" type="line"/>
      <point x="538" y="304"/>
      <point x="637" y="377"/>
      <point x="637" y="494" type="curve" smooth="yes"/>
      <point x="637" y="587"/>
      <point x="574" y="671"/>
      <point x="428" y="671" type="curve" smooth="yes"/>
      <point x="282" y="671"/>
      <point x="198" y="592"/>
      <point x="198" y="454" type="curve" smooth="yes"/>
      <point x="198" y="320"/>
      <point x="294" y="234"/>
    </contour>
    <contour>
      <point x="579" y="0" type="line"/>
      <point x="727" y="0" type="line"/>
      <point x="727" y="252" type="line"/>
      <point x="180" y="252" type="line"/>
      <point x="180" y="150" type="line"/>
      <point x="579" y="150" type="line"/>
    </contour>
    <contour>
      <point x="356" y="612" type="line"/>
      <point x="504" y="612" type="line"/>
      <point x="504" y="796" type="line"/>
      <point x="356" y="796" type="line"/>
    </contour>
    <component base="leftsingleflag" yOffset="-164"/>
  </outline>
</glyph>
<glyph name="ddee.eth" format="2">
  <advance width="788"/>
  <unicode hex="12FC"/>
  <note>
uni12FC
</note>
  <anchor x="389" y="796" name="top"/>
  <outline>
    <contour>
      <point x="236" y="239" type="curve"/>
      <point x="411" y="239" type="line"/>
      <point x="387" y="255"/>
      <point x="356" y="287"/>
      <point x="340" y="316" type="curve"/>
      <point x="524" y="316"/>
      <point x="597" y="409"/>
      <point x="597" y="509" type="curve" smooth="yes"/>
      <point x="597" y="616"/>
      <point x="525" y="689"/>
      <point x="388" y="689" type="curve" smooth="yes"/>
      <point x="237" y="689"/>
      <point x="147" y="601"/>
      <point x="147" y="452" type="curve" smooth="yes"/>
      <point x="147" y="343"/>
      <point x="195" y="278"/>
    </contour>
    <contour>
      <point x="210" y="138" type="line"/>
      <point x="534" y="138" type="line"/>
      <point x="597" y="240" type="line"/>
      <point x="210" y="240" type="line"/>
    </contour>
    <contour>
      <point x="300" y="417" type="curve"/>
      <point x="296" y="432"/>
      <point x="294" y="446"/>
      <point x="294" y="466" type="curve" smooth="yes"/>
      <point x="294" y="534"/>
      <point x="321" y="577"/>
      <point x="382" y="577" type="curve" smooth="yes"/>
      <point x="427" y="577"/>
      <point x="451" y="548"/>
      <point x="451" y="507" type="curve" smooth="yes"/>
      <point x="451" y="439"/>
      <point x="391" y="418"/>
    </contour>
    <contour>
      <point x="309" y="649" type="line"/>
      <point x="457" y="649" type="line"/>
      <point x="457" y="796" type="line"/>
      <point x="309" y="796" type="line"/>
    </contour>
    <component base="ballsmall" xOffset="418" yOffset="-195"/>
    <component base="leftsingleflag" yOffset="-176"/>
  </outline>
</glyph>
<glyph name="ddo.eth" format="2">
  <advance width="715"/>
  <unicode hex="12FE"/>
  <note>
uni12FE
</note>
  <anchor x="357" y="783" name="top"/>
  <outline>
    <contour>
      <point x="339" y="164" type="curve"/>
      <point x="556" y="201" type="line"/>
      <point x="386" y="207"/>
      <point x="316" y="311"/>
      <point x="316" y="423" type="curve" smooth="yes"/>
      <point x="316" y="493"/>
      <point x="343" y="527"/>
      <point x="391" y="527" type="curve" smooth="yes"/>
      <point x="437" y="527"/>
      <point x="459" y="496"/>
      <point x="459" y="457" type="curve" smooth="yes"/>
      <point x="459" y="398"/>
      <point x="407" y="348"/>
      <point x="300" y="348" type="curve"/>
      <point x="347" y="251" type="line"/>
      <point x="507" y="258"/>
      <point x="605" y="332"/>
      <point x="605" y="456" type="curve" smooth="yes"/>
      <point x="605" y="554"/>
      <point x="543" y="642"/>
      <point x="395" y="642" type="curve" smooth="yes"/>
      <point x="253" y="642"/>
      <point x="166" y="560"/>
      <point x="166" y="416" type="curve" smooth="yes"/>
      <point x="166" y="271"/>
      <point x="255" y="187"/>
    </contour>
    <contour>
      <point x="10" y="0" type="line"/>
      <point x="158" y="0" type="line"/>
      <point x="158" y="23" type="line" smooth="yes"/>
      <point x="158" y="84"/>
      <point x="181" y="104"/>
      <point x="248" y="104" type="curve" smooth="yes"/>
      <point x="505" y="104" type="line"/>
      <point x="505" y="206" type="line"/>
      <point x="215" y="206" type="line" smooth="yes"/>
      <point x="92" y="206"/>
      <point x="10" y="147"/>
      <point x="10" y="33" type="curve" smooth="yes"/>
    </contour>
    <contour>
      <point x="316" y="616" type="line"/>
      <point x="464" y="616" type="line"/>
      <point x="464" y="783" type="line"/>
      <point x="316" y="783" type="line"/>
    </contour>
    <component base="rightsingleflag" xOffset="435" yOffset="-210"/>
  </outline>
</glyph>
<glyph name="ddwa.eth" format="2">
  <advance width="767"/>
  <unicode hex="12FF"/>
  <note>
uni12FF
</note>
  <anchor x="383" y="796" name="top"/>
  <outline>
    <contour>
      <point x="313" y="212" type="curve"/>
      <point x="522" y="247" type="line"/>
      <point x="353" y="252"/>
      <point x="282" y="363"/>
      <point x="282" y="459" type="curve" smooth="yes"/>
      <point x="282" y="525"/>
      <point x="311" y="556"/>
      <point x="359" y="556" type="curve" smooth="yes"/>
      <point x="403" y="556"/>
      <point x="425" y="531"/>
      <point x="425" y="493" type="curve" smooth="yes"/>
      <point x="425" y="432"/>
      <point x="373" y="394"/>
      <point x="266" y="394" type="curve"/>
      <point x="313" y="297" type="line"/>
      <point x="472" y="304"/>
      <point x="571" y="377"/>
      <point x="571" y="494" type="curve" smooth="yes"/>
      <point x="571" y="587"/>
      <point x="508" y="671"/>
      <point x="362" y="671" type="curve" smooth="yes"/>
      <point x="216" y="671"/>
      <point x="132" y="592"/>
      <point x="132" y="454" type="curve" smooth="yes"/>
      <point x="132" y="320"/>
      <point x="228" y="234"/>
    </contour>
    <contour>
      <point x="443" y="0" type="line"/>
      <point x="591" y="0" type="line"/>
      <point x="591" y="252" type="line"/>
      <point x="114" y="252" type="line"/>
      <point x="114" y="150" type="line"/>
      <point x="443" y="150" type="line"/>
    </contour>
    <contour>
      <point x="290" y="612" type="line"/>
      <point x="438" y="612" type="line"/>
      <point x="438" y="796" type="line"/>
      <point x="290" y="796" type="line"/>
    </contour>
    <component base="footright" xOffset="209"/>
    <component base="leftsingleflag" yOffset="-164"/>
  </outline>
</glyph>
<glyph name="ja.eth" format="2">
  <advance width="618"/>
  <unicode hex="1300"/>
  <note>
uni1300
</note>
  <anchor x="309" y="854" name="top"/>
  <outline>
    <contour>
      <point x="191" y="171" type="curve"/>
      <point x="367" y="171" type="line"/>
      <point x="335" y="200"/>
      <point x="305" y="236"/>
      <point x="287" y="266" type="curve"/>
      <point x="476" y="272"/>
      <point x="537" y="350"/>
      <point x="537" y="458" type="curve" smooth="yes"/>
      <point x="537" y="554"/>
      <point x="465" y="627"/>
      <point x="331" y="627" type="curve" smooth="yes"/>
      <point x="178" y="627"/>
      <point x="98" y="542"/>
      <point x="98" y="415" type="curve" smooth="yes"/>
      <point x="98" y="293"/>
      <point x="147" y="219"/>
    </contour>
    <contour>
      <point x="249" y="374" type="curve"/>
      <point x="245" y="387"/>
      <point x="243" y="403"/>
      <point x="243" y="420" type="curve" smooth="yes"/>
      <point x="243" y="475"/>
      <point x="270" y="515"/>
      <point x="327" y="515" type="curve" smooth="yes"/>
      <point x="369" y="515"/>
      <point x="392" y="489"/>
      <point x="392" y="450" type="curve" smooth="yes"/>
      <point x="392" y="390"/>
      <point x="339" y="375"/>
    </contour>
    <contour>
      <point x="231" y="578" type="line"/>
      <point x="379" y="578" type="line"/>
      <point x="379" y="745" type="line"/>
      <point x="231" y="745" type="line"/>
    </contour>
    <component base="footmiddle" xOffset="5" yOffset="73"/>
    <component base="bonemiddle" yOffset="14"/>
  </outline>
</glyph>
<glyph name="jee.eth" format="2">
  <advance width="848"/>
  <unicode hex="1304"/>
  <note>
uni1304
</note>
  <anchor x="419" y="830" name="top"/>
  <outline>
    <contour>
      <point x="379" y="181" type="curve"/>
      <point x="588" y="216" type="line"/>
      <point x="419" y="221"/>
      <point x="348" y="332"/>
      <point x="348" y="411" type="curve" smooth="yes"/>
      <point x="348" y="468"/>
      <point x="377" y="499"/>
      <point x="425" y="499" type="curve" smooth="yes"/>
      <point x="471" y="499"/>
      <point x="491" y="472"/>
      <point x="491" y="443" type="curve" smooth="yes"/>
      <point x="491" y="399"/>
      <point x="453" y="363"/>
      <point x="332" y="363" type="curve"/>
      <point x="379" y="266" type="line"/>
      <point x="538" y="273"/>
      <point x="637" y="346"/>
      <point x="637" y="446" type="curve" smooth="yes"/>
      <point x="637" y="530"/>
      <point x="574" y="614"/>
      <point x="428" y="614" type="curve" smooth="yes"/>
      <point x="282" y="614"/>
      <point x="198" y="535"/>
      <point x="198" y="406" type="curve" smooth="yes"/>
      <point x="198" y="289"/>
      <point x="294" y="203"/>
    </contour>
    <contour>
      <point x="180" y="119" type="line"/>
      <point x="579" y="119" type="line"/>
      <point x="656" y="221" type="line"/>
      <point x="180" y="221" type="line"/>
    </contour>
    <contour>
      <point x="356" y="555" type="line"/>
      <point x="504" y="555" type="line"/>
      <point x="504" y="739" type="line"/>
      <point x="356" y="739" type="line"/>
    </contour>
    <component base="ballsmall" xOffset="478" yOffset="-214"/>
    <component base="leftsingleflag" yOffset="-195"/>
    <component base="bonelong" xOffset="89" yOffset="-10"/>
  </outline>
</glyph>
<glyph name="jo.eth" format="2">
  <advance width="717"/>
  <unicode hex="1306"/>
  <note>
uni1306
</note>
  <anchor x="358" y="831" name="top"/>
  <outline>
    <contour>
      <point x="339" y="182" type="curve"/>
      <point x="548" y="217" type="line"/>
      <point x="379" y="222"/>
      <point x="308" y="333"/>
      <point x="308" y="412" type="curve" smooth="yes"/>
      <point x="308" y="469"/>
      <point x="337" y="500"/>
      <point x="385" y="500" type="curve" smooth="yes"/>
      <point x="431" y="500"/>
      <point x="451" y="473"/>
      <point x="451" y="444" type="curve" smooth="yes"/>
      <point x="451" y="400"/>
      <point x="413" y="364"/>
      <point x="292" y="364" type="curve"/>
      <point x="339" y="267" type="line"/>
      <point x="498" y="274"/>
      <point x="597" y="347"/>
      <point x="597" y="447" type="curve" smooth="yes"/>
      <point x="597" y="531"/>
      <point x="534" y="615"/>
      <point x="388" y="615" type="curve" smooth="yes"/>
      <point x="242" y="615"/>
      <point x="158" y="536"/>
      <point x="158" y="407" type="curve" smooth="yes"/>
      <point x="158" y="290"/>
      <point x="254" y="204"/>
    </contour>
    <contour>
      <point x="10" y="0" type="line"/>
      <point x="158" y="0" type="line"/>
      <point x="158" y="23" type="line" smooth="yes"/>
      <point x="158" y="84"/>
      <point x="181" y="116"/>
      <point x="248" y="116" type="curve" smooth="yes"/>
      <point x="505" y="116" type="line"/>
      <point x="505" y="218" type="line"/>
      <point x="215" y="218" type="line" smooth="yes"/>
      <point x="92" y="218"/>
      <point x="10" y="147"/>
      <point x="10" y="33" type="curve" smooth="yes"/>
    </contour>
    <contour>
      <point x="316" y="556" type="line"/>
      <point x="464" y="556" type="line"/>
      <point x="464" y="740" type="line"/>
      <point x="316" y="740" type="line"/>
    </contour>
    <component base="bonelong" xOffset="49" yOffset="-9"/>
    <component base="rightsingleflag" xOffset="435" yOffset="-198"/>
  </outline>
</glyph>
<glyph name="jwa.eth" format="2">
  <advance width="892"/>
  <unicode hex="1307"/>
  <note>
uni1307
</note>
  <anchor x="446" y="831" name="top"/>
  <outline>
    <contour>
      <point x="379" y="182" type="curve"/>
      <point x="588" y="217" type="line"/>
      <point x="419" y="222"/>
      <point x="348" y="333"/>
      <point x="348" y="412" type="curve" smooth="yes"/>
      <point x="348" y="469"/>
      <point x="377" y="500"/>
      <point x="425" y="500" type="curve" smooth="yes"/>
      <point x="471" y="500"/>
      <point x="491" y="473"/>
      <point x="491" y="444" type="curve" smooth="yes"/>
      <point x="491" y="400"/>
      <point x="453" y="364"/>
      <point x="332" y="364" type="curve"/>
      <point x="379" y="267" type="line"/>
      <point x="538" y="274"/>
      <point x="637" y="347"/>
      <point x="637" y="447" type="curve" smooth="yes"/>
      <point x="637" y="531"/>
      <point x="574" y="615"/>
      <point x="428" y="615" type="curve" smooth="yes"/>
      <point x="282" y="615"/>
      <point x="198" y="536"/>
      <point x="198" y="407" type="curve" smooth="yes"/>
      <point x="198" y="290"/>
      <point x="294" y="204"/>
    </contour>
    <contour>
      <point x="549" y="0" type="line"/>
      <point x="697" y="0" type="line"/>
      <point x="697" y="222" type="line"/>
      <point x="180" y="222" type="line"/>
      <point x="180" y="120" type="line"/>
      <point x="549" y="120" type="line"/>
    </contour>
    <contour>
      <point x="356" y="556" type="line"/>
      <point x="504" y="556" type="line"/>
      <point x="504" y="740" type="line"/>
      <point x="356" y="740" type="line"/>
    </contour>
    <component base="footright" xOffset="334"/>
    <component base="leftsingleflag" yOffset="-194"/>
    <component base="bonelong" xOffset="92" yOffset="-9"/>
  </outline>
</glyph>
<glyph name="ga.eth" format="2">
	<advance width="618"/>
	<unicode hex="1308"/>
	<anchor x="271" y="714" name="top"/>
	<note>
		uni1308
	</note>
	<outline>
		<contour>
			<point x="385" y="0" type="line"/>
			<point x="533" y="0" type="line"/>
			<point x="533" y="365" type="line" smooth="yes"/>
			<point x="533" y="610"/>
			<point x="428" y="714"/>
			<point x="166" y="714" type="curve" smooth="yes"/>
			<point x="49" y="714" type="line"/>
			<point x="10" y="539" type="line"/>
			<point x="35" y="539" type="line" smooth="yes"/>
			<point x="85" y="539"/>
			<point x="115" y="557"/>
			<point x="140" y="612" type="curve"/>
			<point x="150" y="612" type="line" smooth="yes"/>
			<point x="324" y="612"/>
			<point x="385" y="562"/>
			<point x="385" y="329" type="curve" smooth="yes"/>
		</contour>
	</outline>
</glyph>
<glyph name="gaa.eth" format="2">
  <advance width="621"/>
  <unicode hex="130B"/>
  <note>
uni130B
</note>
  <anchor x="273" y="714" name="top"/>
  <outline>
    <contour>
      <point x="10" y="-73" type="line"/>
      <point x="33" y="-73" type="line" smooth="yes"/>
      <point x="89" y="-73"/>
      <point x="118" y="-50"/>
      <point x="140" y="0" type="curve"/>
      <point x="261" y="0" type="line" smooth="yes"/>
      <point x="443" y="0"/>
      <point x="536" y="84"/>
      <point x="536" y="249" type="curve" smooth="yes"/>
      <point x="536" y="365" type="line" smooth="yes"/>
      <point x="536" y="610"/>
      <point x="431" y="714"/>
      <point x="169" y="714" type="curve" smooth="yes"/>
      <point x="52" y="714" type="line"/>
      <point x="13" y="539" type="line"/>
      <point x="39" y="539" type="line" smooth="yes"/>
      <point x="85" y="539"/>
      <point x="120" y="558"/>
      <point x="143" y="612" type="curve"/>
      <point x="155" y="612" type="line" smooth="yes"/>
      <point x="329" y="612"/>
      <point x="388" y="562"/>
      <point x="388" y="335" type="curve" smooth="yes"/>
      <point x="388" y="247" type="line" smooth="yes"/>
      <point x="388" y="139"/>
      <point x="353" y="102"/>
      <point x="240" y="102" type="curve" smooth="yes"/>
      <point x="49" y="102" type="line"/>
    </contour>
  </outline>
</glyph>
<glyph name="ge.eth" format="2">
  <advance width="776"/>
  <unicode hex="130D"/>
  <note>
uni130D
</note>
  <anchor x="355" y="714" name="top"/>
  <outline>
    <contour>
      <point x="543" y="0" type="line"/>
      <point x="691" y="0" type="line"/>
      <point x="691" y="365" type="line" smooth="yes"/>
      <point x="691" y="610"/>
      <point x="605" y="714"/>
      <point x="343" y="714" type="curve" smooth="yes"/>
      <point x="208" y="714" type="line"/>
      <point x="310" y="622" type="line"/>
      <point x="350" y="622" type="line" smooth="yes"/>
      <point x="504" y="622"/>
      <point x="543" y="562"/>
      <point x="543" y="329" type="curve" smooth="yes"/>
    </contour>
    <component base="ballbig" yOffset="263"/>
  </outline>
</glyph>
<glyph name="go.eth" format="2">
  <advance width="618"/>
  <unicode hex="130E"/>
  <note>
uni130E
</note>
  <anchor x="271" y="760" name="top"/>
  <outline>
    <contour>
      <point x="385" y="0" type="line"/>
      <point x="533" y="0" type="line"/>
      <point x="533" y="271" type="line" smooth="yes"/>
      <point x="533" y="516"/>
      <point x="428" y="620"/>
      <point x="166" y="620" type="curve" smooth="yes"/>
      <point x="49" y="620" type="line"/>
      <point x="10" y="445" type="line"/>
      <point x="35" y="445" type="line" smooth="yes"/>
      <point x="83" y="445"/>
      <point x="117" y="463"/>
      <point x="140" y="518" type="curve"/>
      <point x="150" y="518" type="line" smooth="yes"/>
      <point x="333" y="518"/>
      <point x="385" y="460"/>
      <point x="385" y="235" type="curve" smooth="yes"/>
    </contour>
    <contour>
      <point x="184" y="575" type="line"/>
      <point x="332" y="575" type="line"/>
      <point x="332" y="760" type="line"/>
      <point x="184" y="760" type="line"/>
    </contour>
  </outline>
</glyph>
<glyph name="goa.eth" format="2">
	<advance width="653"/>
	<unicode hex="130F"/>
	<anchor x="304" y="760" name="top"/>
	<note>
		uni130F
	</note>
	<outline>
		<contour>
			<point x="266" y="0" type="line"/>
			<point x="487" y="0" type="line"/>
			<point x="487" y="102" type="line"/>
			<point x="266" y="102" type="line"/>
		</contour>
		<component base="go.eth" xOffset="35"/>
		<component base="leftdoubleflag" xOffset="30"/>
	</outline>
</glyph>
<glyph name="gwi.eth" format="2">
  <advance width="886"/>
  <unicode hex="1312"/>
  <note>
uni1312
</note>
  <anchor x="443" y="714" name="top"/>
  <outline>
    <contour>
      <point x="848" y="214" type="curve" smooth="yes"/>
      <point x="876" y="214" type="line"/>
      <point x="837" y="389" type="line"/>
      <point x="626" y="389" type="line"/>
      <point x="626" y="287" type="line"/>
      <point x="746" y="287" type="line"/>
      <point x="771" y="228"/>
      <point x="809" y="214"/>
    </contour>
    <contour>
      <point x="503" y="370" type="line"/>
      <point x="682" y="370" type="line"/>
      <point x="682" y="472" type="line"/>
      <point x="503" y="472" type="line"/>
    </contour>
    <contour>
      <point x="626" y="287" type="line"/>
      <point x="745" y="287" type="line"/>
      <point x="745" y="559" type="line"/>
      <point x="626" y="559" type="line"/>
    </contour>
    <component base="ga.eth"/>
  </outline>
</glyph>
<glyph name="gwaa.eth" format="2">
  <advance width="618"/>
  <unicode hex="1313"/>
  <note>
uni1313
</note>
  <anchor x="271" y="714" name="top"/>
  <outline>
    <contour>
      <point x="385" y="0" type="line"/>
      <point x="533" y="0" type="line"/>
      <point x="533" y="103" type="line" smooth="yes"/>
      <point x="533" y="348"/>
      <point x="428" y="452"/>
      <point x="166" y="452" type="curve" smooth="yes"/>
      <point x="49" y="452" type="line"/>
      <point x="10" y="277" type="line"/>
      <point x="35" y="277" type="line" smooth="yes"/>
      <point x="89" y="277"/>
      <point x="118" y="300"/>
      <point x="140" y="350" type="curve"/>
      <point x="150" y="350" type="line" smooth="yes"/>
      <point x="324" y="350"/>
      <point x="385" y="300"/>
      <point x="385" y="67" type="curve" smooth="yes"/>
    </contour>
    <contour>
      <point x="231" y="390" type="line"/>
      <point x="379" y="390" type="line"/>
      <point x="379" y="470" type="line" smooth="yes"/>
      <point x="379" y="647"/>
      <point x="294" y="714"/>
      <point x="162" y="714" type="curve" smooth="yes"/>
      <point x="49" y="714" type="line"/>
      <point x="10" y="539" type="line"/>
      <point x="35" y="539" type="line" smooth="yes"/>
      <point x="84" y="539"/>
      <point x="116" y="557"/>
      <point x="140" y="612" type="curve"/>
      <point x="146" y="612" type="line" smooth="yes"/>
      <point x="190" y="612"/>
      <point x="231" y="602"/>
      <point x="231" y="439" type="curve" smooth="yes"/>
    </contour>
  </outline>
</glyph>
<glyph name="gwee.eth" format="2">
  <advance width="805"/>
  <unicode hex="1314"/>
  <note>
uni1314
</note>
  <anchor x="401" y="714" name="top"/>
  <outline>
    <contour>
      <point x="243" y="0" type="line"/>
      <point x="464" y="0" type="line"/>
      <point x="464" y="102" type="line"/>
      <point x="243" y="102" type="line"/>
    </contour>
    <component base="ga.eth"/>
    <component base="leftsingleflag" xOffset="12" yOffset="-314"/>
    <component base="baselinebowl" xOffset="355"/>
  </outline>
</glyph>
<glyph name="gwe.eth" format="2">
  <advance width="892"/>
  <unicode hex="1315"/>
  <note>
uni1315
</note>
  <anchor x="446" y="714" name="top"/>
  <outline>
    <contour>
      <point x="627" y="326" type="line"/>
      <point x="741" y="326" type="line"/>
      <point x="741" y="589" type="line"/>
      <point x="627" y="589" type="line"/>
    </contour>
    <contour>
      <point x="499" y="326" type="line"/>
      <point x="678" y="326" type="line"/>
      <point x="678" y="428" type="line"/>
      <point x="499" y="428" type="line"/>
    </contour>
    <component base="ga.eth"/>
    <component base="rightsingleflag" xOffset="612" yOffset="12"/>
  </outline>
</glyph>
<glyph name="gga.eth" format="2">
  <advance width="633"/>
  <unicode hex="1318"/>
  <note>
uni1318
</note>
  <anchor x="279" y="781" name="top"/>
  <outline>
    <contour>
      <point x="393" y="0" type="line"/>
      <point x="541" y="0" type="line"/>
      <point x="541" y="162" type="line" smooth="yes"/>
      <point x="541" y="407"/>
      <point x="436" y="511"/>
      <point x="174" y="511" type="curve" smooth="yes"/>
      <point x="57" y="511" type="line"/>
      <point x="18" y="336" type="line"/>
      <point x="43" y="336" type="line" smooth="yes"/>
      <point x="93" y="336"/>
      <point x="123" y="354"/>
      <point x="148" y="409" type="curve"/>
      <point x="158" y="409" type="line" smooth="yes"/>
      <point x="332" y="409"/>
      <point x="393" y="359"/>
      <point x="393" y="126" type="curve" smooth="yes"/>
    </contour>
    <contour>
      <point x="210" y="469" type="line"/>
      <point x="358" y="469" type="line"/>
      <point x="358" y="664" type="line"/>
      <point x="210" y="664" type="line"/>
    </contour>
    <component base="bone" yOffset="-59"/>
  </outline>
</glyph>
<glyph name="ggaa.eth" format="2">
  <advance width="633"/>
  <unicode hex="131B"/>
  <note>
uni131B
</note>
  <anchor x="279" y="781" name="top"/>
  <outline>
    <contour>
      <point x="19" y="-73" type="line"/>
      <point x="42" y="-73" type="line" smooth="yes"/>
      <point x="98" y="-73"/>
      <point x="127" y="-50"/>
      <point x="149" y="0" type="curve"/>
      <point x="270" y="0" type="line" smooth="yes"/>
      <point x="452" y="0"/>
      <point x="545" y="84"/>
      <point x="545" y="249" type="curve" smooth="yes"/>
      <point x="545" y="273" type="line" smooth="yes"/>
      <point x="545" y="456"/>
      <point x="440" y="524"/>
      <point x="178" y="524" type="curve" smooth="yes"/>
      <point x="61" y="524" type="line"/>
      <point x="29" y="347" type="line"/>
      <point x="55" y="347" type="line" smooth="yes"/>
      <point x="116" y="347"/>
      <point x="147" y="374"/>
      <point x="164" y="432" type="curve"/>
      <point x="176" y="432" type="line" smooth="yes"/>
      <point x="350" y="432"/>
      <point x="397" y="397"/>
      <point x="397" y="265" type="curve" smooth="yes"/>
      <point x="397" y="247" type="line" smooth="yes"/>
      <point x="397" y="139"/>
      <point x="362" y="102"/>
      <point x="249" y="102" type="curve" smooth="yes"/>
      <point x="58" y="102" type="line"/>
    </contour>
    <contour>
      <point x="211" y="469" type="line"/>
      <point x="359" y="469" type="line"/>
      <point x="359" y="664" type="line"/>
      <point x="211" y="664" type="line"/>
    </contour>
    <component base="bone" yOffset="-59"/>
  </outline>
</glyph>
<glyph name="gge.eth" format="2">
	<advance width="792"/>
	<unicode hex="131D"/>
	<anchor x="358" y="781" name="top"/>
	<note>
		uni131D
	</note>
	<outline>
		<contour>
			<point x="559" y="0" type="line"/>
			<point x="707" y="0" type="line"/>
			<point x="707" y="177" type="line" smooth="yes"/>
			<point x="707" y="422"/>
			<point x="621" y="526"/>
			<point x="359" y="526" type="curve" smooth="yes"/>
			<point x="224" y="526" type="line"/>
			<point x="326" y="434" type="line"/>
			<point x="366" y="434" type="line" smooth="yes"/>
			<point x="520" y="434"/>
			<point x="559" y="374"/>
			<point x="559" y="141" type="curve" smooth="yes"/>
		</contour>
		<contour>
			<point x="238" y="483" type="line"/>
			<point x="386" y="483" type="line"/>
			<point x="386" y="664" type="line"/>
			<point x="238" y="664" type="line"/>
		</contour>
		<component base="bonemiddle" yOffset="-59"/>
		<component base="ballbig" xOffset="18" yOffset="75"/>
	</outline>
</glyph>
<glyph name="ggo.eth" format="2">
  <advance width="668"/>
  <unicode hex="131E"/>
  <note>
uni131E
</note>
  <anchor x="334" y="866" name="top"/>
  <outline>
    <contour>
      <point x="442" y="0" type="line"/>
      <point x="590" y="0" type="line"/>
      <point x="590" y="107" type="line" smooth="yes"/>
      <point x="590" y="352"/>
      <point x="485" y="456"/>
      <point x="223" y="456" type="curve" smooth="yes"/>
      <point x="106" y="456" type="line"/>
      <point x="67" y="281" type="line"/>
      <point x="92" y="281" type="line" smooth="yes"/>
      <point x="140" y="281"/>
      <point x="174" y="299"/>
      <point x="197" y="354" type="curve"/>
      <point x="207" y="354" type="line" smooth="yes"/>
      <point x="390" y="354"/>
      <point x="442" y="296"/>
      <point x="442" y="71" type="curve" smooth="yes"/>
    </contour>
    <contour>
      <point x="257" y="397" type="line"/>
      <point x="404" y="397" type="line"/>
      <point x="404" y="459" type="line" smooth="yes"/>
      <point x="404" y="475"/>
      <point x="411" y="488"/>
      <point x="427" y="500" type="curve" smooth="yes"/>
      <point x="472" y="533"/>
      <point x="510" y="565"/>
      <point x="510" y="639" type="curve" smooth="yes"/>
      <point x="510" y="716"/>
      <point x="455" y="773"/>
      <point x="332" y="773" type="curve" smooth="yes"/>
      <point x="223" y="773"/>
      <point x="153" y="718"/>
      <point x="153" y="630" type="curve" smooth="yes"/>
      <point x="153" y="550"/>
      <point x="213" y="507"/>
      <point x="266" y="495" type="curve"/>
      <point x="260" y="484"/>
      <point x="257" y="470"/>
      <point x="257" y="455" type="curve" smooth="yes"/>
    </contour>
    <contour>
      <point x="335" y="560" type="curve"/>
      <point x="294" y="579"/>
      <point x="276" y="600"/>
      <point x="276" y="637" type="curve" smooth="yes"/>
      <point x="276" y="664"/>
      <point x="294" y="689"/>
      <point x="332" y="689" type="curve" smooth="yes"/>
      <point x="368" y="689"/>
      <point x="387" y="664"/>
      <point x="387" y="637" type="curve" smooth="yes"/>
      <point x="387" y="608"/>
      <point x="376" y="582"/>
    </contour>
    <component base="bonelong" yOffset="26"/>
  </outline>
</glyph>
<glyph name="the.eth" format="2">
  <advance width="1112"/>
  <unicode hex="1325"/>
  <note>
uni1325
</note>
  <anchor x="553" y="714" name="top"/>
  <outline>
    <contour>
      <point x="532" y="0" type="line"/>
      <point x="680" y="0" type="line"/>
      <point x="680" y="438" type="line"/>
      <point x="590" y="438" type="line"/>
      <point x="590" y="542" type="line"/>
      <point x="613" y="564"/>
      <point x="664" y="600"/>
      <point x="736" y="600" type="curve" smooth="yes"/>
      <point x="838" y="600"/>
      <point x="879" y="539"/>
      <point x="879" y="418" type="curve" smooth="yes"/>
      <point x="879" y="232" type="line"/>
      <point x="1027" y="232" type="line"/>
      <point x="1027" y="455" type="line" smooth="yes"/>
      <point x="1027" y="614"/>
      <point x="942" y="714"/>
      <point x="776" y="714" type="curve" smooth="yes"/>
      <point x="676" y="714"/>
      <point x="616" y="677"/>
      <point x="590" y="656" type="curve"/>
      <point x="590" y="714" type="line"/>
      <point x="426" y="714" type="line" smooth="yes"/>
      <point x="216" y="714"/>
      <point x="80" y="622"/>
      <point x="80" y="378" type="curve" smooth="yes"/>
      <point x="80" y="232" type="line"/>
      <point x="228" y="232" type="line"/>
      <point x="228" y="374" type="line" smooth="yes"/>
      <point x="228" y="515"/>
      <point x="277" y="598"/>
      <point x="419" y="598" type="curve" smooth="yes"/>
      <point x="427" y="598"/>
      <point x="434" y="598"/>
      <point x="442" y="598" type="curve"/>
      <point x="442" y="326" type="line"/>
      <point x="532" y="326" type="line"/>
    </contour>
  </outline>
</glyph>
<glyph name="tho.eth" format="2">
  <advance width="1077"/>
  <unicode hex="1326"/>
  <note>
uni1326
</note>
  <anchor x="536" y="714" name="top"/>
  <outline>
    <contour>
      <point x="80" y="0" type="line"/>
      <point x="228" y="0" type="line"/>
      <point x="228" y="359" type="line" smooth="yes"/>
      <point x="228" y="510"/>
      <point x="277" y="598"/>
      <point x="439" y="598" type="curve" smooth="yes"/>
      <point x="447" y="598"/>
      <point x="454" y="598"/>
      <point x="462" y="598" type="curve"/>
      <point x="462" y="238" type="line"/>
      <point x="610" y="238" type="line"/>
      <point x="610" y="562" type="line"/>
      <point x="631" y="581"/>
      <point x="671" y="600"/>
      <point x="717" y="600" type="curve" smooth="yes"/>
      <point x="809" y="600"/>
      <point x="844" y="545"/>
      <point x="844" y="424" type="curve" smooth="yes"/>
      <point x="844" y="238" type="line"/>
      <point x="992" y="238" type="line"/>
      <point x="992" y="461" type="line" smooth="yes"/>
      <point x="992" y="620"/>
      <point x="925" y="714"/>
      <point x="761" y="714" type="curve" smooth="yes"/>
      <point x="683" y="714"/>
      <point x="635" y="688"/>
      <point x="610" y="668" type="curve"/>
      <point x="610" y="714" type="line"/>
      <point x="436" y="714" type="line" smooth="yes"/>
      <point x="216" y="714"/>
      <point x="80" y="627"/>
      <point x="80" y="363" type="curve" smooth="yes"/>
    </contour>
  </outline>
</glyph>
<glyph name="chwa.eth" format="2">
  <advance width="1167"/>
  <unicode hex="132F"/>
  <note>
uni132F
</note>
  <anchor x="618" y="714" name="top"/>
  <outline>
    <contour>
      <point x="844" y="0" type="line"/>
      <point x="992" y="0" type="line"/>
      <point x="992" y="461" type="line" smooth="yes"/>
      <point x="992" y="620"/>
      <point x="925" y="714"/>
      <point x="761" y="714" type="curve" smooth="yes"/>
      <point x="683" y="714"/>
      <point x="635" y="688"/>
      <point x="610" y="668" type="curve"/>
      <point x="610" y="714" type="line"/>
      <point x="436" y="714" type="line" smooth="yes"/>
      <point x="216" y="714"/>
      <point x="80" y="627"/>
      <point x="80" y="363" type="curve" smooth="yes"/>
      <point x="80" y="209" type="line"/>
      <point x="228" y="209" type="line"/>
      <point x="228" y="359" type="line" smooth="yes"/>
      <point x="228" y="510"/>
      <point x="277" y="598"/>
      <point x="439" y="598" type="curve" smooth="yes"/>
      <point x="447" y="598"/>
      <point x="454" y="598"/>
      <point x="462" y="598" type="curve"/>
      <point x="462" y="209" type="line"/>
      <point x="610" y="209" type="line"/>
      <point x="610" y="562" type="line"/>
      <point x="631" y="581"/>
      <point x="671" y="600"/>
      <point x="717" y="600" type="curve" smooth="yes"/>
      <point x="809" y="600"/>
      <point x="844" y="545"/>
      <point x="844" y="424" type="curve" smooth="yes"/>
    </contour>
    <contour>
      <point x="92" y="209" type="line"/>
      <point x="223" y="209" type="line" smooth="yes"/>
      <point x="349" y="209"/>
      <point x="412" y="266"/>
      <point x="412" y="355" type="curve" smooth="yes"/>
      <point x="412" y="440"/>
      <point x="358" y="488"/>
      <point x="259" y="488" type="curve" smooth="yes"/>
      <point x="101" y="488" type="line"/>
    </contour>
    <contour>
      <point x="228" y="297" type="line"/>
      <point x="228" y="400" type="line"/>
      <point x="246" y="400" type="line" smooth="yes"/>
      <point x="276" y="400"/>
      <point x="291" y="381"/>
      <point x="291" y="354" type="curve" smooth="yes"/>
      <point x="291" y="319"/>
      <point x="275" y="297"/>
      <point x="232" y="297" type="curve" smooth="yes"/>
    </contour>
    <component base="footmiddle" xOffset="554"/>
    <component base="bbowlnarrow" xOffset="445" yOffset="209"/>
  </outline>
</glyph>
<glyph name="pha.eth" format="2">
  <advance width="625"/>
  <unicode hex="1330"/>
  <note>
uni1330
</note>
  <anchor x="312" y="760" name="top"/>
  <outline>
    <contour>
      <point x="30" y="0" type="curve"/>
      <point x="177" y="0" type="line"/>
      <point x="177" y="83"/>
      <point x="212" y="158"/>
      <point x="348" y="248" type="curve" smooth="yes"/>
      <point x="462" y="323"/>
      <point x="521" y="383"/>
      <point x="521" y="483" type="curve" smooth="yes"/>
      <point x="521" y="587"/>
      <point x="449" y="658"/>
      <point x="317" y="658" type="curve" smooth="yes"/>
      <point x="190" y="658"/>
      <point x="104" y="593"/>
      <point x="104" y="476" type="curve" smooth="yes"/>
      <point x="104" y="393"/>
      <point x="151" y="335"/>
      <point x="245" y="305" type="curve"/>
      <point x="344" y="377" type="line"/>
      <point x="279" y="398"/>
      <point x="246" y="425"/>
      <point x="246" y="472" type="curve" smooth="yes"/>
      <point x="246" y="514"/>
      <point x="268" y="543"/>
      <point x="310" y="543" type="curve" smooth="yes"/>
      <point x="352" y="543"/>
      <point x="378" y="518"/>
      <point x="378" y="475" type="curve" smooth="yes"/>
      <point x="378" y="428"/>
      <point x="346" y="386"/>
      <point x="273" y="343" type="curve" smooth="yes"/>
      <point x="97" y="240"/>
      <point x="36" y="142"/>
    </contour>
    <contour>
      <point x="447" y="0" type="line"/>
      <point x="595" y="0" type="line"/>
      <point x="595" y="20" type="line" smooth="yes"/>
      <point x="595" y="170"/>
      <point x="526" y="242"/>
      <point x="367" y="288" type="curve"/>
      <point x="265" y="208" type="line"/>
      <point x="388" y="177"/>
      <point x="447" y="130"/>
      <point x="447" y="9" type="curve" smooth="yes"/>
    </contour>
    <contour>
      <point x="241" y="616" type="line"/>
      <point x="389" y="616" type="line"/>
      <point x="389" y="760" type="line"/>
      <point x="241" y="760" type="line"/>
    </contour>
  </outline>
</glyph>
<glyph name="phu.eth" format="2">
  <advance width="765"/>
  <unicode hex="1331"/>
  <note>
uni1331
</note>
  <anchor x="392" y="760" name="top"/>
  <outline>
    <contour>
      <point x="423" y="142" type="line"/>
      <point x="571" y="142" type="line"/>
      <point x="571" y="243" type="line"/>
      <point x="423" y="243" type="line"/>
    </contour>
    <component base="pha.eth"/>
    <component base="rightsingleflag" xOffset="485" yOffset="-172"/>
  </outline>
</glyph>
<glyph name="phaa.eth" format="2">
  <advance width="609"/>
  <unicode hex="1333"/>
  <note>
uni1333
</note>
  <anchor x="304" y="760" name="top"/>
  <outline>
    <contour>
      <point x="30" y="99" type="curve"/>
      <point x="183" y="99" type="line"/>
      <point x="206" y="147"/>
      <point x="252" y="195"/>
      <point x="332" y="248" type="curve" smooth="yes"/>
      <point x="446" y="323"/>
      <point x="505" y="383"/>
      <point x="505" y="483" type="curve" smooth="yes"/>
      <point x="505" y="587"/>
      <point x="433" y="658"/>
      <point x="301" y="658" type="curve" smooth="yes"/>
      <point x="174" y="658"/>
      <point x="88" y="593"/>
      <point x="88" y="476" type="curve" smooth="yes"/>
      <point x="88" y="393"/>
      <point x="135" y="335"/>
      <point x="229" y="305" type="curve"/>
      <point x="328" y="377" type="line"/>
      <point x="263" y="398"/>
      <point x="230" y="425"/>
      <point x="230" y="472" type="curve" smooth="yes"/>
      <point x="230" y="514"/>
      <point x="252" y="543"/>
      <point x="294" y="543" type="curve" smooth="yes"/>
      <point x="336" y="543"/>
      <point x="362" y="518"/>
      <point x="362" y="475" type="curve" smooth="yes"/>
      <point x="362" y="428"/>
      <point x="330" y="386"/>
      <point x="257" y="343" type="curve" smooth="yes"/>
      <point x="125" y="266"/>
      <point x="57" y="192"/>
    </contour>
    <contour>
      <point x="431" y="0" type="line"/>
      <point x="579" y="0" type="line"/>
      <point x="579" y="20" type="line" smooth="yes"/>
      <point x="579" y="170"/>
      <point x="510" y="242"/>
      <point x="351" y="288" type="curve"/>
      <point x="249" y="208" type="line"/>
      <point x="372" y="177"/>
      <point x="431" y="130"/>
      <point x="431" y="9" type="curve" smooth="yes"/>
    </contour>
    <contour>
      <point x="219" y="616" type="line"/>
      <point x="367" y="616" type="line"/>
      <point x="367" y="760" type="line"/>
      <point x="219" y="760" type="line"/>
    </contour>
  </outline>
</glyph>
<glyph name="phee.eth" format="2">
  <advance width="809"/>
  <unicode hex="1334"/>
  <note>
uni1334
</note>
  <anchor x="409" y="760" name="top"/>
  <outline>
    <contour>
      <point x="30" y="0" type="curve"/>
      <point x="177" y="0" type="line"/>
      <point x="177" y="83"/>
      <point x="212" y="158"/>
      <point x="348" y="248" type="curve" smooth="yes"/>
      <point x="462" y="323"/>
      <point x="521" y="383"/>
      <point x="521" y="483" type="curve" smooth="yes"/>
      <point x="521" y="587"/>
      <point x="449" y="658"/>
      <point x="317" y="658" type="curve" smooth="yes"/>
      <point x="190" y="658"/>
      <point x="104" y="593"/>
      <point x="104" y="476" type="curve" smooth="yes"/>
      <point x="104" y="393"/>
      <point x="151" y="335"/>
      <point x="245" y="305" type="curve"/>
      <point x="344" y="377" type="line"/>
      <point x="279" y="398"/>
      <point x="246" y="425"/>
      <point x="246" y="472" type="curve" smooth="yes"/>
      <point x="246" y="514"/>
      <point x="268" y="543"/>
      <point x="310" y="543" type="curve" smooth="yes"/>
      <point x="352" y="543"/>
      <point x="378" y="518"/>
      <point x="378" y="475" type="curve" smooth="yes"/>
      <point x="378" y="428"/>
      <point x="346" y="386"/>
      <point x="273" y="343" type="curve" smooth="yes"/>
      <point x="97" y="240"/>
      <point x="36" y="142"/>
    </contour>
    <contour>
      <point x="624" y="-18" type="curve" smooth="yes"/>
      <point x="735" y="-18"/>
      <point x="789" y="47"/>
      <point x="789" y="131" type="curve" smooth="yes"/>
      <point x="789" y="215"/>
      <point x="729" y="273"/>
      <point x="623" y="273" type="curve" smooth="yes"/>
      <point x="573" y="273"/>
      <point x="530" y="250"/>
      <point x="505" y="226" type="curve"/>
      <point x="476" y="250"/>
      <point x="433" y="279"/>
      <point x="390" y="289" type="curve"/>
      <point x="279" y="203" type="line"/>
      <point x="348" y="193"/>
      <point x="385" y="169"/>
      <point x="431" y="110" type="curve" smooth="yes"/>
      <point x="484" y="42"/>
      <point x="521" y="-18"/>
    </contour>
    <contour>
      <point x="624" y="69" type="curve" smooth="yes"/>
      <point x="579" y="69"/>
      <point x="562" y="99"/>
      <point x="562" y="129" type="curve" smooth="yes"/>
      <point x="562" y="156"/>
      <point x="578" y="185"/>
      <point x="624" y="185" type="curve" smooth="yes"/>
      <point x="669" y="185"/>
      <point x="685" y="156"/>
      <point x="685" y="129" type="curve" smooth="yes"/>
      <point x="685" y="99"/>
      <point x="668" y="69"/>
    </contour>
    <contour>
      <point x="241" y="616" type="line"/>
      <point x="389" y="616" type="line"/>
      <point x="389" y="760" type="line"/>
      <point x="241" y="760" type="line"/>
    </contour>
  </outline>
</glyph>
<glyph name="pho.eth" format="2">
  <advance width="614"/>
  <unicode hex="1336"/>
  <note>
uni1336
</note>
  <anchor x="307" y="760" name="top"/>
  <outline>
    <contour>
      <point x="30" y="0" type="curve"/>
      <point x="177" y="0" type="line"/>
      <point x="177" y="83"/>
      <point x="212" y="158"/>
      <point x="348" y="248" type="curve" smooth="yes"/>
      <point x="462" y="323"/>
      <point x="521" y="383"/>
      <point x="521" y="483" type="curve" smooth="yes"/>
      <point x="521" y="587"/>
      <point x="449" y="658"/>
      <point x="317" y="658" type="curve" smooth="yes"/>
      <point x="190" y="658"/>
      <point x="104" y="593"/>
      <point x="104" y="476" type="curve" smooth="yes"/>
      <point x="104" y="393"/>
      <point x="151" y="335"/>
      <point x="245" y="305" type="curve"/>
      <point x="344" y="377" type="line"/>
      <point x="279" y="398"/>
      <point x="246" y="425"/>
      <point x="246" y="472" type="curve" smooth="yes"/>
      <point x="246" y="514"/>
      <point x="268" y="543"/>
      <point x="310" y="543" type="curve" smooth="yes"/>
      <point x="352" y="543"/>
      <point x="378" y="518"/>
      <point x="378" y="475" type="curve" smooth="yes"/>
      <point x="378" y="428"/>
      <point x="346" y="386"/>
      <point x="273" y="343" type="curve" smooth="yes"/>
      <point x="97" y="240"/>
      <point x="36" y="142"/>
    </contour>
    <contour>
      <point x="426" y="110" type="curve"/>
      <point x="584" y="110" type="line"/>
      <point x="559" y="201"/>
      <point x="490" y="252"/>
      <point x="367" y="288" type="curve"/>
      <point x="265" y="208" type="line"/>
      <point x="346" y="188"/>
      <point x="399" y="160"/>
    </contour>
    <contour>
      <point x="228" y="616" type="line"/>
      <point x="376" y="616" type="line"/>
      <point x="376" y="760" type="line"/>
      <point x="228" y="760" type="line"/>
    </contour>
  </outline>
</glyph>
<glyph name="tsa.eth" format="2">
  <advance width="625"/>
  <unicode hex="1338"/>
  <note>
uni1338
</note>
  <anchor x="312" y="723" name="top"/>
  <outline>
    <contour>
      <point x="30" y="0" type="curve"/>
      <point x="177" y="0" type="line"/>
      <point x="177" y="133"/>
      <point x="212" y="223"/>
      <point x="348" y="313" type="curve" smooth="yes"/>
      <point x="462" y="388"/>
      <point x="521" y="448"/>
      <point x="521" y="548" type="curve" smooth="yes"/>
      <point x="521" y="652"/>
      <point x="449" y="723"/>
      <point x="317" y="723" type="curve" smooth="yes"/>
      <point x="190" y="723"/>
      <point x="104" y="658"/>
      <point x="104" y="541" type="curve" smooth="yes"/>
      <point x="104" y="458"/>
      <point x="151" y="400"/>
      <point x="245" y="370" type="curve"/>
      <point x="344" y="442" type="line"/>
      <point x="279" y="463"/>
      <point x="246" y="490"/>
      <point x="246" y="537" type="curve" smooth="yes"/>
      <point x="246" y="579"/>
      <point x="268" y="608"/>
      <point x="310" y="608" type="curve" smooth="yes"/>
      <point x="352" y="608"/>
      <point x="378" y="583"/>
      <point x="378" y="540" type="curve" smooth="yes"/>
      <point x="378" y="493"/>
      <point x="346" y="457"/>
      <point x="273" y="408" type="curve" smooth="yes"/>
      <point x="102" y="293"/>
      <point x="36" y="192"/>
    </contour>
    <contour>
      <point x="447" y="0" type="line"/>
      <point x="595" y="0" type="line"/>
      <point x="595" y="30" type="line" smooth="yes"/>
      <point x="595" y="210"/>
      <point x="526" y="307"/>
      <point x="367" y="353" type="curve"/>
      <point x="265" y="273" type="line"/>
      <point x="388" y="242"/>
      <point x="447" y="180"/>
      <point x="447" y="19" type="curve" smooth="yes"/>
    </contour>
  </outline>
</glyph>
<glyph name="tsaa.eth" format="2">
  <advance width="612"/>
  <unicode hex="133B"/>
  <note>
uni133B
</note>
  <anchor x="306" y="723" name="top"/>
  <outline>
    <contour>
      <point x="30" y="120" type="curve"/>
      <point x="177" y="120" type="line"/>
      <point x="198" y="193"/>
      <point x="244" y="253"/>
      <point x="335" y="313" type="curve" smooth="yes"/>
      <point x="449" y="388"/>
      <point x="508" y="448"/>
      <point x="508" y="548" type="curve" smooth="yes"/>
      <point x="508" y="652"/>
      <point x="436" y="723"/>
      <point x="304" y="723" type="curve" smooth="yes"/>
      <point x="177" y="723"/>
      <point x="91" y="658"/>
      <point x="91" y="541" type="curve" smooth="yes"/>
      <point x="91" y="458"/>
      <point x="138" y="400"/>
      <point x="232" y="370" type="curve"/>
      <point x="331" y="442" type="line"/>
      <point x="266" y="463"/>
      <point x="233" y="490"/>
      <point x="233" y="537" type="curve" smooth="yes"/>
      <point x="233" y="579"/>
      <point x="255" y="608"/>
      <point x="297" y="608" type="curve" smooth="yes"/>
      <point x="339" y="608"/>
      <point x="365" y="583"/>
      <point x="365" y="540" type="curve" smooth="yes"/>
      <point x="365" y="493"/>
      <point x="333" y="451"/>
      <point x="260" y="408" type="curve" smooth="yes"/>
      <point x="124" y="328"/>
      <point x="56" y="243"/>
    </contour>
    <contour>
      <point x="434" y="0" type="line"/>
      <point x="582" y="0" type="line"/>
      <point x="582" y="30" type="line" smooth="yes"/>
      <point x="582" y="210"/>
      <point x="513" y="307"/>
      <point x="354" y="353" type="curve"/>
      <point x="252" y="273" type="line"/>
      <point x="375" y="242"/>
      <point x="434" y="180"/>
      <point x="434" y="19" type="curve" smooth="yes"/>
    </contour>
  </outline>
</glyph>
<glyph name="tsee.eth" format="2">
  <advance width="809"/>
  <unicode hex="133C"/>
  <note>
uni133C
</note>
  <anchor x="409" y="723" name="top"/>
  <outline>
    <contour>
      <point x="30" y="0" type="curve"/>
      <point x="177" y="0" type="line"/>
      <point x="177" y="133"/>
      <point x="212" y="223"/>
      <point x="348" y="313" type="curve" smooth="yes"/>
      <point x="462" y="388"/>
      <point x="521" y="448"/>
      <point x="521" y="548" type="curve" smooth="yes"/>
      <point x="521" y="652"/>
      <point x="449" y="723"/>
      <point x="317" y="723" type="curve" smooth="yes"/>
      <point x="190" y="723"/>
      <point x="104" y="658"/>
      <point x="104" y="541" type="curve" smooth="yes"/>
      <point x="104" y="458"/>
      <point x="151" y="400"/>
      <point x="245" y="370" type="curve"/>
      <point x="344" y="442" type="line"/>
      <point x="279" y="463"/>
      <point x="246" y="490"/>
      <point x="246" y="537" type="curve" smooth="yes"/>
      <point x="246" y="579"/>
      <point x="268" y="608"/>
      <point x="310" y="608" type="curve" smooth="yes"/>
      <point x="352" y="608"/>
      <point x="378" y="583"/>
      <point x="378" y="540" type="curve" smooth="yes"/>
      <point x="378" y="493"/>
      <point x="346" y="451"/>
      <point x="273" y="408" type="curve" smooth="yes"/>
      <point x="97" y="305"/>
      <point x="36" y="192"/>
    </contour>
    <contour>
      <point x="624" y="-18" type="curve" smooth="yes"/>
      <point x="736" y="-18"/>
      <point x="789" y="47"/>
      <point x="789" y="131" type="curve" smooth="yes"/>
      <point x="789" y="215"/>
      <point x="727" y="273"/>
      <point x="623" y="273" type="curve" smooth="yes"/>
      <point x="573" y="273"/>
      <point x="531" y="255"/>
      <point x="506" y="231" type="curve"/>
      <point x="476" y="286"/>
      <point x="419" y="339"/>
      <point x="346" y="354" type="curve"/>
      <point x="252" y="278" type="line"/>
      <point x="342" y="255"/>
      <point x="390" y="221"/>
      <point x="426" y="125" type="curve" smooth="yes"/>
      <point x="456" y="45"/>
      <point x="506" y="-18"/>
    </contour>
    <contour>
      <point x="620" y="69" type="curve" smooth="yes"/>
      <point x="575" y="69"/>
      <point x="558" y="99"/>
      <point x="558" y="129" type="curve" smooth="yes"/>
      <point x="558" y="156"/>
      <point x="574" y="185"/>
      <point x="620" y="185" type="curve" smooth="yes"/>
      <point x="665" y="185"/>
      <point x="681" y="156"/>
      <point x="681" y="129" type="curve" smooth="yes"/>
      <point x="681" y="99"/>
      <point x="664" y="69"/>
    </contour>
  </outline>
</glyph>
<glyph name="tso.eth" format="2">
  <advance width="618"/>
  <unicode hex="133E"/>
  <note>
uni133E
</note>
  <anchor x="309" y="723" name="top"/>
  <outline>
    <contour>
      <point x="30" y="0" type="curve"/>
      <point x="177" y="0" type="line"/>
      <point x="177" y="133"/>
      <point x="212" y="223"/>
      <point x="348" y="313" type="curve" smooth="yes"/>
      <point x="462" y="388"/>
      <point x="521" y="448"/>
      <point x="521" y="548" type="curve" smooth="yes"/>
      <point x="521" y="652"/>
      <point x="449" y="723"/>
      <point x="317" y="723" type="curve" smooth="yes"/>
      <point x="190" y="723"/>
      <point x="104" y="658"/>
      <point x="104" y="541" type="curve" smooth="yes"/>
      <point x="104" y="458"/>
      <point x="151" y="400"/>
      <point x="245" y="370" type="curve"/>
      <point x="344" y="442" type="line"/>
      <point x="279" y="463"/>
      <point x="246" y="490"/>
      <point x="246" y="537" type="curve" smooth="yes"/>
      <point x="246" y="579"/>
      <point x="268" y="608"/>
      <point x="310" y="608" type="curve" smooth="yes"/>
      <point x="352" y="608"/>
      <point x="378" y="583"/>
      <point x="378" y="540" type="curve" smooth="yes"/>
      <point x="378" y="493"/>
      <point x="346" y="451"/>
      <point x="273" y="408" type="curve" smooth="yes"/>
      <point x="97" y="305"/>
      <point x="36" y="192"/>
    </contour>
    <contour>
      <point x="436" y="120" type="curve"/>
      <point x="588" y="120" type="line"/>
      <point x="567" y="244"/>
      <point x="497" y="315"/>
      <point x="367" y="353" type="curve"/>
      <point x="265" y="273" type="line"/>
      <point x="358" y="250"/>
      <point x="414" y="208"/>
    </contour>
  </outline>
</glyph>
<glyph name="tza.eth" format="2">
  <advance width="587"/>
  <unicode hex="1340"/>
  <note>
uni1340
</note>
  <anchor x="293" y="724" name="top"/>
  <outline>
    <contour>
      <point x="178" y="311" type="line"/>
      <point x="409" y="311" type="line"/>
      <point x="409" y="412" type="line"/>
      <point x="178" y="412" type="line"/>
    </contour>
    <component base="aPhr.eth"/>
  </outline>
</glyph>
<glyph name="tzi.eth" format="2">
  <advance width="550"/>
  <unicode hex="1342"/>
  <note>
uni1342
</note>
  <anchor x="285" y="724" name="top"/>
  <outline>
    <contour>
      <point x="245" y="0" type="line"/>
      <point x="359" y="0" type="line"/>
      <point x="359" y="102" type="line"/>
      <point x="245" y="102" type="line"/>
    </contour>
    <component base="tzaa.eth"/>
    <component base="rightdoubleflag" xOffset="270"/>
  </outline>
</glyph>
<glyph name="tzaa.eth" format="2">
  <advance width="527"/>
  <unicode hex="1343"/>
  <note>
uni1343
</note>
  <anchor x="258" y="724" name="top"/>
  <outline>
    <contour>
      <point x="139" y="0" type="line"/>
      <point x="288" y="0" type="line"/>
      <point x="302" y="85" type="line" smooth="yes"/>
      <point x="317" y="176"/>
      <point x="334" y="233"/>
      <point x="394" y="303" type="curve" smooth="yes"/>
      <point x="447" y="365"/>
      <point x="487" y="432"/>
      <point x="487" y="523" type="curve" smooth="yes"/>
      <point x="487" y="650"/>
      <point x="404" y="724"/>
      <point x="258" y="724" type="curve" smooth="yes"/>
      <point x="106" y="724"/>
      <point x="30" y="637"/>
      <point x="30" y="512" type="curve" smooth="yes"/>
      <point x="30" y="394"/>
      <point x="90" y="315"/>
      <point x="212" y="277" type="curve"/>
      <point x="190" y="245"/>
      <point x="171" y="188"/>
      <point x="153" y="83" type="curve" smooth="yes"/>
    </contour>
    <contour>
      <point x="278" y="381" type="curve"/>
      <point x="215" y="391"/>
      <point x="185" y="429"/>
      <point x="182" y="463" type="curve"/>
      <point x="333" y="463" type="line"/>
      <point x="328" y="432"/>
      <point x="296" y="400"/>
    </contour>
    <contour>
      <point x="181" y="544" type="line"/>
      <point x="185" y="588"/>
      <point x="213" y="615"/>
      <point x="258" y="615" type="curve" smooth="yes"/>
      <point x="302" y="615"/>
      <point x="331" y="589"/>
      <point x="335" y="544" type="curve"/>
    </contour>
  </outline>
</glyph>
<glyph name="tzee.eth" format="2">
  <advance width="597"/>
  <unicode hex="1344"/>
  <note>
uni1344
</note>
  <anchor x="307" y="724" name="top"/>
  <outline>
    <contour>
      <point x="177" y="0" type="line"/>
      <point x="344" y="0" type="line" smooth="yes"/>
      <point x="513" y="0"/>
      <point x="584" y="64"/>
      <point x="584" y="164" type="curve" smooth="yes"/>
      <point x="584" y="260"/>
      <point x="522" y="314"/>
      <point x="396" y="314" type="curve" smooth="yes"/>
      <point x="264" y="314" type="line"/>
    </contour>
    <contour>
      <point x="297" y="99" type="line"/>
      <point x="325" y="215" type="line"/>
      <point x="371" y="215" type="line" smooth="yes"/>
      <point x="419" y="215"/>
      <point x="438" y="191"/>
      <point x="438" y="160" type="curve" smooth="yes"/>
      <point x="438" y="121"/>
      <point x="415" y="99"/>
      <point x="358" y="99" type="curve" smooth="yes"/>
    </contour>
    <component base="tzaa.eth"/>
  </outline>
</glyph>
<glyph name="tzo.eth" format="2">
  <advance width="563"/>
  <unicode hex="1346"/>
  <note>
uni1346
</note>
  <anchor x="281" y="723" name="top"/>
  <outline>
    <contour>
      <point x="186" y="472" type="line"/>
      <point x="451" y="472" type="line"/>
      <point x="451" y="551" type="line"/>
      <point x="186" y="551" type="line"/>
    </contour>
    <component base="oPhr.eth"/>
  </outline>
</glyph>
<glyph name="fa.eth" format="2">
  <advance width="673"/>
  <unicode hex="1348"/>
  <note>
uni1348
</note>
  <anchor x="351" y="723" name="top"/>
  <outline>
    <contour>
      <point x="252" y="0" type="curve" smooth="yes"/>
      <point x="511" y="0" type="line"/>
      <point x="557" y="102" type="line"/>
      <point x="428" y="102" type="line"/>
      <point x="442" y="120"/>
      <point x="460" y="162"/>
      <point x="460" y="206" type="curve" smooth="yes"/>
      <point x="460" y="285"/>
      <point x="416" y="332"/>
      <point x="355" y="360" type="curve"/>
      <point x="384" y="377"/>
      <point x="422" y="403"/>
      <point x="449" y="436" type="curve" smooth="yes"/>
      <point x="497" y="495"/>
      <point x="535" y="579"/>
      <point x="537" y="723" type="curve"/>
      <point x="390" y="723" type="line"/>
      <point x="388" y="625"/>
      <point x="371" y="561"/>
      <point x="333" y="509" type="curve" smooth="yes"/>
      <point x="305" y="471"/>
      <point x="265" y="441"/>
      <point x="206" y="408" type="curve" smooth="yes"/>
      <point x="115" y="357"/>
      <point x="40" y="306"/>
      <point x="40" y="185" type="curve" smooth="yes"/>
      <point x="40" y="75"/>
      <point x="105" y="0"/>
    </contour>
    <contour>
      <point x="249" y="110" type="curve" smooth="yes"/>
      <point x="209" y="110"/>
      <point x="181" y="137"/>
      <point x="181" y="188" type="curve" smooth="yes"/>
      <point x="181" y="238"/>
      <point x="200" y="272"/>
      <point x="251" y="294" type="curve"/>
      <point x="291" y="277"/>
      <point x="321" y="244"/>
      <point x="321" y="192" type="curve" smooth="yes"/>
      <point x="321" y="143"/>
      <point x="297" y="110"/>
    </contour>
    <component base="rightdoubleflag" xOffset="393"/>
  </outline>
</glyph>
<glyph name="fu.eth" format="2">
  <advance width="687"/>
  <unicode hex="1349"/>
  <note>
uni1349
</note>
  <anchor x="358" y="760" name="top"/>
  <outline>
    <contour>
      <point x="81" y="0" type="curve"/>
      <point x="228" y="0" type="line"/>
      <point x="238" y="71"/>
      <point x="285" y="148"/>
      <point x="352" y="201" type="curve" smooth="yes"/>
      <point x="426" y="260"/>
      <point x="455" y="315"/>
      <point x="455" y="387" type="curve" smooth="yes"/>
      <point x="455" y="458"/>
      <point x="419" y="515"/>
      <point x="361" y="541" type="curve"/>
      <point x="464" y="582"/>
      <point x="520" y="648"/>
      <point x="526" y="760" type="curve"/>
      <point x="383" y="760" type="line"/>
      <point x="378" y="671"/>
      <point x="330" y="618"/>
      <point x="188" y="570" type="curve" smooth="yes"/>
      <point x="106" y="542"/>
      <point x="40" y="490"/>
      <point x="40" y="378" type="curve" smooth="yes"/>
      <point x="40" y="290"/>
      <point x="94" y="222"/>
      <point x="188" y="204" type="curve"/>
      <point x="128" y="160"/>
      <point x="90" y="73"/>
    </contour>
    <contour>
      <point x="248" y="309" type="curve" smooth="yes"/>
      <point x="208" y="309"/>
      <point x="180" y="333"/>
      <point x="180" y="386" type="curve" smooth="yes"/>
      <point x="180" y="434"/>
      <point x="208" y="460"/>
      <point x="248" y="460" type="curve" smooth="yes"/>
      <point x="290" y="460"/>
      <point x="315" y="434"/>
      <point x="315" y="386" type="curve" smooth="yes"/>
      <point x="315" y="333"/>
      <point x="290" y="309"/>
    </contour>
    <contour>
      <point x="328" y="198" type="line"/>
      <point x="459" y="198" type="line"/>
      <point x="459" y="300" type="line"/>
      <point x="328" y="300" type="line"/>
    </contour>
    <component base="rightdoubleflag" xOffset="407" yOffset="198"/>
  </outline>
</glyph>
<glyph name="fi.eth" format="2">
  <advance width="750"/>
  <unicode hex="134A"/>
  <note>
uni134A
</note>
  <anchor x="390" y="723" name="top"/>
  <outline>
    <contour>
      <point x="265" y="0" type="line"/>
      <point x="491" y="0" type="line" smooth="yes"/>
      <point x="662" y="0"/>
      <point x="740" y="80"/>
      <point x="740" y="237" type="curve" smooth="yes"/>
      <point x="740" y="293" type="line"/>
      <point x="592" y="293" type="line"/>
      <point x="592" y="228" type="line" smooth="yes"/>
      <point x="592" y="145"/>
      <point x="554" y="112"/>
      <point x="488" y="112" type="curve" smooth="yes"/>
      <point x="427" y="112" type="line"/>
    </contour>
    <contour>
      <point x="543" y="723" type="curve"/>
      <point x="390" y="723" type="line"/>
      <point x="386" y="595"/>
      <point x="350" y="524"/>
      <point x="221" y="449" type="curve" smooth="yes"/>
      <point x="107" y="383"/>
      <point x="40" y="320"/>
      <point x="40" y="197" type="curve" smooth="yes"/>
      <point x="40" y="81"/>
      <point x="113" y="0"/>
      <point x="258" y="0" type="curve" smooth="yes"/>
      <point x="389" y="0"/>
      <point x="480" y="73"/>
      <point x="480" y="199" type="curve" smooth="yes"/>
      <point x="480" y="290"/>
      <point x="436" y="357"/>
      <point x="369" y="394" type="curve"/>
      <point x="477" y="464"/>
      <point x="540" y="544"/>
    </contour>
    <contour>
      <point x="265" y="329" type="curve"/>
      <point x="302" y="312"/>
      <point x="334" y="265"/>
      <point x="334" y="203" type="curve" smooth="yes"/>
      <point x="334" y="144"/>
      <point x="308" y="110"/>
      <point x="255" y="110" type="curve" smooth="yes"/>
      <point x="208" y="110"/>
      <point x="182" y="143"/>
      <point x="182" y="196" type="curve" smooth="yes"/>
      <point x="182" y="256"/>
      <point x="203" y="299"/>
    </contour>
  </outline>
</glyph>
<glyph name="faa.eth" format="2">
  <advance width="691"/>
  <unicode hex="134B"/>
  <note>
uni134B
</note>
  <anchor x="360" y="761" name="top"/>
  <outline>
    <contour>
      <point x="308" y="0" type="line"/>
      <point x="456" y="0" type="line"/>
      <point x="456" y="197" type="line"/>
      <point x="553" y="197" type="line"/>
      <point x="553" y="298" type="line"/>
      <point x="456" y="298" type="line"/>
      <point x="456" y="358" type="line" smooth="yes"/>
      <point x="456" y="438"/>
      <point x="437" y="495"/>
      <point x="367" y="531" type="curve"/>
      <point x="461" y="568"/>
      <point x="520" y="649"/>
      <point x="526" y="761" type="curve"/>
      <point x="379" y="761" type="line"/>
      <point x="372" y="663"/>
      <point x="321" y="602"/>
      <point x="195" y="568" type="curve" smooth="yes"/>
      <point x="102" y="543"/>
      <point x="40" y="493"/>
      <point x="40" y="373" type="curve" smooth="yes"/>
      <point x="40" y="232"/>
      <point x="139" y="187"/>
      <point x="254" y="187" type="curve" smooth="yes"/>
      <point x="308" y="187" type="line"/>
    </contour>
    <contour>
      <point x="262" y="298" type="line" smooth="yes"/>
      <point x="213" y="298"/>
      <point x="186" y="325"/>
      <point x="186" y="381" type="curve" smooth="yes"/>
      <point x="186" y="439"/>
      <point x="209" y="465"/>
      <point x="248" y="465" type="curve" smooth="yes"/>
      <point x="286" y="465"/>
      <point x="308" y="435"/>
      <point x="308" y="371" type="curve" smooth="yes"/>
      <point x="308" y="298" type="line"/>
    </contour>
    <component base="rightsingleflag" xOffset="411" yOffset="-117"/>
  </outline>
</glyph>
<glyph name="fee.eth" format="2">
  <advance width="862"/>
  <unicode hex="134C"/>
  <note>
uni134C
</note>
  <anchor x="441" y="723" name="top"/>
  <outline>
    <contour>
      <point x="309" y="44" type="line"/>
      <point x="621" y="44" type="line"/>
      <point x="581" y="132" type="line"/>
      <point x="363" y="132" type="line"/>
    </contour>
    <component base="ballsmall" xOffset="492" yOffset="-170"/>
    <component base="oPhr.eth" xScale="-1" yScale="-1" xOffset="573" yOffset="723"/>
  </outline>
</glyph>
<glyph name="fe.eth" format="2">
  <advance width="676"/>
  <unicode hex="134D"/>
  <note>
uni134D
</note>
  <anchor x="358" y="714" name="top"/>
  <outline>
    <contour>
      <point x="639" y="70" type="curve" smooth="yes"/>
      <point x="666" y="70" type="line"/>
      <point x="627" y="245" type="line"/>
      <point x="325" y="245" type="line" smooth="yes"/>
      <point x="245" y="245"/>
      <point x="198" y="300"/>
      <point x="198" y="397" type="curve" smooth="yes"/>
      <point x="198" y="527"/>
      <point x="255" y="612"/>
      <point x="383" y="612" type="curve" smooth="yes"/>
      <point x="515" y="612" type="line"/>
      <point x="536" y="564"/>
      <point x="566" y="539"/>
      <point x="618" y="539" type="curve" smooth="yes"/>
      <point x="645" y="539" type="line"/>
      <point x="606" y="714" type="line"/>
      <point x="366" y="714" type="line" smooth="yes"/>
      <point x="193" y="714"/>
      <point x="50" y="614"/>
      <point x="50" y="394" type="curve" smooth="yes"/>
      <point x="50" y="233"/>
      <point x="137" y="143"/>
      <point x="318" y="143" type="curve" smooth="yes"/>
      <point x="536" y="143" type="line"/>
      <point x="561" y="88"/>
      <point x="592" y="70"/>
    </contour>
    <contour>
      <point x="330" y="0" type="line"/>
      <point x="478" y="0" type="line"/>
      <point x="478" y="250" type="line" smooth="yes"/>
      <point x="478" y="435"/>
      <point x="373" y="503"/>
      <point x="208" y="508" type="curve"/>
      <point x="193" y="413" type="line"/>
      <point x="279" y="411"/>
      <point x="330" y="368"/>
      <point x="330" y="245" type="curve" smooth="yes"/>
    </contour>
  </outline>
</glyph>
<glyph name="fo.eth" format="2">
  <advance width="760"/>
  <unicode hex="134E"/>
  <note>
uni134E
</note>
  <anchor x="401" y="714" name="top"/>
  <outline>
    <contour>
      <point x="53" y="0" type="line"/>
      <point x="201" y="0" type="line"/>
      <point x="201" y="318" type="line" smooth="yes"/>
      <point x="201" y="536"/>
      <point x="260" y="612"/>
      <point x="388" y="612" type="curve"/>
      <point x="476" y="714" type="line"/>
      <point x="387" y="714" type="line" smooth="yes"/>
      <point x="194" y="714"/>
      <point x="53" y="620"/>
      <point x="53" y="307" type="curve" smooth="yes"/>
    </contour>
    <contour>
      <point x="99" y="0" type="line"/>
      <point x="552" y="0" type="line"/>
      <point x="552" y="102" type="line"/>
      <point x="99" y="102" type="line"/>
    </contour>
    <component base="baselinebowl" xOffset="23" yOffset="4"/>
    <component base="ballbig" xOffset="273" yOffset="263"/>
    <component base="rightdoubleflag" xOffset="480"/>
  </outline>
</glyph>
<glyph name="fwa.eth" format="2">
  <advance width="694"/>
  <unicode hex="134F"/>
  <note>
uni134F
</note>
  <anchor x="352" y="714" name="top"/>
  <outline>
    <contour>
      <point x="310" y="72" type="line"/>
      <point x="458" y="72" type="line"/>
      <point x="458" y="233" type="line"/>
      <point x="566" y="233" type="line"/>
      <point x="566" y="335" type="line"/>
      <point x="458" y="335" type="line"/>
      <point x="452" y="432"/>
      <point x="417" y="488"/>
      <point x="326" y="513" type="curve"/>
      <point x="354" y="527"/>
      <point x="376" y="543"/>
      <point x="395" y="564" type="curve" smooth="yes"/>
      <point x="428" y="601"/>
      <point x="446" y="654"/>
      <point x="447" y="714" type="curve"/>
      <point x="298" y="714" type="line"/>
      <point x="298" y="649"/>
      <point x="278" y="604"/>
      <point x="177" y="552" type="curve" smooth="yes"/>
      <point x="56" y="490"/>
      <point x="20" y="450"/>
      <point x="20" y="375" type="curve" smooth="yes"/>
      <point x="20" y="276"/>
      <point x="77" y="233"/>
      <point x="258" y="233" type="curve" smooth="yes"/>
      <point x="310" y="233" type="line"/>
    </contour>
    <contour>
      <point x="248" y="335" type="line" smooth="yes"/>
      <point x="188" y="335"/>
      <point x="167" y="357"/>
      <point x="167" y="387" type="curve" smooth="yes"/>
      <point x="167" y="417"/>
      <point x="189" y="432"/>
      <point x="223" y="446" type="curve"/>
      <point x="278" y="436"/>
      <point x="310" y="420"/>
      <point x="310" y="335" type="curve"/>
    </contour>
    <component base="rightsingleflag" xOffset="411" yOffset="-81"/>
    <component base="footmiddle" xOffset="81"/>
  </outline>
</glyph>
<glyph name="pe.eth" format="2">
  <advance width="613"/>
  <unicode hex="1355"/>
  <note>
uni1355
</note>
  <anchor x="306" y="714" name="top"/>
  <outline>
    <contour>
      <point x="334" y="0" type="line"/>
      <point x="482" y="0" type="line"/>
      <point x="482" y="374" type="line"/>
      <point x="334" y="374" type="line"/>
    </contour>
    <contour>
      <point x="238" y="333" type="line"/>
      <point x="482" y="333" type="line"/>
      <point x="482" y="440" type="line"/>
      <point x="238" y="440" type="line"/>
    </contour>
    <contour>
      <point x="238" y="374" type="line"/>
      <point x="386" y="374" type="line"/>
      <point x="386" y="667" type="line"/>
      <point x="238" y="667" type="line"/>
    </contour>
    <component base="footmiddle" yOffset="612"/>
  </outline>
</glyph>
<glyph name="po.eth" format="2">
  <advance width="657"/>
  <unicode hex="1356"/>
  <note>
uni1356
</note>
  <anchor x="343" y="715" name="top"/>
  <outline>
    <contour>
      <point x="40" y="0" type="line"/>
      <point x="188" y="0" type="line"/>
      <point x="188" y="59" type="line" smooth="yes"/>
      <point x="188" y="155"/>
      <point x="205" y="214"/>
      <point x="293" y="301" type="curve" smooth="yes"/>
      <point x="403" y="410"/>
      <point x="432" y="469"/>
      <point x="432" y="652" type="curve"/>
      <point x="284" y="652" type="line"/>
      <point x="284" y="520"/>
      <point x="272" y="472"/>
      <point x="185" y="387" type="curve" smooth="yes"/>
      <point x="78" y="283"/>
      <point x="40" y="201"/>
      <point x="40" y="59" type="curve" smooth="yes"/>
    </contour>
    <component base="footmiddle" xOffset="44" yOffset="613"/>
  </outline>
</glyph>
<glyph name="rya.eth" format="2">
  <advance width="662"/>
  <unicode hex="1358"/>
  <note>
uni1358
</note>
  <anchor x="346" y="743" name="top"/>
  <outline>
    <contour>
      <point x="296" y="-10" type="curve" smooth="yes"/>
      <point x="475" y="-10"/>
      <point x="555" y="76"/>
      <point x="555" y="233" type="curve" smooth="yes"/>
      <point x="555" y="269" type="line"/>
      <point x="406" y="269" type="line"/>
      <point x="406" y="229" type="line" smooth="yes"/>
      <point x="406" y="121"/>
      <point x="372" y="82"/>
      <point x="296" y="82" type="curve" smooth="yes"/>
      <point x="223" y="82"/>
      <point x="191" y="122"/>
      <point x="191" y="188" type="curve" smooth="yes"/>
      <point x="191" y="251"/>
      <point x="222" y="286"/>
      <point x="308" y="345" type="curve" smooth="yes"/>
      <point x="445" y="439"/>
      <point x="470" y="511"/>
      <point x="470" y="644" type="curve"/>
      <point x="322" y="644" type="line"/>
      <point x="322" y="551"/>
      <point x="308" y="500"/>
      <point x="211" y="435" type="curve" smooth="yes"/>
      <point x="99" y="360"/>
      <point x="40" y="300"/>
      <point x="40" y="187" type="curve" smooth="yes"/>
      <point x="40" y="58"/>
      <point x="127" y="-10"/>
    </contour>
    <component base="footright" xScale="-1" yScale="-1" xOffset="662" yOffset="670"/>
  </outline>
</glyph>
